<svg xmlns="http://www.w3.org/2000/svg" viewBox="0 0 446.81 408.68"><defs><style>.cls-1{fill:#f5f5f5;}.cls-2{fill:#e0e0e0;}.cls-26,.cls-3{fill:#09f;}.cls-13,.cls-4{opacity:0.3;}.cls-11,.cls-20,.cls-25,.cls-28,.cls-30,.cls-5{fill:#fff;}.cls-31,.cls-6{opacity:0.15;}.cls-7{fill:#37474f;}.cls-8{fill:#455a64;}.cls-9{fill:#263238;}.cls-10{fill:#fafafa;}.cls-11,.cls-24{opacity:0.5;}.cls-12,.cls-26,.cls-30{opacity:0.4;}.cls-14,.cls-23{opacity:0.2;}.cls-15,.cls-21{opacity:0.1;}.cls-16{fill:#27debf;}.cls-17{fill:#ebebeb;}.cls-18{opacity:0.7;}.cls-19,.cls-21,.cls-23{fill:#75ead6;}.cls-20{opacity:0.8;}.cls-22{fill:#5c5c5c;}.cls-22,.cls-27{opacity:0.05;}.cls-25{opacity:0.6;}.cls-28{opacity:0.35;}.cls-29{fill:#f0f0f0;}.cls-32{opacity:0.25;}</style></defs><g id="Floor"><ellipse id="Floor-2" data-name="Floor" class="cls-1" cx="223.4" cy="277.45" rx="223.4" ry="131.22"/></g><g id="Shadows"><path id="Shadow" class="cls-2" d="M94,345.91c12.92,7.46,12.92,19.56,0,27s-33.89,7.46-46.82,0-12.93-19.57,0-27S81,338.44,94,345.91Z" transform="translate(-26.6 -68.34)"/><path id="Shadow-2" data-name="Shadow" class="cls-2" d="M122.34,363.06l117.26,67.7a9.57,9.57,0,0,0,8.66,0l198.5-114.6c2.39-1.38,2.39-3.62,0-5L329.5,243.45a9.57,9.57,0,0,0-8.66,0L122.34,358.06C119.94,359.44,119.94,361.68,122.34,363.06Z" transform="translate(-26.6 -68.34)"/></g><g id="Plants"><g id="Plants-2" data-name="Plants"><path class="cls-3" d="M418.28,291.88l-8.17-4.72s-4.87-20.21-2.93-38.39c2.73-25.56,16.48-36.69,25.95-33,6.3,2.48,8.25,9.64-2.34,24.87C424.55,249.65,416.88,268.35,418.28,291.88Z" transform="translate(-26.6 -68.34)"/><g class="cls-4"><path d="M418.28,291.88l-8.17-4.72s-4.87-20.21-2.93-38.39c2.73-25.56,16.48-36.69,25.95-33,6.3,2.48,8.25,9.64-2.34,24.87C424.55,249.65,416.88,268.35,418.28,291.88Z" transform="translate(-26.6 -68.34)"/></g><path class="cls-5" d="M414.89,282H415a.56.56,0,0,0,.45-.66c-4.48-23.57,3.76-50.07,14-61.09a.57.57,0,0,0-.84-.77c-10.38,11.23-18.78,38.15-14.23,62.07A.55.55,0,0,0,414.89,282Z" transform="translate(-26.6 -68.34)"/><path class="cls-3" d="M439.68,304.24c1.29.65,4.72-2.29,5.68-3a12,12,0,0,0,3.75-4.77,11.27,11.27,0,0,0,.65-6.79,26.43,26.43,0,0,0-1-3.54l-1.17-3.42a8.82,8.82,0,0,1-.69-3.48c.18-2.4,2.21-4.17,4.06-5.7,2-1.7,4.14-3.91,4-6.77a10.09,10.09,0,0,0-2.83-5.87c-1.45-1.66-3.16-3.11-4.49-4.88a7.05,7.05,0,0,1-1.66-4.38,7.33,7.33,0,0,1,.83-2.83,39.57,39.57,0,0,0,2.76-5.72c.6-2,.37-4.53-1.26-5.88-1.35-1.11-3.26-1.18-5-1a11.36,11.36,0,0,0-4.5,1.84c-4.42,2.76-6.74,8.28-11.47,10.46a49,49,0,0,1-5.76,1.73c-1.92.61-3.85,1.7-4.65,3.53-1.6,3.63,1.91,7.82.85,11.64-.93,3.38-4.09,4.81-5.75,7.9a7,7,0,0,0-.63,4.39,20.79,20.79,0,0,0,2.2,7.25,63.71,63.71,0,0,0,4.37,6.71S439.48,304.14,439.68,304.24Z" transform="translate(-26.6 -68.34)"/><g class="cls-6"><path d="M439.68,304.24c1.29.65,4.72-2.28,5.68-3a12,12,0,0,0,3.75-4.77,11.27,11.27,0,0,0,.65-6.79,26.43,26.43,0,0,0-1-3.54l-1.17-3.42a8.82,8.82,0,0,1-.69-3.48c.18-2.4,2.21-4.17,4.06-5.7,2-1.7,4.14-3.91,4-6.77a10.09,10.09,0,0,0-2.83-5.87c-1.45-1.66-3.16-3.11-4.49-4.88a7.05,7.05,0,0,1-1.66-4.38,7.33,7.33,0,0,1,.83-2.83,39.57,39.57,0,0,0,2.76-5.72c.6-2,.37-4.53-1.26-5.88-1.35-1.11-3.26-1.18-5-1a11.36,11.36,0,0,0-4.5,1.84c-4.42,2.76-6.74,8.28-11.47,10.46a49,49,0,0,1-5.76,1.73c-1.92.61-3.85,1.7-4.65,3.53-1.6,3.63,1.91,7.82.85,11.64-.93,3.38-4.09,4.81-5.75,7.9a7,7,0,0,0-.63,4.39,20.79,20.79,0,0,0,2.2,7.25,63.71,63.71,0,0,0,4.37,6.71S439.48,304.14,439.68,304.24Z" transform="translate(-26.6 -68.34)"/></g><path class="cls-5" d="M427.17,297.72h0a.57.57,0,0,0,.52-.62c-2.07-22.42,7.27-47.76,14.6-55.36a.57.57,0,1,0-.81-.79c-7.49,7.75-17,33.52-14.92,56.25A.57.57,0,0,0,427.17,297.72Z" transform="translate(-26.6 -68.34)"/><path class="cls-5" d="M429.4,270.07l.17,0a75.12,75.12,0,0,1,16.17-3.45.57.57,0,0,0,.51-.62.54.54,0,0,0-.61-.51A77.61,77.61,0,0,0,429.18,269a.57.57,0,0,0,.22,1.1Z" transform="translate(-26.6 -68.34)"/></g></g><g id="Device"><g id="Laptop"><path class="cls-7" d="M126,351.55a10.63,10.63,0,0,0,5,8.21L238.59,422a11,11,0,0,0,9.89,0L438.11,312.46a9.28,9.28,0,0,0,0-16.42L330.42,233.85a10.91,10.91,0,0,0-9.89,0L130.9,343.33A10.63,10.63,0,0,0,126,351.55Z" transform="translate(-26.6 -68.34)"/><path class="cls-8" d="M130.9,349l107.69,62.19a10.91,10.91,0,0,0,9.89,0L438.11,301.75c2.73-1.58,2.73-4.14,0-5.71L330.42,233.85a10.91,10.91,0,0,0-9.89,0L130.9,343.33C128.17,344.91,128.17,347.47,130.9,349Z" transform="translate(-26.6 -68.34)"/><path class="cls-9" d="M243.54,412.42v10.71a10.07,10.07,0,0,1-4.95-1.18L130.9,359.76a9.27,9.27,0,0,1-.51-16.11c-2.21,1.59-2,3.92.51,5.39l107.69,62.19A10.07,10.07,0,0,0,243.54,412.42Z" transform="translate(-26.6 -68.34)"/><path class="cls-7" d="M121.31,343.51c-2.56-1.48-2.42-4-2.42-7.13V187.63a11,11,0,0,1,4.94-8.57L313.46,69.58a10.6,10.6,0,0,1,9.59-.18c2.56,1.48,2.43,4,2.43,7.14V225.28a10.94,10.94,0,0,1-5,8.57L130.9,343.33A10.6,10.6,0,0,1,121.31,343.51Z" transform="translate(-26.6 -68.34)"/><path class="cls-8" d="M325.48,76.53c0-3.15-2.22-4.42-5-2.85L130.9,183.16a10.08,10.08,0,0,0-3.5,3.7l-7.06-4.1h0a10.11,10.11,0,0,1,3.51-3.7L313.46,69.58a10.6,10.6,0,0,1,9.59-.18C325.61,70.88,325.48,73.38,325.48,76.53Z" transform="translate(-26.6 -68.34)"/><path class="cls-9" d="M130.31,343.63a10.59,10.59,0,0,1-9-.13c-2.56-1.47-2.42-4-2.42-7.12V187.63a10,10,0,0,1,1.45-4.87l7.06,4.09h0a10.14,10.14,0,0,0-1.45,4.86V340.48C126,343.4,127.86,344.72,130.31,343.63Z" transform="translate(-26.6 -68.34)"/><path class="cls-10" d="M133.56,188.87,316.39,83.34c1.64-1,3-.18,3,1.71V214.9a6.56,6.56,0,0,1-3,5.14L133.56,325.57c-1.64.94-3,.18-3-1.72V194A6.55,6.55,0,0,1,133.56,188.87Z" transform="translate(-26.6 -68.34)"/><path class="cls-9" d="M144.59,343.62,320.6,242a5.47,5.47,0,0,1,4.95,0l2.93,1.61c1.37.79,1.37,2.07,0,2.86l-176,101.6a5.47,5.47,0,0,1-4.95,0l-2.9-1.59C143.22,345.69,143.22,344.41,144.59,343.62Z" transform="translate(-26.6 -68.34)"/><path class="cls-9" d="M158.39,351.83l176-101.62a5,5,0,0,1,4.52-.25l45.81,26.46c1.13.65.94,1.82-.43,2.6L208.5,380.51a5,5,0,0,1-4.52.25l-46-26.32C156.84,353.79,157,352.62,158.39,351.83Z" transform="translate(-26.6 -68.34)"/><path class="cls-8" d="M310.91,292.89l5.51-3.18c.24-.13.26-.34.05-.46l-5.27-3.05a.9.9,0,0,0-.8,0l-5.51,3.18c-.24.14-.26.35-.05.47l5.27,3A.87.87,0,0,0,310.91,292.89Zm-8-11-5.52,3.19c-.23.13-.25.34,0,.46l5.27,3a.87.87,0,0,0,.8,0l5.51-3.18c.24-.13.26-.34.05-.46l-5.27-3A.9.9,0,0,0,302.87,281.88Zm-17.81,10.28-9.33,5.39c-.23.13-.25.34,0,.46l5.27,3a.9.9,0,0,0,.8,0l9.33-5.39c.23-.13.25-.34,0-.46l-5.27-3A.9.9,0,0,0,285.06,292.16Zm9.75-5.63-5.51,3.19c-.23.13-.26.34-.05.46l5.28,3a.87.87,0,0,0,.8,0l5.51-3.18c.23-.13.25-.34,0-.46l-5.27-3A.9.9,0,0,0,294.81,286.53ZM273.19,299l-5.51,3.18c-.23.13-.26.34-.05.46l5.28,3a.9.9,0,0,0,.8,0l5.51-3.18c.23-.14.25-.35,0-.47L274,299A.87.87,0,0,0,273.19,299Zm-8.05,4.65-5.51,3.18c-.24.13-.26.34-.05.46l5.27,3a.87.87,0,0,0,.8,0l5.51-3.18c.24-.14.26-.35,0-.47l-5.27-3A.87.87,0,0,0,265.14,303.67Zm20.66,12.42,5.51-3.18c.24-.14.26-.35.05-.47l-5.27-3a.87.87,0,0,0-.8,0l-5.51,3.18c-.24.13-.26.34,0,.46l5.27,3.05A.9.9,0,0,0,285.8,316.09Zm-8.05,4.65,5.51-3.18c.23-.14.25-.35.05-.47l-5.28-3a.87.87,0,0,0-.8,0l-5.51,3.18c-.23.13-.25.34-.05.46l5.28,3A.91.91,0,0,0,277.75,320.74Zm-8.06,4.65,5.51-3.18c.24-.14.26-.35.05-.47l-5.27-3a.87.87,0,0,0-.8,0l-5.51,3.18c-.24.14-.26.34-.05.46l5.27,3.05A.9.9,0,0,0,269.69,325.39ZM261.64,330l5.51-3.18c.23-.14.25-.35.05-.47l-5.28-3a.87.87,0,0,0-.8,0l-5.51,3.18c-.23.14-.25.34,0,.46l5.27,3.05A.9.9,0,0,0,261.64,330Zm41.22-32.5,5.51-3.18c.23-.13.25-.34.05-.46l-5.28-3a.9.9,0,0,0-.8,0l-5.51,3.18c-.23.14-.25.35-.05.47l5.28,3A.87.87,0,0,0,302.86,297.54Zm-9,13.9,12.29-7.1c.23-.14.26-.34.05-.46l-12.81-7.4a.91.91,0,0,0-.8,0l-6.36,3.67c-.23.14-.25.35,0,.47l6.78,3.91c.2.12.18.33-.05.46L287.83,308c-.23.13-.25.34-.05.46l5.28,3A.87.87,0,0,0,293.86,311.44Zm-36.78-3.12-5.51,3.18c-.23.13-.25.34,0,.46L256.8,315a.91.91,0,0,0,.8,0l5.51-3.18c.23-.14.25-.35,0-.47l-5.27-3A.87.87,0,0,0,257.08,308.32ZM249,313l-5.51,3.18c-.24.13-.26.34-.05.46l5.27,3.05a.9.9,0,0,0,.8,0l5.51-3.18c.24-.14.26-.35,0-.47l-5.27-3A.87.87,0,0,0,249,313Zm-44.58,49.65a.89.89,0,0,0,.81,0l5.51-3.18c.23-.14.25-.34,0-.46l-5.27-3.05a.9.9,0,0,0-.8,0l-5.51,3.18c-.23.14-.26.34,0,.46Zm-19.86-12.45-5.51,3.18c-.24.14-.26.34-.05.46l5.27,3.05a.87.87,0,0,0,.8,0l5.52-3.18c.23-.14.25-.34,0-.46l-5.27-3.05A.9.9,0,0,0,184.59,350.17Zm10.21,9.32a.9.9,0,0,0,.8,0l5.51-3.19c.24-.13.26-.34,0-.46l-5.27-3a.87.87,0,0,0-.8,0L189.58,356c-.24.13-.26.34-.05.46Zm22.23,5,5.51-3.18c.23-.13.25-.34.05-.46l-5.28-3.05a.9.9,0,0,0-.8,0L211,361c-.23.14-.25.35-.05.47l5.28,3A.87.87,0,0,0,217,364.49Zm-8.86,4.68a.87.87,0,0,0,.8,0l5.51-3.18c.24-.13.26-.34.05-.46l-5.27-3a.87.87,0,0,0-.8,0L203,365.66c-.24.14-.26.35,0,.47Zm-15.53-23.65-5.51,3.18c-.23.14-.25.34,0,.46l5.27,3a.87.87,0,0,0,.8,0l5.51-3.18c.23-.14.26-.34.05-.46l-5.28-3.05A.91.91,0,0,0,192.64,345.52Zm40.28-23.25-5.51,3.18c-.24.14-.26.34,0,.46l5.27,3a.9.9,0,0,0,.8,0l5.51-3.18c.24-.14.26-.34.05-.46l-5.27-3.05A.87.87,0,0,0,232.92,322.27Zm-32.22,18.6-5.51,3.18c-.24.14-.26.34-.05.46l5.27,3.05a.87.87,0,0,0,.8,0l5.51-3.18c.24-.14.26-.34.05-.46l-5.27-3.05A.87.87,0,0,0,200.7,340.87ZM241,317.62l-5.51,3.18c-.23.13-.25.34-.05.46l5.28,3.05a.91.91,0,0,0,.8,0L247,321.1c.23-.14.25-.35.05-.47l-5.28-3A.87.87,0,0,0,241,317.62Zm-16.11,9.3-5.51,3.18c-.23.14-.25.34,0,.46l5.28,3.05a.91.91,0,0,0,.8,0l5.51-3.18c.23-.14.25-.34.05-.46l-5.28-3.05A.87.87,0,0,0,224.86,326.92Zm-8.05,4.65-5.51,3.18c-.24.14-.26.34-.05.46l5.27,3.05a.9.9,0,0,0,.8,0l5.51-3.18c.24-.14.26-.34,0-.46l-5.27-3A.87.87,0,0,0,216.81,331.57Zm-8.06,4.65-5.51,3.18c-.23.14-.25.34-.05.46l5.28,3.05a.87.87,0,0,0,.8,0l5.51-3.18c.23-.14.25-.34.05-.46l-5.28-3.05A.87.87,0,0,0,208.75,336.22Zm36.78,3.12,5.51-3.18c.23-.14.25-.34.05-.46l-5.28-3.05a.87.87,0,0,0-.8,0l-5.51,3.18c-.23.14-.25.34,0,.46l5.27,3.05A.9.9,0,0,0,245.53,339.34Zm75.14-67.74-5.51,3.19c-.23.13-.26.34-.05.46l5.28,3a.87.87,0,0,0,.8,0l5.51-3.18c.23-.13.25-.34,0-.46l-5.27-3A.9.9,0,0,0,320.67,271.6Zm-9.75,5.63-5.51,3.19c-.23.13-.26.34-.05.46l5.27,3a.87.87,0,0,0,.8,0l5.52-3.18c.23-.13.25-.34,0-.46l-5.27-3A.9.9,0,0,0,310.92,277.23ZM328.73,267l-5.52,3.19c-.23.13-.25.34,0,.46l5.27,3a.87.87,0,0,0,.8,0l5.51-3.18c.24-.13.26-.34.05-.46l-5.27-3A.9.9,0,0,0,328.73,267Zm-44.52,41.36,5.51-3.18c.23-.13.25-.34,0-.46l-5.27-3.05a.9.9,0,0,0-.8,0l-5.51,3.18c-.23.14-.26.35-.05.47l5.27,3A.89.89,0,0,0,284.21,308.31Zm53.37-46a.9.9,0,0,0-.8,0l-5.51,3.18c-.23.14-.26.35,0,.47l5.27,3a.87.87,0,0,0,.8,0l5.52-3.18c.23-.13.25-.34,0-.46Zm-84,72.41,5.51-3.18c.24-.14.26-.34.05-.46L253.87,328a.87.87,0,0,0-.8,0l-5.51,3.18c-.24.14-.26.34-.05.46l5.27,3.05A.9.9,0,0,0,253.58,334.69Zm98.78-57,5.51-3.18c.23-.14.26-.34.05-.46l-5.28-3a.91.91,0,0,0-.8,0l-5.51,3.18c-.23.14-.25.34,0,.46l5.27,3.05A.87.87,0,0,0,352.36,277.66Zm-15.59.3,5.51-3.18c.24-.13.26-.34.05-.46l-5.27-3.05a.9.9,0,0,0-.8,0l-5.51,3.18c-.24.14-.26.35-.05.47l5.27,3A.87.87,0,0,0,336.77,278Zm8.34-11.34a.91.91,0,0,0-.8,0l-5.51,3.18c-.23.14-.25.35-.05.47l5.28,3a.87.87,0,0,0,.8,0l5.51-3.18c.23-.13.25-.34.05-.46Zm1.7-1,12.8,7.39a.87.87,0,0,0,.8,0l5.51-3.18c.24-.14.26-.34.05-.46l-12.8-7.4a.9.9,0,0,0-.8,0l-5.51,3.18C346.62,265.32,346.6,265.53,346.81,265.65ZM328.2,276l-5.51,3.18c-.23.14-.25.35-.05.47l5.28,3a.87.87,0,0,0,.8,0l5.51-3.18c.23-.13.25-.34,0-.46l-5.28-3A.9.9,0,0,0,328.2,276Zm-60.62,35-5.51,3.18c-.23.14-.26.35-.05.47l5.28,3a.87.87,0,0,0,.8,0l5.51-3.18c.23-.13.25-.34,0-.46l-5.27-3A.87.87,0,0,0,267.58,311Zm75.92-28.61a.87.87,0,0,0,.8,0l5.52-3.18c.23-.14.25-.34,0-.46l-5.27-3.05a.9.9,0,0,0-.8,0l-5.51,3.18c-.24.14-.26.35,0,.46Zm-67.86,24-5.52,3.18c-.23.14-.25.35,0,.47l5.27,3a.87.87,0,0,0,.8,0l5.51-3.18c.24-.13.26-.34,0-.46l-5.27-3A.87.87,0,0,0,275.64,306.3ZM212.51,358a.87.87,0,0,0,.8,0l5.51-3.18c.23-.14.26-.34.05-.46l-5.27-3.05a.9.9,0,0,0-.8,0l-5.52,3.18c-.23.14-.25.34,0,.46Zm-9.37-9.81-5.51,3.18c-.23.13-.25.34,0,.46l5.27,3a.9.9,0,0,0,.8,0l5.51-3.19c.23-.13.25-.34.05-.46l-5.28-3A.87.87,0,0,0,203.14,348.16Zm18.22,5.13,5.52-3.18c.23-.14.25-.34,0-.46l-5.27-3a.87.87,0,0,0-.8,0l-5.51,3.18c-.23.14-.26.34-.05.46l5.27,3.05A.87.87,0,0,0,221.36,353.29Zm8.06-4.65,5.51-3.18c.23-.14.26-.34,0-.46L229.71,342a.89.89,0,0,0-.81,0l-5.51,3.18c-.23.14-.25.34,0,.46l5.27,3.05A.87.87,0,0,0,229.42,348.64Zm8.05-4.65,5.51-3.18c.24-.14.26-.34.05-.46l-5.27-3.05a.87.87,0,0,0-.8,0l-5.51,3.18c-.24.14-.26.34,0,.46l5.27,3A.87.87,0,0,0,237.47,344Zm-26.27-.48-5.51,3.18c-.24.13-.26.34-.05.46l5.27,3a.9.9,0,0,0,.8,0l5.51-3.19c.24-.13.26-.34.05-.46l-5.27-3A.87.87,0,0,0,211.2,343.51Zm8.05-4.66L213.74,342c-.23.13-.25.34-.05.46l5.28,3a.9.9,0,0,0,.8,0l5.51-3.19c.23-.13.25-.34.05-.46l-5.28-3A.9.9,0,0,0,219.25,338.85Zm32.22-18.6L246,323.44c-.23.13-.25.34-.05.46l5.28,3a.87.87,0,0,0,.8,0l5.51-3.18c.23-.13.25-.34,0-.46l-5.27-3A.9.9,0,0,0,251.47,320.25Zm-8.05,4.65-5.51,3.19c-.24.13-.26.34,0,.46l5.27,3a.87.87,0,0,0,.8,0l5.51-3.18c.24-.13.26-.34.05-.46l-5.27-3A.9.9,0,0,0,243.42,324.9Zm16.11-9.3L254,318.78c-.24.14-.26.35-.05.47l5.27,3a.87.87,0,0,0,.8,0l5.51-3.18c.24-.13.26-.34.05-.46l-5.27-3A.9.9,0,0,0,259.53,315.6Zm-32.22,18.6-5.51,3.19c-.24.13-.26.34-.05.46l5.27,3a.9.9,0,0,0,.8,0l5.51-3.19c.24-.13.26-.34,0-.46l-5.27-3A.9.9,0,0,0,227.31,334.2Zm8.05-4.65-5.51,3.19c-.23.13-.25.34,0,.46l5.28,3a.9.9,0,0,0,.8,0l5.51-3.19c.23-.13.25-.34.05-.46l-5.28-3A.9.9,0,0,0,235.36,329.55Zm-10.28,30.29,5.51-3.18c.24-.13.26-.34,0-.46l-5.27-3.05a.9.9,0,0,0-.8,0l-5.51,3.18c-.24.14-.26.35-.05.47l5.27,3A.87.87,0,0,0,225.08,359.84Zm-42.47-2-5.27-3a.93.93,0,0,0-.81,0L171,358c-.23.14-.25.34,0,.46l5.27,3.05a.87.87,0,0,0,.8,0l5.51-3.18C182.79,358.16,182.82,358,182.61,357.84Zm10.5,2.63-5.28-3a.87.87,0,0,0-.8,0l-8.47,4.89c-.24.14-.26.34-.05.46l5.27,3.05a.87.87,0,0,0,.8,0l8.48-4.89C193.29,360.8,193.32,360.59,193.11,360.47Zm-18.37-8.64-5.27-3.05a.87.87,0,0,0-.8,0l-6.79,3.92c-.23.13-.25.34,0,.46l5.28,3a.87.87,0,0,0,.8,0l6.78-3.91C174.93,352.15,175,352,174.74,351.83Zm5.2-3a.9.9,0,0,0,.8,0l5.51-3.19c.23-.13.26-.34.05-.46l-5.28-3a.87.87,0,0,0-.8,0l-5.51,3.18c-.23.13-.25.34,0,.46Zm22.82,14.78-5.27-3.05a.9.9,0,0,0-.8,0l-10.6,6.12c-.24.14-.26.34-.05.46l5.27,3a.9.9,0,0,0,.8,0l10.6-6.12C203,363.92,203,363.72,202.76,363.6Zm3.72,6.55-5.28-3a.9.9,0,0,0-.8,0l-6.78,3.92c-.23.13-.26.34-.05.46l5.27,3a.89.89,0,0,0,.81,0l6.78-3.92C206.66,370.48,206.68,370.27,206.48,370.15Zm33.35-55.9a.87.87,0,0,0,.8,0l5.51-3.18c.23-.14.25-.34,0-.46l-5.27-3.05a.87.87,0,0,0-.8,0l-5.51,3.18c-.23.14-.26.34,0,.46Zm-16.11,9.3a.87.87,0,0,0,.8,0l5.51-3.18c.23-.14.25-.34,0-.46l-5.27-3.05a.9.9,0,0,0-.8,0L218.49,320c-.23.14-.25.34-.05.46ZM188,344.17a.9.9,0,0,0,.8,0L194.3,341c.24-.13.26-.34,0-.46l-5.27-3a.87.87,0,0,0-.8,0l-5.51,3.18c-.24.13-.26.34-.05.46Zm43.78-25.27a.87.87,0,0,0,.8,0l5.51-3.18c.24-.14.26-.34,0-.46l-5.27-3.05a.87.87,0,0,0-.8,0l-5.51,3.18c-.24.14-.26.34-.05.46Zm-16.11,9.3a.87.87,0,0,0,.8,0L222,325c.24-.14.26-.34.05-.46l-5.27-3a.9.9,0,0,0-.8,0l-5.51,3.18c-.24.14-.26.34-.05.46Zm-5.23,42.28a.9.9,0,0,0-.8,0l-8.48,4.9c-.23.13-.25.34-.05.46l5.28,3a.9.9,0,0,0,.8,0l8.48-4.9c.23-.13.25-.34,0-.46Zm-6.33-35.61a.87.87,0,0,0,.8,0l5.51-3.18c.24-.13.26-.34.05-.46l-5.27-3a.9.9,0,0,0-.8,0l-5.51,3.19c-.24.13-.26.34,0,.46Zm-8,4.65a.9.9,0,0,0,.8,0l5.51-3.19c.23-.13.25-.34,0-.46l-5.28-3a.9.9,0,0,0-.8,0L190.82,336c-.23.13-.25.34,0,.46Zm163.6-55.2a.87.87,0,0,0-.8,0l-13.56,7.83c-.24.14-.26.34-.05.46l5.27,3.05a.9.9,0,0,0,.8,0l13.57-7.83c.23-.14.25-.35.05-.47Zm-17.8,10.28a.87.87,0,0,0-.8,0l-5.51,3.18c-.24.14-.26.34-.05.46l5.27,3.05a.9.9,0,0,0,.8,0l5.51-3.18c.24-.14.26-.35.05-.47ZM233.14,355.19l5.51-3.18c.23-.14.25-.34,0-.46l-5.27-3.05a.9.9,0,0,0-.8,0l-5.51,3.18c-.23.14-.26.34-.05.47l5.28,3A.87.87,0,0,0,233.14,355.19Zm92.6-51.29a.87.87,0,0,0-.8,0l-5.51,3.18c-.24.14-.26.34-.05.46l5.27,3.05a.9.9,0,0,0,.8,0l5.51-3.18c.24-.14.26-.34.05-.46Zm42-24.23a.87.87,0,0,0-.8,0l-5.51,3.18c-.24.13-.26.34,0,.46l5.27,3.05a.9.9,0,0,0,.8,0l5.51-3.18c.24-.14.26-.35.05-.47ZM381,278.06l-12.81-7.39a.87.87,0,0,0-.8,0l-5.51,3.18c-.23.14-.26.34-.05.46l12.81,7.4a.9.9,0,0,0,.8,0l5.51-3.18C381.22,278.39,381.24,278.18,381,278.06Zm-85.4,43.22a.87.87,0,0,0-.8,0l-6.78,3.91c-.24.14-.26.34-.05.46l5.27,3.05a.87.87,0,0,0,.8,0l6.79-3.91c.23-.14.25-.35,0-.47ZM316,309.53a.87.87,0,0,0-.8,0l-8.48,4.89c-.23.14-.25.35,0,.47l5.28,3a.87.87,0,0,0,.8,0l8.47-4.89c.24-.14.26-.35.05-.47Zm-39,22.52a.87.87,0,0,0-.8,0l-45.36,26.18c-.24.14-.26.35-.05.47l5.27,3a.87.87,0,0,0,.8,0l45.36-26.19c.24-.13.26-.34.05-.46Zm-47.91,27.66a.9.9,0,0,0-.8,0l-6.78,3.92c-.23.13-.25.34-.05.46l5.28,3.05a.91.91,0,0,0,.8,0l6.78-3.92c.23-.13.25-.34.05-.46Zm57.23-33a.91.91,0,0,0-.8,0l-6.78,3.92c-.23.13-.25.34-.05.46l5.28,3a.9.9,0,0,0,.8,0l6.78-3.92c.23-.14.25-.34,0-.46Zm-66.55,38.43a.87.87,0,0,0-.8,0L212.17,369c-.23.14-.25.35,0,.47l5.27,3a.87.87,0,0,0,.8,0L225,368.6c.24-.14.26-.35.05-.47ZM305,315.89a.9.9,0,0,0-.8,0l-6.79,3.92c-.23.13-.25.34,0,.46l5.27,3a.9.9,0,0,0,.8,0l6.78-3.92c.24-.13.26-.34.05-.46Zm28.82-16.64a.87.87,0,0,0-.8,0l-5.51,3.18c-.23.14-.25.34,0,.46l5.27,3.05a.9.9,0,0,0,.8,0l5.51-3.18c.23-.14.25-.34.05-.47Zm18-12.59,5.51-3.18c.23-.14.25-.34,0-.46l-5.28-3a.87.87,0,0,0-.8,0l-5.51,3.18c-.23.14-.25.34-.05.46l5.28,3.05A.87.87,0,0,0,351.84,286.66ZM319,288.24l5.51-3.18c.23-.13.25-.34,0-.46l-5.28-3.05a.91.91,0,0,0-.8,0l-5.51,3.18c-.23.14-.25.35-.05.47l5.28,3A.87.87,0,0,0,319,288.24ZM297.57,318l16.11-9.3c.24-.14.26-.34.05-.46l-5.27-3.05a.87.87,0,0,0-.8,0l-16.11,9.3c-.24.14-.26.34-.05.46l5.27,3A.9.9,0,0,0,297.57,318ZM343,291.34a.87.87,0,0,0,.8,0l5.51-3.18c.24-.14.26-.34,0-.46l-5.27-3.05a.87.87,0,0,0-.8,0l-5.51,3.18c-.24.14-.26.34-.05.46ZM336.25,287l5.51-3.18c.23-.14.26-.34.05-.46l-5.27-3.05a.9.9,0,0,0-.8,0l-5.52,3.18c-.23.14-.25.35,0,.47l5.27,3A.87.87,0,0,0,336.25,287Zm-46.73,35.68,5.51-3.18c.23-.14.25-.34.05-.46L289.8,316a.87.87,0,0,0-.8,0l-5.51,3.18c-.23.14-.25.34,0,.46l5.27,3.05A.9.9,0,0,0,289.52,322.64Zm35.66-21a.87.87,0,0,0,.8,0l5.51-3.18c.23-.14.25-.34.05-.46l-5.28-3.05a.87.87,0,0,0-.8,0L320,298.11c-.23.14-.25.34-.05.46Zm-75.93,44.27,5.51-3.18c.23-.14.25-.34,0-.46l-5.27-3.05a.9.9,0,0,0-.8,0l-5.51,3.18c-.23.14-.26.34-.05.46l5.27,3.05A.89.89,0,0,0,249.25,345.89Zm8.05-4.65,5.51-3.18c.24-.14.26-.34.05-.46l-5.27-3.05a.87.87,0,0,0-.8,0l-5.52,3.18c-.23.14-.25.34,0,.46l5.27,3A.87.87,0,0,0,257.3,341.24Zm-16.11,9.3,5.51-3.18c.24-.14.26-.34.05-.46l-5.27-3a.9.9,0,0,0-.8,0l-5.52,3.18c-.23.14-.25.34,0,.46l5.27,3.05A.87.87,0,0,0,241.19,350.54Zm32.22-18.6,5.51-3.18c.23-.14.26-.34.05-.46l-5.27-3.05a.89.89,0,0,0-.81,0l-5.51,3.18c-.23.14-.25.34,0,.46l5.27,3.05A.87.87,0,0,0,273.41,331.94Zm-8.06,4.65,5.52-3.18c.23-.14.25-.34,0-.46l-5.27-3.05a.87.87,0,0,0-.8,0l-5.51,3.18c-.24.14-.26.34-.05.46l5.27,3.05A.87.87,0,0,0,265.35,336.59Zm16.11-9.3,5.52-3.18c.23-.14.25-.34,0-.46l-5.27-3a.87.87,0,0,0-.8,0l-5.51,3.18c-.24.14-.26.34-.05.46l5.27,3.05A.9.9,0,0,0,281.46,327.29Zm44-64.69a.9.9,0,0,0,.8,0l5.51-3.18c.23-.14.26-.34,0-.46l-1.41-.82a.91.91,0,0,0-.8,0l-5.51,3.18c-.23.14-.25.35,0,.47Zm-40,25.34a.9.9,0,0,0,.8,0l5.52-3.18c.23-.14.25-.35,0-.47l-5.27-3a.87.87,0,0,0-.8,0l-5.51,3.18c-.24.13-.26.34-.05.46Zm16.11-9.3a.9.9,0,0,0,.8,0l5.51-3.19c.24-.13.26-.34.05-.46l-5.27-3a.87.87,0,0,0-.8,0l-5.51,3.18c-.24.13-.26.34,0,.46Zm-25.94,15a.9.9,0,0,0,.8,0l5.51-3.19c.23-.13.26-.34.05-.46l-5.27-3a.89.89,0,0,0-.81,0l-5.51,3.18c-.23.13-.25.34,0,.46Zm17.89-10.33a.9.9,0,0,0,.8,0l5.51-3.19c.23-.13.26-.34.05-.46l-5.28-3a.87.87,0,0,0-.8,0l-5.51,3.18c-.23.13-.25.34,0,.46Zm-34,19.63a.9.9,0,0,0,.8,0l5.51-3.19c.24-.13.26-.34.05-.46l-5.27-3a.87.87,0,0,0-.8,0l-5.52,3.18c-.23.13-.25.34,0,.46Zm8.05-4.65a.9.9,0,0,0,.8,0l5.52-3.19c.23-.13.25-.34,0-.46l-5.27-3a.9.9,0,0,0-.8,0l-5.51,3.19c-.24.13-.26.34,0,.46Zm41.82-26.37a.87.87,0,0,0,.8,0l5.51-3.18c.23-.14.26-.34.05-.46l-1.41-.81a.9.9,0,0,0-.8,0L308,270.62c-.23.14-.25.35,0,.47ZM333.47,258a.9.9,0,0,0,.8,0l5.52-3.18c.23-.14.25-.34,0-.47l-1.4-.81a.9.9,0,0,0-.8,0l-5.51,3.18c-.24.14-.26.35-.05.47Zm11.08,6.39a.87.87,0,0,0,.8,0l5.51-3.18c.23-.13.26-.34.05-.46l-5.27-3a.92.92,0,0,0-.81,0l-5.51,3.18c-.23.14-.25.35,0,.47ZM359.89,282l5.51-3.18c.24-.14.26-.34.05-.46l-5.27-3.05a.87.87,0,0,0-.8,0l-5.51,3.18c-.24.14-.26.34-.05.46l5.27,3.05A.9.9,0,0,0,359.89,282Zm-42.53-14.76a.87.87,0,0,0,.8,0l5.52-3.18c.23-.14.25-.34,0-.46l-1.4-.81a.9.9,0,0,0-.8,0L316,266c-.24.14-.26.35-.05.47Zm-66,40.32a.9.9,0,0,0,.8,0l5.52-3.19c.23-.13.25-.34,0-.46l-5.27-3a.87.87,0,0,0-.8,0l-5.51,3.18c-.23.13-.26.34,0,.46Z" transform="translate(-26.6 -68.34)"/><polygon class="cls-7" points="248.62 280.77 249.75 281.43 279.77 298.75 333.14 267.93 334.25 267.3 303.11 249.32 248.62 280.77"/><polygon class="cls-9" points="249.75 281.43 279.77 298.75 333.14 267.93 303.11 250.61 249.75 281.43"/></g></g><g id="Mail_Box" data-name="Mail Box"><g id="MailBox"><path class="cls-3" d="M107.06,213.2l-12.23-7c-.54-.32-.94-.4-1.15-.27l-1.49.86c-.26.15-.25.59.07,1.27l3,6.16-2.22,2a1.73,1.73,0,0,0,.32,2.94l12.23,7.06,1.49-.87Z" transform="translate(-26.6 -68.34)"/><path class="cls-11" d="M107.06,213.2l-12.23-7c-.54-.32-.94-.4-1.15-.27l-1.49.86c-.26.15-.25.59.07,1.27l3,6.16-2.22,2a1.73,1.73,0,0,0,.32,2.94l12.23,7.06,1.49-.87Z" transform="translate(-26.6 -68.34)"/><path class="cls-3" d="M93.34,207c-1.19-.69-1.68-.24-1.08,1l3,6.16-2.22,2a1.73,1.73,0,0,0,.32,2.94l12.23,7.06V214.07Z" transform="translate(-26.6 -68.34)"/><path class="cls-8" d="M107,252.11a1.43,1.43,0,0,1-1.44-1.44V210.05a1.44,1.44,0,0,1,2.87,0v40.62A1.43,1.43,0,0,1,107,252.11Z" transform="translate(-26.6 -68.34)"/><path class="cls-9" d="M54.39,360.27v-2.53H55a10,10,0,0,1,4.11-4c6.32-3.65,16.56-3.65,22.88,0a9.91,9.91,0,0,1,4.11,4h.62v2.45c0,2.43-1.52,4.87-4.73,6.72-6.32,3.65-16.56,3.65-22.88,0C56,365.08,54.37,362.67,54.39,360.27Z" transform="translate(-26.6 -68.34)"/><ellipse class="cls-8" cx="43.96" cy="289.39" rx="16.18" ry="9.34"/><path class="cls-7" d="M74.73,269.77v86.86a2.08,2.08,0,0,1-1.22,1.7,6.5,6.5,0,0,1-5.89,0,2.06,2.06,0,0,1-1.22-1.7V269.77Z" transform="translate(-26.6 -68.34)"/><polygon class="cls-9" points="39.8 211.94 39.8 220.11 48.13 224.91 48.13 216.76 39.8 211.94"/><path class="cls-3" d="M96.6,262,112,270.9a1.15,1.15,0,0,1-.3.32L84.76,286.77c-.23.13-.41,0-.41-.25V267.11a30.35,30.35,0,0,1,2.25-10.88Z" transform="translate(-26.6 -68.34)"/><path class="cls-12" d="M96.6,262,112,270.9a1.15,1.15,0,0,1-.3.32L84.76,286.77c-.23.13-.41,0-.41-.25V267.11a30.35,30.35,0,0,1,2.25-10.88Z" transform="translate(-26.6 -68.34)"/><path class="cls-3" d="M112.12,249.25V271L86.6,256.24l.09-.21C89.42,249.19,94,243.4,99,240.52a11.68,11.68,0,0,1,5.77-1.79C109.31,238.73,112.12,242.76,112.12,249.25Z" transform="translate(-26.6 -68.34)"/><path class="cls-13" d="M112.12,249.25V271L86.6,256.24l.09-.21C89.42,249.19,94,243.4,99,240.52a11.68,11.68,0,0,1,5.77-1.79C109.31,238.73,112.12,242.76,112.12,249.25Z" transform="translate(-26.6 -68.34)"/><path class="cls-3" d="M139.83,295.22v-1.94h-.19v.28a8.41,8.41,0,0,0-.5-1.57c-1-2.38-3.17-4.66-6.44-6.55l-18.23-10.53a3.09,3.09,0,0,0-2.75,0L83.84,291a4.28,4.28,0,0,1-.88-1v2h0a1,1,0,0,0,.56.8l18.24,10.52a34.74,34.74,0,0,0,17.43,4.12,30.21,30.21,0,0,0,14.51-3.53c4.1-2.35,6.12-5.48,6.12-8.67Z" transform="translate(-26.6 -68.34)"/><path class="cls-12" d="M139.83,295.22v-1.94h-.19v.28a8.41,8.41,0,0,0-.5-1.57c-1-2.38-3.17-4.66-6.44-6.55l-18.23-10.53a3.09,3.09,0,0,0-2.75,0L83.84,291a4.28,4.28,0,0,1-.88-1v2h0a1,1,0,0,0,.56.8l18.24,10.52a34.69,34.69,0,0,0,17.43,4.12,30.21,30.21,0,0,0,14.51-3.53c4.1-2.35,6.12-5.48,6.12-8.67Z" transform="translate(-26.6 -68.34)"/><path class="cls-3" d="M139.14,292c-1-2.38-3.17-4.66-6.44-6.55l-18.23-10.53a3.09,3.09,0,0,0-2.75,0L83.84,291l17.92,10.34a34.85,34.85,0,0,0,17.43,4.12,30.32,30.32,0,0,0,14.51-3.53c3.68-2.12,5.69-4.85,6.06-7.7A8.13,8.13,0,0,0,139.14,292Z" transform="translate(-26.6 -68.34)"/><path class="cls-14" d="M139.14,292c-1-2.38-3.17-4.66-6.44-6.55l-18.23-10.53a3.09,3.09,0,0,0-2.75,0L83.84,291l17.92,10.34a34.85,34.85,0,0,0,17.43,4.12,30.32,30.32,0,0,0,14.51-3.53c3.68-2.12,5.69-4.85,6.06-7.7A8.13,8.13,0,0,0,139.14,292Z" transform="translate(-26.6 -68.34)"/><path class="cls-3" d="M139.76,294.24a8.13,8.13,0,0,0-.62-2.25c-1-2.38-3.17-4.66-6.44-6.55l-18.23-10.53a3.09,3.09,0,0,0-2.75,0L83.84,291l-.32-.18a.84.84,0,0,1,0-1.59L111.72,273a3,3,0,0,1,2.75,0l18.23,10.53c3.27,1.89,5.42,4.17,6.44,6.55a8.09,8.09,0,0,1,.64,2.39A7.3,7.3,0,0,1,139.76,294.24Z" transform="translate(-26.6 -68.34)"/><path class="cls-13" d="M139.76,294.24a8.13,8.13,0,0,0-.62-2.25c-1-2.38-3.17-4.66-6.44-6.55l-18.23-10.53a3.09,3.09,0,0,0-2.75,0L83.84,291l-.32-.18a.84.84,0,0,1,0-1.59L111.72,273a3,3,0,0,1,2.75,0l18.23,10.53c3.27,1.89,5.42,4.17,6.44,6.55a8.09,8.09,0,0,1,.64,2.39A7.3,7.3,0,0,1,139.76,294.24Z" transform="translate(-26.6 -68.34)"/><polygon class="cls-3" points="57.54 220.62 85.73 204.34 85.11 202.87 58.17 218.43 57.54 220.62"/><polygon class="cls-15" points="57.48 220.62 85.67 204.34 85.05 202.87 58.11 218.43 57.48 220.62"/><g id="Letter"><path class="cls-1" d="M109.63,248a1.47,1.47,0,0,0-.67-1.16L74.64,227a1.44,1.44,0,0,0-1.34,0l-.76.44a1.47,1.47,0,0,0-.67,1.16v26.31a1.49,1.49,0,0,0,.67,1.16l34.32,19.82a1.53,1.53,0,0,0,1.35,0l.75-.44a1.49,1.49,0,0,0,.67-1.16Z" transform="translate(-26.6 -68.34)"/><path class="cls-2" d="M109.44,247.3l-1.91,1.1L72.07,227.92a1.37,1.37,0,0,1,.47-.51l.76-.43a1.44,1.44,0,0,1,1.34,0L109,246.8A1.29,1.29,0,0,1,109.44,247.3Z" transform="translate(-26.6 -68.34)"/><path class="cls-16" d="M107.38,276h0Z" transform="translate(-26.6 -68.34)"/><path class="cls-17" d="M107.54,248.39l-.35.21a.58.58,0,0,1,.35.57v26.31a.46.46,0,0,1-.21.44.44.44,0,0,1-.32,0l-.14-.06L72.54,256.05a1.5,1.5,0,0,1-.67-1.16V228.58a1.4,1.4,0,0,1,.2-.67Z" transform="translate(-26.6 -68.34)"/><path class="cls-14" d="M107.53,248.4l-15.89,5.93a2.57,2.57,0,0,1-3.07-1L86,249.41,71.94,227.84l13.57,21.72L71.87,254.9a1.32,1.32,0,0,0,.21.67l13.47-5.95,3,4.75a2.59,2.59,0,0,0,3.24,1l2.11-.93,13.47,21.49a.48.48,0,0,0,.2-.44V275L93.93,254.4Z" transform="translate(-26.6 -68.34)"/></g><g id="Letter-2" data-name="Letter"><path class="cls-1" d="M101.51,252.61a1.5,1.5,0,0,0-.67-1.16L66.51,231.64a1.44,1.44,0,0,0-1.34,0l-.76.43a1.5,1.5,0,0,0-.67,1.16v26.31a1.53,1.53,0,0,0,.67,1.17l34.33,19.81a1.44,1.44,0,0,0,1.34,0l.76-.43a1.5,1.5,0,0,0,.67-1.16Z" transform="translate(-26.6 -68.34)"/><path class="cls-2" d="M101.31,252l-1.9,1.1L63.94,232.57a1.42,1.42,0,0,1,.47-.5l.76-.43a1.44,1.44,0,0,1,1.34,0l34.33,19.81A1.42,1.42,0,0,1,101.31,252Z" transform="translate(-26.6 -68.34)"/><path class="cls-16" d="M99.25,280.67h0Z" transform="translate(-26.6 -68.34)"/><path class="cls-17" d="M99.41,253.05l-.35.21a.58.58,0,0,1,.35.57v26.31a.46.46,0,0,1-.21.44.44.44,0,0,1-.32,0l-.14-.06L64.41,260.71a1.5,1.5,0,0,1-.67-1.16V233.24a1.4,1.4,0,0,1,.2-.67Z" transform="translate(-26.6 -68.34)"/><path class="cls-14" d="M99.41,253.05,83.51,259a2.58,2.58,0,0,1-3.06-1l-2.56-3.91L63.81,232.5l13.57,21.72-13.64,5.34a1.63,1.63,0,0,0,.21.67l13.47-6,3,4.75a2.59,2.59,0,0,0,3.23,1l2.12-.93L99.2,280.58a.46.46,0,0,0,.21-.44v-.44L85.8,259.06Z" transform="translate(-26.6 -68.34)"/></g><g id="Letter-3" data-name="Letter"><path class="cls-1" d="M93.38,257.27a1.47,1.47,0,0,0-.67-1.16L58.39,236.29a1.5,1.5,0,0,0-1.34,0l-.76.44a1.47,1.47,0,0,0-.67,1.16V264.2a1.47,1.47,0,0,0,.67,1.16l34.32,19.82a1.53,1.53,0,0,0,1.35,0l.75-.44a1.47,1.47,0,0,0,.67-1.16Z" transform="translate(-26.6 -68.34)"/><path class="cls-2" d="M93.19,256.61l-1.91,1.1L55.82,237.23a1.34,1.34,0,0,1,.47-.5l.76-.44a1.5,1.5,0,0,1,1.34,0l34.32,19.82A1.36,1.36,0,0,1,93.19,256.61Z" transform="translate(-26.6 -68.34)"/><path class="cls-16" d="M91.13,285.32a.27.27,0,0,0,.13,0h0A.13.13,0,0,1,91.13,285.32Z" transform="translate(-26.6 -68.34)"/><path class="cls-17" d="M91.29,257.7l-.35.21a.58.58,0,0,1,.35.57V284.8a.45.45,0,0,1-.21.43.44.44,0,0,1-.32,0l-.14-.05L56.29,265.36a1.47,1.47,0,0,1-.67-1.16V237.9a1.4,1.4,0,0,1,.2-.67Z" transform="translate(-26.6 -68.34)"/><path class="cls-14" d="M91.28,257.71l-15.89,5.94a2.59,2.59,0,0,1-3.07-1l-2.55-3.91L55.69,237.16l13.57,21.71-13.64,5.34a1.32,1.32,0,0,0,.21.67l13.47-5.95,3,4.75a2.59,2.59,0,0,0,3.24,1l2.11-.94,13.47,21.49a.46.46,0,0,0,.2-.44v-.44l-13.6-20.64Z" transform="translate(-26.6 -68.34)"/></g><path class="cls-3" d="M108.55,238c-2.73-1.43-6.35-1.18-10.31,1.12-4.45,2.55-8.46,7.19-11.27,12.5a39.35,39.35,0,0,0-1.76,3.79,31.89,31.89,0,0,0-2.45,11.67V289.3a2.89,2.89,0,0,1-1.37-.33L41.9,266.15a3.07,3.07,0,0,1-1.37-2.38V242.71c0-10.52,6.93-23,15.47-28,4-2.34,7.73-2.53,10.49-1v0Z" transform="translate(-26.6 -68.34)"/><path class="cls-14" d="M108.55,238c-2.73-1.43-6.35-1.18-10.31,1.12-4.45,2.55-8.46,7.19-11.27,12.5a39.35,39.35,0,0,0-1.76,3.79,31.89,31.89,0,0,0-2.45,11.67V289.3a2.89,2.89,0,0,1-1.37-.33L41.9,266.15a3.07,3.07,0,0,1-1.37-2.38V242.71c0-10.52,6.93-23,15.47-28,4-2.34,7.73-2.53,10.49-1v0Z" transform="translate(-26.6 -68.34)"/><path class="cls-15" d="M41.9,266.15,81.39,289a2.89,2.89,0,0,0,1.37.33V267.11a28.06,28.06,0,0,1,.74-6.21L41.26,236.51a28.55,28.55,0,0,0-.73,6.2v21.06A3.07,3.07,0,0,0,41.9,266.15Z" transform="translate(-26.6 -68.34)"/><path class="cls-3" d="M85.21,255.44a31.89,31.89,0,0,0-2.45,11.67V289.3a2.73,2.73,0,0,1-.5-.06c0-1.27,0-8.39,0-22.13,0-16.31,12.55-26.68,16-28-4.45,2.55-8.46,7.19-11.27,12.5A39.35,39.35,0,0,0,85.21,255.44Z" transform="translate(-26.6 -68.34)"/><path class="cls-12" d="M85.21,255.44a31.89,31.89,0,0,0-2.45,11.67V289.3a2.73,2.73,0,0,1-.5-.06c0-1.27,0-8.39,0-22.13,0-16.31,12.55-26.68,16-28-4.45,2.55-8.46,7.19-11.27,12.5A39.35,39.35,0,0,0,85.21,255.44Z" transform="translate(-26.6 -68.34)"/><path class="cls-3" d="M84.76,286.77c-.22.13-.41,0-.41-.24V267.12a30.26,30.26,0,0,1,2.25-10.88l.09-.21a36.55,36.55,0,0,1,1.88-4C91.3,247,95,242.82,99,240.52a11.68,11.68,0,0,1,5.77-1.79,6.33,6.33,0,0,1,3,.73c2.7,1.44,4.28,4.92,4.28,9.79V270.5a.92.92,0,0,1-.41.71l.62,1.47.14-.08a3,3,0,0,0,.57-.55h0a3,3,0,0,0,.66-1.74V249.25c0-5.63-2-9.55-5.15-11.21-2.73-1.44-6.35-1.19-10.31,1.11-4.45,2.55-8.46,7.18-11.27,12.51a39.35,39.35,0,0,0-1.76,3.78,31.86,31.86,0,0,0-2.45,11.68v22.17H83a2.75,2.75,0,0,0,1.14-.32Z" transform="translate(-26.6 -68.34)"/><path class="cls-15" d="M84.7,286.77c-.22.13-.41,0-.41-.24V267.12a30.08,30.08,0,0,1,2.26-10.88,1.8,1.8,0,0,1,.08-.21,36.55,36.55,0,0,1,1.88-4C91.24,247,95,242.82,99,240.52a11.65,11.65,0,0,1,5.77-1.79,6.31,6.31,0,0,1,3,.73c2.7,1.44,4.28,4.92,4.28,9.79V270.5a.92.92,0,0,1-.41.71l.62,1.47.14-.08a3,3,0,0,0,.57-.55h0a3,3,0,0,0,.67-1.74V249.25c0-5.63-2-9.55-5.16-11.21-2.73-1.44-6.34-1.19-10.31,1.11-4.44,2.55-8.45,7.18-11.27,12.51a37,37,0,0,0-1.75,3.78,31.86,31.86,0,0,0-2.45,11.68v22.17h.23a2.75,2.75,0,0,0,1.14-.32Z" transform="translate(-26.6 -68.34)"/></g></g><g id="Envelopes"><g id="Envelope"><g id="Letter-4" data-name="Letter"><path class="cls-3" d="M178.94,229.88a5.71,5.71,0,0,1,2.6-4.5l128.17-74a5.74,5.74,0,0,1,5.2,0l2.93,1.69a5.74,5.74,0,0,1,2.59,4.5V259.45a5.77,5.77,0,0,1-2.59,4.5L189.66,338a5.78,5.78,0,0,1-5.19,0l-2.93-1.69a5.77,5.77,0,0,1-2.6-4.5Z" transform="translate(-26.6 -68.34)"/><g class="cls-18"><path class="cls-5" d="M178.94,229.88a5.71,5.71,0,0,1,2.6-4.5l128.17-74a5.74,5.74,0,0,1,5.2,0l2.93,1.69a5.74,5.74,0,0,1,2.59,4.5V259.45a5.74,5.74,0,0,1-2.59,4.5L189.66,338a5.78,5.78,0,0,1-5.19,0l-2.93-1.69a5.77,5.77,0,0,1-2.6-4.5Z" transform="translate(-26.6 -68.34)"/></g><path class="cls-19" d="M179.7,227.32l7.37,4.25L319.67,155a5.44,5.44,0,0,0-1.83-1.94l-2.94-1.68a5.64,5.64,0,0,0-5.18,0l-128.18,74A5.22,5.22,0,0,0,179.7,227.32Z" transform="translate(-26.6 -68.34)"/><path class="cls-20" d="M179.7,227.32l7.37,4.25L319.67,155a5.44,5.44,0,0,0-1.83-1.94l-2.94-1.68a5.64,5.64,0,0,0-5.18,0l-128.18,74A5.22,5.22,0,0,0,179.7,227.32Z" transform="translate(-26.6 -68.34)"/><path class="cls-21" d="M178.94,229.87V331.75a5.71,5.71,0,0,0,2.6,4.5l2.93,1.7a4.62,4.62,0,0,0,.71.32,5.78,5.78,0,0,0,1.07.24,6.41,6.41,0,0,0,2.05-.07l.51-.13.32-.11a1.55,1.55,0,0,1-1.26-.05,1.78,1.78,0,0,1-.8-1.7V234.57a2.27,2.27,0,0,1,1.35-2.21l-1.35-.79-7.37-4.25A5.29,5.29,0,0,0,178.94,229.87Z" transform="translate(-26.6 -68.34)"/><path class="cls-22" d="M178.94,229.87V331.75a5.71,5.71,0,0,0,2.6,4.5l2.93,1.7a4.62,4.62,0,0,0,.71.32,5.78,5.78,0,0,0,1.07.24,6.41,6.41,0,0,0,2.05-.07l.51-.13.32-.11a1.55,1.55,0,0,1-1.26-.05,1.78,1.78,0,0,1-.8-1.7V234.57a2.27,2.27,0,0,1,1.35-2.21l-1.35-.79-7.37-4.25A5.29,5.29,0,0,0,178.94,229.87Z" transform="translate(-26.6 -68.34)"/><path class="cls-23" d="M187.07,231.57l61.55,23a10,10,0,0,0,11.88-3.91l9.88-15.15L319.67,155l-47.32,81.07,48.08,23.41a5.44,5.44,0,0,1-.81,2.6L272.2,236.32,260.72,254.7a10,10,0,0,1-12.53,3.85L240,254.94l-52.15,83.21a1.78,1.78,0,0,1-.8-1.7v-1.7l52.69-79.92Z" transform="translate(-26.6 -68.34)"/><path class="cls-22" d="M187.07,231.57l61.55,23a10,10,0,0,0,11.88-3.91l9.88-15.15L319.67,155l-47.32,81.07,48.08,23.41a5.44,5.44,0,0,1-.81,2.6L272.2,236.32,260.72,254.7a10,10,0,0,1-12.53,3.85L240,254.94l-52.15,83.21a1.78,1.78,0,0,1-.8-1.7v-1.7l52.69-79.92Z" transform="translate(-26.6 -68.34)"/></g></g><g id="Envelope-2" data-name="Envelope"><g id="Letter-5" data-name="Letter"><path class="cls-3" d="M210.53,249.47a5.71,5.71,0,0,1,2.6-4.49L341.3,171a5.74,5.74,0,0,1,5.2,0l2.93,1.69a5.76,5.76,0,0,1,2.6,4.5V279.05a5.77,5.77,0,0,1-2.6,4.5l-128.18,74a5.72,5.72,0,0,1-5.19,0l-2.93-1.69a5.76,5.76,0,0,1-2.6-4.5Z" transform="translate(-26.6 -68.34)"/><g class="cls-24"><path class="cls-5" d="M211.1,250.22a5.76,5.76,0,0,1,2.6-4.5l128.18-74a5.72,5.72,0,0,1,5.19,0l2.93,1.69a5.71,5.71,0,0,1,2.6,4.5V279.79a5.76,5.76,0,0,1-2.6,4.5l-128.17,74a5.8,5.8,0,0,1-5.2,0l-2.93-1.69a5.76,5.76,0,0,1-2.59-4.5Z" transform="translate(-26.6 -68.34)"/></g><path class="cls-3" d="M211.29,246.92l7.37,4.25,132.6-76.56a5.35,5.35,0,0,0-1.83-1.94L346.49,171a5.7,5.7,0,0,0-5.18,0L213.13,245A5.33,5.33,0,0,0,211.29,246.92Z" transform="translate(-26.6 -68.34)"/><path class="cls-25" d="M211.46,246.75l7.38,4.25,132.59-76.55a5.23,5.23,0,0,0-1.83-1.95l-2.93-1.68a5.66,5.66,0,0,0-5.19,0l-128.18,74A5.38,5.38,0,0,0,211.46,246.75Z" transform="translate(-26.6 -68.34)"/><path class="cls-15" d="M210.53,249.47V351.35a5.73,5.73,0,0,0,2.6,4.5l2.93,1.69a3.27,3.27,0,0,0,.71.32,5.78,5.78,0,0,0,1.07.25,6.4,6.4,0,0,0,2-.07l.51-.14a2.08,2.08,0,0,0,.3-.12,1.51,1.51,0,0,1-1.24,0,1.79,1.79,0,0,1-.8-1.71V254.17A2.26,2.26,0,0,1,220,252l-1.36-.79-7.37-4.25A5.29,5.29,0,0,0,210.53,249.47Z" transform="translate(-26.6 -68.34)"/><path class="cls-26" d="M218.66,251.17l61.55,23a10,10,0,0,0,11.88-3.9L302,255.11l49.29-80.5-47.32,81.07L352,279.09a5.44,5.44,0,0,1-.81,2.6L303.8,255.92,292.31,274.3a10,10,0,0,1-12.53,3.85l-8.17-3.61-52.15,83.21a1.79,1.79,0,0,1-.8-1.71v-1.69l52.69-79.93Z" transform="translate(-26.6 -68.34)"/><path class="cls-27" d="M218.66,251.14l61.55,23a10,10,0,0,0,11.88-3.91L302,255.08l49.29-80.5-47.32,81.07L352,279.06a5.37,5.37,0,0,1-.81,2.59L303.8,255.89l-11.49,18.38a10,10,0,0,1-12.53,3.85l-8.17-3.61-52.15,83.21a1.81,1.81,0,0,1-.8-1.71v-1.69l52.69-79.93Z" transform="translate(-26.6 -68.34)"/></g></g></g><g id="Open_Envelope" data-name="Open Envelope"><g id="Open_Envelope-2" data-name="Open Envelope"><path class="cls-3" d="M245.2,268.79l133.38-77,5.34,3.08a5.57,5.57,0,0,1,2.51,4.35V297.6a5.59,5.59,0,0,1-2.51,4.35L255.56,376.06a5.61,5.61,0,0,1-5,0l-2.83-1.64a5.55,5.55,0,0,1-2.51-4.34Z" transform="translate(-26.6 -68.34)"/><path class="cls-14" d="M247.44,268.65l133.38-77,5.33,3.08a5.57,5.57,0,0,1,2.51,4.34v98.4a5.55,5.55,0,0,1-2.51,4.34L257.79,375.92a5.55,5.55,0,0,1-5,0L250,374.29a5.57,5.57,0,0,1-2.51-4.35Z" transform="translate(-26.6 -68.34)"/><path class="cls-3" d="M377.85,183.13l.54-.3-2.07-1.2h0a3.94,3.94,0,0,0-.55-.26l-58.7-21.75a4,4,0,0,0-4.51,1.43l-65.67,95.89a11.44,11.44,0,0,0-1.69,5.48v6.37l2,1.18,131.34-78.19v-6.37A4.3,4.3,0,0,0,377.85,183.13Z" transform="translate(-26.6 -68.34)"/><path class="cls-15" d="M315.27,161.71a3.32,3.32,0,0,0-.68.72l-65.67,95.89a10.2,10.2,0,0,0-1.22,2.74l-2-1.18a13.1,13.1,0,0,1,.53-1.45s0,0,0,0c.09-.2.18-.39.28-.58l0-.09a5.23,5.23,0,0,1,.35-.58l65.66-95.89a3.19,3.19,0,0,1,.33-.4l.35-.32Z" transform="translate(-26.6 -68.34)"/><path class="cls-28" d="M378.37,182.82a3.2,3.2,0,0,0-.56-.27L319.1,160.79a4,4,0,0,0-3.82.72l-2-1.18a4.07,4.07,0,0,1,3.83-.72l58.7,21.75a3.11,3.11,0,0,1,.55.27Z" transform="translate(-26.6 -68.34)"/><path class="cls-16" d="M246.54,257.52c.12-.21.23-.4.35-.58C246.77,257.12,246.66,257.31,246.54,257.52Z" transform="translate(-26.6 -68.34)"/><path class="cls-16" d="M312.89,160.65l.35-.32Z" transform="translate(-26.6 -68.34)"/><path class="cls-16" d="M245.66,259.69a12.58,12.58,0,0,1,.54-1.46A14.73,14.73,0,0,0,245.66,259.69Z" transform="translate(-26.6 -68.34)"/><path class="cls-16" d="M246.22,258.19a5,5,0,0,1,.28-.57A5,5,0,0,0,246.22,258.19Z" transform="translate(-26.6 -68.34)"/><path class="cls-14" d="M246.2,258.23l0,0Z" transform="translate(-26.6 -68.34)"/><polygon class="cls-14" points="219.07 191.35 219.07 191.35 219.07 191.34 219.07 191.35"/><polygon class="cls-14" points="286.64 91.99 286.64 91.99 286.64 91.99 286.64 91.99"/><path class="cls-14" d="M246.5,257.62l0-.1Z" transform="translate(-26.6 -68.34)"/><path class="cls-14" d="M312.56,161.05a4.12,4.12,0,0,1,.33-.4A4.12,4.12,0,0,0,312.56,161.05Z" transform="translate(-26.6 -68.34)"/><path class="cls-3" d="M314.59,162.23l-65.66,95.9a11.26,11.26,0,0,0-1.69,5.47V270l133.38-77v-6.37a4.63,4.63,0,0,0-2.82-4L319.1,160.8A4,4,0,0,0,314.59,162.23Z" transform="translate(-26.6 -68.34)"/><path class="cls-27" d="M380.62,186.59a4.27,4.27,0,0,0-.72-2.24L247.71,260.86v0a9.68,9.68,0,0,0-.46,2.71V270l133.38-77Z" transform="translate(-26.6 -68.34)"/><path class="cls-29" d="M374.92,159.56a1.52,1.52,0,0,0-.63-1.39c-.39-.23-3.67-2.13-4.07-2.35a1.5,1.5,0,0,0-1.53.15l-109.4,63.16a4.78,4.78,0,0,0-2.17,3.75v131a1.52,1.52,0,0,0,.64,1.4l4.06,2.35a1.52,1.52,0,0,0,1.53-.15l109.41-63.16a4.8,4.8,0,0,0,2.16-3.75Z" transform="translate(-26.6 -68.34)"/><path class="cls-10" d="M263.35,357.5l109.41-63.16a4.8,4.8,0,0,0,2.16-3.75v-131c0-1.38-1-1.94-2.17-1.25l-109.4,63.17a4.75,4.75,0,0,0-2.16,3.75v131C261.19,357.63,262.16,358.19,263.35,357.5Z" transform="translate(-26.6 -68.34)"/><path class="cls-3" d="M333.46,233.5a18.82,18.82,0,0,1-.81,4.36,19.49,19.49,0,0,1-1.58,3.66,14.21,14.21,0,0,1-2.06,2.79,9.07,9.07,0,0,1-2.29,1.76,4.77,4.77,0,0,1-3.15.75,2.82,2.82,0,0,1-1.63-1c-.24.51-.49,1-.75,1.55a9.3,9.3,0,0,1-1,1.57,9.46,9.46,0,0,1-1.47,1.52,11.09,11.09,0,0,1-2.15,1.39,4.18,4.18,0,0,1-2.72.54,3.22,3.22,0,0,1-2-1.41,8.39,8.39,0,0,1-1.2-3.18,21.82,21.82,0,0,1-.27-4.77,30,30,0,0,1,.65-5.25,24.21,24.21,0,0,1,1.43-4.52,14.7,14.7,0,0,1,2.14-3.57,8.75,8.75,0,0,1,2.77-2.3,3.28,3.28,0,0,1,2.48-.53,2.68,2.68,0,0,1,1.28,1.2l0-.54a3.05,3.05,0,0,1,.37-1.31,2,2,0,0,1,.8-.88l2.14-1.1a.6.6,0,0,1,.76.09,1.26,1.26,0,0,1,.29,1L325,238.07a2.24,2.24,0,0,0,.55,1.9,1.28,1.28,0,0,0,1.43,0,3.63,3.63,0,0,0,1.45-1.54,7.62,7.62,0,0,0,.79-3.08c.1-1.11.17-2.25.22-3.43s.05-2.27,0-3.27a19.81,19.81,0,0,0-.8-5.3,5.81,5.81,0,0,0-2-3.07,4.71,4.71,0,0,0-3.35-.73,14.59,14.59,0,0,0-4.88,1.68,16.82,16.82,0,0,0-4.32,3.17,22.09,22.09,0,0,0-3.36,4.43,26.65,26.65,0,0,0-2.34,5.35,31.11,31.11,0,0,0-1.29,5.89c-.07.55-.13,1.25-.18,2.12s-.09,1.78-.13,2.72-.07,1.84-.09,2.72,0,1.57,0,2.11a16.33,16.33,0,0,0,.85,4.74,7,7,0,0,0,2,3.05,4.82,4.82,0,0,0,3.13,1.11,9.38,9.38,0,0,0,4.24-1.2,25.25,25.25,0,0,0,2.93-1.73,18.71,18.71,0,0,0,2.19-1.77,17.93,17.93,0,0,0,1.61-1.74c.46-.56.87-1.12,1.24-1.66s.56-.83.75-1.06a2.22,2.22,0,0,1,.72-.58l3.05-1.55a.65.65,0,0,1,.78,0,1.2,1.2,0,0,1,.26,1.07,2.46,2.46,0,0,1-.32,1c-.61,1.13-1.3,2.33-2.06,3.58a27.23,27.23,0,0,1-2.7,3.68,30.55,30.55,0,0,1-3.69,3.53,29.1,29.1,0,0,1-5,3.21,12.53,12.53,0,0,1-6.23,1.68,6.72,6.72,0,0,1-4.42-1.8,10.42,10.42,0,0,1-2.7-4.56,23.44,23.44,0,0,1-1-6.56q0-.83,0-2.22c0-.94.05-1.91.09-2.94s.09-2,.14-2.92.1-1.66.15-2.19a40.17,40.17,0,0,1,1.54-7.82,38.16,38.16,0,0,1,3.18-7.6,32.6,32.6,0,0,1,4.8-6.6,23,23,0,0,1,6.37-4.82,16.28,16.28,0,0,1,7.05-2.14,6.6,6.6,0,0,1,4.63,1.64,9.26,9.26,0,0,1,2.55,4.63,29.67,29.67,0,0,1,.88,6.85c0,1,0,2.21-.07,3.59S333.56,232.39,333.46,233.5Zm-18.77,7.31a8,8,0,0,0,.6,4.16c.47.82,1.19,1,2.15.49a5.18,5.18,0,0,0,2.35-2.76,14.81,14.81,0,0,0,.94-5,8.48,8.48,0,0,0-.58-4.21c-.46-.84-1.2-1-2.21-.48a5.19,5.19,0,0,0-2.29,2.78A14.86,14.86,0,0,0,314.69,240.81Z" transform="translate(-26.6 -68.34)"/><path class="cls-2" d="M261.18,356.25a1.63,1.63,0,0,0,.51,1.32l-3.93-2.26a1.51,1.51,0,0,1-.64-1.4v-131a4.34,4.34,0,0,1,.64-2.13l4.06,2.34a4.37,4.37,0,0,0-.64,2.14Z" transform="translate(-26.6 -68.34)"/><path class="cls-3" d="M383,298.91a1.21,1.21,0,0,1-.14.2l-55.58-17.62a9.58,9.58,0,0,0-12,3.69L255.89,373.5l-2.2,1.27h0a1.79,1.79,0,0,1-1.7.19l61.11-91a9.61,9.61,0,0,1,12-3.7Z" transform="translate(-26.6 -68.34)"/><path class="cls-30" d="M309.84,293.85l.14-.12L255.89,373.5l-2.2,1.27h0a1.82,1.82,0,0,1-1.7.19l55.73-82.4Z" transform="translate(-26.6 -68.34)"/><path class="cls-30" d="M383.87,302.49a1.21,1.21,0,0,1-.14.2l-55.59-17.63a9.57,9.57,0,0,0-12,3.7l-2.2-1.28a9.6,9.6,0,0,1,12-3.68Z" transform="translate(-26.6 -68.34)"/><path class="cls-3" d="M386.38,198.58h0c-.12-.72-.5-.92-1-.58a2.89,2.89,0,0,0-.64.66l-.28.39-54.85,83.39-8.19,11.41a4.67,4.67,0,0,1-4.51,1.69l-7.07-1.68-54-19.87a2.75,2.75,0,0,0-1.1,0,2,2,0,0,0-.41.13l2-1.18,51.74,19L315,294.3a4.65,4.65,0,0,0,4.51-1.69l8.19-11.4,55.12-83.78a2.2,2.2,0,0,1,.62-.57l-4.77-2.75,2-1.15,3.3,1.9A5.72,5.72,0,0,1,386.38,198.58Z" transform="translate(-26.6 -68.34)"/><path class="cls-30" d="M329.61,282.43l-8.19,11.41a4.67,4.67,0,0,1-4.51,1.69l-7.07-1.68.14-.12.34-.54,4.63,1.1a4.65,4.65,0,0,0,4.51-1.69l8.11-11.28Z" transform="translate(-26.6 -68.34)"/><path class="cls-15" d="M383.9,194.84l-3.3-1.9-2,1.15,4.77,2.75h0a2.1,2.1,0,0,0-.62.57l-55.12,83.77-.08.11h0l2,1.11L384.44,199l.28-.39a2.89,2.89,0,0,1,.64-.66c.49-.34.87-.14,1,.58h0A5.72,5.72,0,0,0,383.9,194.84Z" transform="translate(-26.6 -68.34)"/><path class="cls-3" d="M257,275.58l-11.77-6.79V370.08a5.55,5.55,0,0,0,2.51,4.34l2.83,1.64a5.61,5.61,0,0,0,5,0l1.41-.82Z" transform="translate(-26.6 -68.34)"/><path class="cls-31" d="M257.7,277.53l-11.77-6.79V372a5.55,5.55,0,0,0,2.51,4.34l2.83,1.64a5.61,5.61,0,0,0,5,0l1.41-.82Z" transform="translate(-26.6 -68.34)"/><path class="cls-3" d="M386.43,199.21V297.6a5.11,5.11,0,0,1-.78,2.54,5.48,5.48,0,0,1-1.47,1.65l-.1,0a1.53,1.53,0,0,1-.16.11l-128.36,74.1h0a1.79,1.79,0,0,1-1.71.2,1.52,1.52,0,0,1-.75-1.2,3.19,3.19,0,0,1,0-.45v-98.4a2.18,2.18,0,0,1,2.82-2.22l54,19.87,7.07,1.68a4.67,4.67,0,0,0,4.51-1.69l8.19-11.41,54.85-83.39.28-.39C385.67,197.37,386.43,197.61,386.43,199.21Z" transform="translate(-26.6 -68.34)"/><path class="cls-3" d="M383.92,302a.91.91,0,0,0,.16-.11l.1,0a5.48,5.48,0,0,0,1.47-1.65,5.18,5.18,0,0,0,.78-2.5l-56.82-15.2,38.05,28.9Z" transform="translate(-26.6 -68.34)"/><path class="cls-14" d="M384.2,300.68a.7.7,0,0,0,.16-.1l.1-.06a5.44,5.44,0,0,0,1.47-1.64,5.21,5.21,0,0,0,.78-2.5l-56.82-15.21,38.05,28.9Z" transform="translate(-26.6 -68.34)"/><path class="cls-3" d="M253.05,374.6a1.76,1.76,0,0,0,.78,1.66,1.79,1.79,0,0,0,1.71-.2h0l44.19-25.51,10.1-56.69L253.05,373Z" transform="translate(-26.6 -68.34)"/><path class="cls-31" d="M315.42,284.9,254,376a1.73,1.73,0,0,1-.78-1.65V372.7l60-89s0,0,0,0Z" transform="translate(-26.6 -68.34)"/><path class="cls-3" d="M385.58,300.15a5.56,5.56,0,0,1-1.47,1.64l-.09.06L255.49,376.06h0a1.81,1.81,0,0,1-1.71.19l61.47-91.1a9.67,9.67,0,0,1,12.08-3.71Z" transform="translate(-26.6 -68.34)"/><path class="cls-31" d="M245.67,259.68l2,1.18a10,10,0,0,0-.47,2.74V270l-2-1.18v-6.37A10,10,0,0,1,245.67,259.68Z" transform="translate(-26.6 -68.34)"/><polygon class="cls-3" points="229.8 204.56 227.76 205.74 225.7 204.55 220.63 201.63 222.6 200.46 229.8 204.56"/><path class="cls-15" d="M256.49,272.94l-7.28-4.14-2,1.17,5.07,2.92,2.06,1.19h0a1.71,1.71,0,0,1,.38-.13,2.75,2.75,0,0,1,1.1,0l4.1,1.52,47.11,17.34.74-1.09Z" transform="translate(-26.6 -68.34)"/></g></g><g id="Clouds"><g id="Clouds-2" data-name="Clouds"><g id="Cloud"><path class="cls-29" d="M145,102.07l-7.62,4.4a8.68,8.68,0,0,0,.06-1v-2.2c0-3.93-2.76-5.52-6.16-3.56a12.15,12.15,0,0,0-3.67,3.53c-.55-4.94-4.43-6.78-9.14-4.06-5.08,2.94-9.21,10.08-9.21,16v3.3a8.73,8.73,0,0,0,.78,3.83l-6.33,3.65a7.57,7.57,0,0,0-3.41,5.92c0,2.18,1.53,3.06,3.41,2L145,110a7.55,7.55,0,0,0,3.41-5.91C148.44,101.87,146.91,101,145,102.07Z" transform="translate(-26.6 -68.34)"/></g><g id="Cloud-2" data-name="Cloud"><path class="cls-29" d="M108.14,77l-9.38,5.41a10.46,10.46,0,0,0,.08-1.24V78.41c0-4.83-3.39-6.79-7.58-4.37a14.75,14.75,0,0,0-4.52,4.34c-.68-6.08-5.45-8.34-11.25-5C69.23,77,64.15,85.8,64.15,93v4.06a10.72,10.72,0,0,0,1,4.71l-7.79,4.5a9.3,9.3,0,0,0-4.21,7.28c0,2.69,1.89,3.77,4.21,2.43l50.82-29.34a9.27,9.27,0,0,0,4.21-7.28C112.35,76.7,110.47,75.62,108.14,77Z" transform="translate(-26.6 -68.34)"/></g></g></g><g id="Paper_Plane" data-name="Paper Plane"><g id="Paper_Plane-2" data-name="Paper Plane"><polygon class="cls-3" points="378.36 96.38 413.74 73.73 429.32 78.73 378.36 96.38"/><polygon class="cls-3" points="378.36 96.38 408.94 70.88 402.14 63.04 378.36 96.38"/><polygon class="cls-3" points="408.94 70.88 408.94 76.8 378.36 96.38 408.94 70.88"/><polygon class="cls-32" points="408.94 70.88 408.94 76.8 378.36 96.38 408.94 70.88"/><path class="cls-2" d="M440.63,138.73a.75.75,0,0,1-.51-1.3,26.07,26.07,0,0,0,2.89-3.15.75.75,0,1,1,1.19.91,27.61,27.61,0,0,1-3.06,3.34A.78.78,0,0,1,440.63,138.73Zm5.63-7.47a.71.71,0,0,1-.34-.08.74.74,0,0,1-.33-1,25.52,25.52,0,0,0,2-5.47.75.75,0,0,1,1.46.35,26.38,26.38,0,0,1-2.1,5.79A.75.75,0,0,1,446.26,131.26ZM449,120.69h0a.75.75,0,0,1-.72-.78c0-.41,0-.81,0-1.21a27.59,27.59,0,0,0-.39-4.61.75.75,0,0,1,.61-.87.76.76,0,0,1,.87.62,29.52,29.52,0,0,1,.41,4.86c0,.42,0,.85,0,1.27A.75.75,0,0,1,449,120.69Zm-1.61-10.81a.75.75,0,0,1-.71-.51,32.12,32.12,0,0,0-2.43-5.32.77.77,0,0,1,.28-1,.76.76,0,0,1,1,.28,33.15,33.15,0,0,1,2.53,5.58.75.75,0,0,1-.46,1A1,1,0,0,1,447.38,109.88Zm-5.26-9.61a.75.75,0,0,1-.59-.29,38.31,38.31,0,0,0-3.94-4.36.75.75,0,1,1,1-1.09,40.42,40.42,0,0,1,4.1,4.53.75.75,0,0,1-.14,1A.74.74,0,0,1,442.12,100.27Zm-7.83-7.68a.74.74,0,0,1-.45-.15,48.3,48.3,0,0,0-4.93-3.25.76.76,0,0,1-.27-1,.74.74,0,0,1,1-.27,49.58,49.58,0,0,1,5.08,3.35.75.75,0,0,1-.45,1.35Zm-78.59-2.9a.75.75,0,0,1-.38-1.4c1.74-1,3.54-1.94,5.37-2.81a.75.75,0,0,1,1,.36.74.74,0,0,1-.36,1c-1.79.85-3.56,1.77-5.26,2.75A.74.74,0,0,1,355.7,89.69ZM424.87,87a.71.71,0,0,1-.32-.07c-1.78-.86-3.61-1.65-5.45-2.36a.75.75,0,0,1-.43-1,.75.75,0,0,1,1-.43c1.87.72,3.74,1.53,5.56,2.41a.75.75,0,0,1-.33,1.42Zm-59.27-2a.77.77,0,0,1-.7-.48.75.75,0,0,1,.43-1c1.87-.73,3.8-1.4,5.73-2a.75.75,0,0,1,.43,1.44c-1.89.56-3.78,1.22-5.61,1.93A.71.71,0,0,1,365.6,84.94Zm49-2a.57.57,0,0,1-.22,0c-1.88-.57-3.81-1.07-5.74-1.49A.75.75,0,1,1,409,80c2,.43,3.94.94,5.86,1.53a.75.75,0,0,1,.5.94A.76.76,0,0,1,414.64,83ZM376.1,81.69a.75.75,0,0,1-.73-.58.76.76,0,0,1,.57-.9c1.95-.45,3.95-.83,5.95-1.12a.75.75,0,1,1,.22,1.48c-2,.29-3.92.66-5.84,1.11Zm27.82-1.15h-.11c-1.95-.29-3.94-.5-5.91-.63a.75.75,0,1,1,.1-1.49c2,.13,4,.34,6,.63a.75.75,0,0,1-.11,1.49ZM387,80a.75.75,0,0,1-.06-1.5c2-.16,4.05-.25,6.06-.25h0a.75.75,0,0,1,0,1.5c-2,0-4,.09-5.94.25Z" transform="translate(-26.6 -68.34)"/></g></g></svg>