<svg xmlns="http://www.w3.org/2000/svg" viewBox="0 0 433.01 145"><defs><style>.cls-1{fill:none;}.cls-1,.cls-2{stroke:#000;stroke-miterlimit:10;}.cls-2{opacity:0.96;}.cls-3{fill:#fff;}</style></defs><g id="Fondo"><polyline class="cls-1" points="216.52 144.5 0.5 144.5 0.5 0.5 216.52 0.5 216.52 144.5"/><rect class="cls-2" x="216.27" y="0.5" width="216.25" height="144"/></g><g id="Capa_1" data-name="Capa 1"><polygon points="31.82 66.53 31.82 54.2 31.84 39.19 12.44 39.19 12.42 102.14 31.82 102.14 31.82 80.14 31.86 80.5 31.86 66.89 31.82 66.53"/><path d="M210.32,448c0-12.5-3.78-14.05-10-16.46,6.9-2,9.94-8,9.94-15.17,0-12.07-6.49-17.67-26.22-17.67h-1.43v14.48h1.92c4.52,0,7.81,2.07,7.81,6.47s-3.2,5.86-9.2,5.86h-.49v13.64c7.91.25,9.12,3,9.12,10.75,0,5.51.49,10.32,1,11.7h19.65V458.9C210.08,458.9,210.32,456.14,210.32,448Z" transform="translate(-143.51 -359.55)"/><polygon class="cls-3" points="417.96 40.41 398.43 40.41 398.43 48.64 417.96 78.48 417.96 40.41"/><polygon class="cls-3" points="399.21 75.17 376.51 40.41 357.82 40.41 357.82 40.56 391.63 92.35 398.86 103.35 417.69 103.35 399.2 75.11 399.21 75.17"/><polygon class="cls-3" points="357.9 103.35 377.43 103.35 377.43 94.98 357.9 65.53 357.9 103.35"/><polygon points="106.4 53.28 131.97 53.28 131.97 39.77 85.83 39.77 85.83 53.28 105.98 53.28 106.4 53.28"/><polygon points="105.98 77.02 131.17 77.02 131.17 64.66 106.4 64.66 105.98 64.66 85.83 64.66 85.83 77.09 105.98 77.09 105.98 77.02"/><polygon points="105.98 90.37 85.83 90.37 85.83 102.73 132.29 102.73 132.29 90.37 105.98 90.37"/><rect x="151.44" y="40.94" width="20.12" height="63.05"/><path d="M340.05,403.44c-4.95-2.11-11.23-2.71-17.18-2.88v11.69c4.34.65,6,2.41,6.08,7.58v20.6c.26,6.52.25,10.41-6.08,11.51v11.61c6.12,0,12.44-.45,17.64-2.94,5.84-2.69,8.47-7.32,8.59-13.62V419C349.1,412.94,347.84,406.8,340.05,403.44Z" transform="translate(-143.51 -359.55)"/><path class="cls-3" d="M380.43,461.93v-63h20.15v63Z" transform="translate(-143.51 -359.55)"/><polygon class="cls-3" points="308.73 52.9 334.3 52.9 334.3 39.39 288.15 39.39 288.15 52.9 308.31 52.9 308.73 52.9"/><polygon class="cls-3" points="308.31 76.64 333.5 76.64 333.5 64.28 308.73 64.28 308.31 64.28 288.15 64.28 288.15 76.71 308.31 76.71 308.31 76.64"/><polygon class="cls-3" points="308.31 89.99 288.15 89.99 288.15 102.35 334.62 102.35 334.62 89.99 308.31 89.99"/><path class="cls-1" d="M360,504" transform="translate(-143.51 -359.55)"/></g></svg>