<svg id="Capa_1" data-name="Capa 1" xmlns="http://www.w3.org/2000/svg" viewBox="0 0 290 145"><defs><style>.cls-1{opacity:0.95;}.cls-2{fill:#fff;}</style></defs><path d="M359,216V359H216V216H359m1-1H215V360H360V215Z" transform="translate(-215 -215)"/><rect x="145.5" y="0.5" width="144" height="144"/><path d="M504,216V359H361V216H504m1-1H360V360H505V215Z" transform="translate(-215 -215)"/><g class="cls-1"><polygon points="60.01 64.94 60.01 52.61 60.01 38.13 40.61 38.13 40.61 100.19 60.01 100.19 60.01 78.56 60.05 78.56 60.05 64.94 60.01 64.94"/><path d="M309.86,302.43c0-12.5-3.78-14.05-10-16.46,6.9-2,9.94-8,9.94-15.17,0-12.07-6.49-17.67-26.22-17.67h-1.43v14.48h1.92c4.52,0,7.81,2.07,7.81,6.47s-3.2,5.86-9.2,5.86h-.49v13.64c7.91.25,9.12,3,9.12,10.75,0,5.51.49,9.48,1,10.86h19.65v-1.9C309.62,313.29,309.86,310.53,309.86,302.43Z" transform="translate(-215 -215)"/><polygon class="cls-2" points="247.71 38.13 229.13 38.13 229.13 46.36 247.71 76.2 247.71 38.13"/><polygon class="cls-2" points="229.87 72 208.74 38.13 190.97 38.13 190.97 38.28 222.66 89.19 229.54 100.19 247.45 100.19 229.87 71.95 229.87 72"/><polygon class="cls-2" points="190.58 100.19 209.16 100.19 209.16 91.82 190.81 62.36 190.58 100.19"/></g></svg>