<svg id="Capa_1" data-name="Capa 1" xmlns="http://www.w3.org/2000/svg" viewBox="0 0 577.16 454.5"><defs><style>.cls-1{fill:#98ccfd;}.cls-2,.cls-3{isolation:isolate;font-size:100.27px;fill:#fff;font-family:Montserrat-ExtraBold, Montserrat;font-weight:800;}.cls-3{letter-spacing:-0.01em;}.cls-4{fill:#4788c7;}</style></defs><g id="color"><path class="cls-1" d="M165.36,118.9l-51.2-17.4-26.3,47.4,34.7,39.4s-3.8,86.4-3.4,87.7,4.7,12.7,4.7,12.7l-26.7,28.8-9.4,7.2,22.4,46.6,49.1-11.9,88.1,47.4,5.1,14.4,12.4,39.3h49.7l14.7-49.1,26.5-11.9,54.8-36.7,11.9-2.3,41.8,9.6,30.5-42.4-19.2-23.1L456.46,281l3.4-88.2,20.3-23.7,17.5-18.6-29.9-49L418.06,116,391,101.4l-31.6-21.6-24.3-8.5-16.4-57h-52l-19.2,55.3-52,22Z" transform="translate(0 -11)"/><text class="cls-2" transform="translate(184.57 258.87) scale(1.15 1)">A</text><text class="cls-3" transform="translate(275.2 258.87) scale(1.15 1)">P</text><text class="cls-2" transform="translate(359.03 258.87) scale(1.15 1)">I</text></g><g id="Capa_1-2" data-name="Capa 1"><path class="cls-4" d="M257.26,14.7c-.6,2.1-3.3,13-6.1,24.3s-5.5,22.1-6,24c-.9,3.3-1.4,3.6-8.7,5.8-22.7,6.8-47.5,20.9-65.8,37.5l-7.2,6.5L138,105.5c-14-4-26.2-7.5-27.1-7.7-1.3-.2-5.6,6.5-17.7,27.2l-15.9,27.5,20.3,20,20.3,20-2.3,10.5c-5.4,24.6-4.8,57,1.5,78.7.9,3.2.8,3.4-13.7,17.6-8.1,7.9-17.3,16.8-20.5,19.8l-5.7,5.4,5.1,9c16.3,28.2,26.2,45.1,26.9,45.8.4.5,5-.4,10.1-1.9,15.4-4.4,27.9-8,36.1-10.3l7.8-2.3,10.2,8.8a170.15,170.15,0,0,0,36.3,24.2c9.8,4.9,28.2,12.2,30.7,12.2a6.22,6.22,0,0,1,2.6.9c.8.4,4.4,12.9,8.1,27.7l6.7,26.9h64.7l6.7-26.9,6.7-26.9,11.9-4.2a185.63,185.63,0,0,0,60.3-34.8l9-7.8,26.5,7.5c14.6,4.2,26.7,7.6,26.9,7.6.5,0,11.9-19.2,18-30,1.4-2.5,5.3-9.2,8.7-15l6.2-10.5-4.4-3.9c-2.3-2.2-11.6-11-20.4-19.7l-16.2-15.6,2.4-10.4a173.15,173.15,0,0,0,3.3-48.7c-.9-11.2-3.7-27.9-5.4-32.2-.4-1.1,5.7-7.6,20-21.4,19.5-18.8,20.5-20,19.2-22-.8-1.1-8-13.7-16.1-27.8-8.5-14.6-15.3-25.5-15.9-25.2l-27.2,7.8-25.9,7.5-4.6-4.2c-18.6-17.4-42.5-31.6-65.3-38.9-5.6-1.8-10.4-3.3-10.6-3.5s-3-10.9-6.3-24-6.3-25.5-6.9-27.6l-1-3.7h-63.8Zm62.8,32.5c3.4,13.9,6.5,25.9,6.9,26.7s5.9,2.9,12.2,4.8a169.15,169.15,0,0,1,68.5,40.4l6,5.8,26-7.4c14.3-4.1,26.2-7.1,26.6-6.7,1.1,1.2,22.9,39.3,22.9,40,0,.4-8.7,9.1-19.4,19.4L450.36,189l1.8,7.2a168,168,0,0,1,.1,84.8l-1.9,7.5,19.6,19,19.6,19.1-11.4,19.8c-6.2,10.9-11.9,20-12.6,20.3s-12.5-2.8-26.3-6.7l-25.1-7.2L404,362c-20.5,18.3-44,31.3-68.6,38.1-7.9,2.1-8.2,2.3-9.2,5.8-.5,2-3.5,13.8-6.6,26.3L314,455h-47.6l-5.6-22.7c-3.1-12.6-6.1-24.4-6.6-26.3-1-3.6-1.1-3.6-12.4-6.9-22.3-6.4-46.1-19.9-65.4-37.1l-10.3-9.1-24.8,7c-13.6,3.9-25.4,7.1-26.2,7.1s-2.5-2.2-4-4.8-6.5-11.6-11.4-20.1l-8.9-15.5,19.6-19L130,288.5l-2.3-9.3a164.38,164.38,0,0,1,.4-83L130,189l-19.6-19-19.7-19,1.6-2.7c7.1-12.5,21.3-36.9,21.8-37.5.3-.4,12.3,2.6,26.6,6.7l26,7.4,6.5-6.3a170.35,170.35,0,0,1,68-39.9c6.3-1.9,11.8-4.1,12.2-4.8s3.5-12.8,6.9-26.7l6.3-25.2h47.2Z" transform="translate(0 -11)"/><path class="cls-4" d="M78.16,63.2c-15.4,2.3-30.1,15-36.3,31.5-2.1,5.6-2.2,7.3-2.7,58.3-.7,58.4-.6,57.6-7.6,65.9-5,5.8-10.7,8.8-19.9,10.6-4.4.8-8.5,2.1-9.2,2.8-3.7,3.6-3.1,12.7,1,14.8,1.2.7,5.3,1.8,9,2.5,8.3,1.6,14.3,4.9,19.1,10.5,7,8.3,6.9,7.5,7.6,65.9.4,33,1,53.6,1.7,55.6,6.9,19.8,22.3,33.1,39.7,34.2,8.7.5,11.9-.1,14.6-2.8,4.2-4.2,1.5-13.3-4.3-14.4-15.8-3.1-22-6.2-27.1-13.4-5.5-7.9-5.6-9.5-5.6-59.9,0-29-.4-49.1-1.1-53.6-1.7-10.7-5.5-18-13.4-25.9l-6.8-6.7,6.2-5.7a55.92,55.92,0,0,0,8.7-10.1c5.8-9.7,5.7-9.5,6.3-66.8.6-51.5.7-53.1,2.7-57.6a31.21,31.21,0,0,1,25-17.5c7.6-.9,11.4-4.1,11.4-9.5,0-4.3-3.3-8.8-6.7-9.1A46.12,46.12,0,0,0,78.16,63.2Z" transform="translate(0 -11)"/><path class="cls-4" d="M483,65.3a8.55,8.55,0,0,0-.6,12.1c0,.1.1.1.1.2,1.9,2.1,3.6,2.9,8.8,3.6,11.7,1.5,19.8,7,25.1,17.1,2.3,4.2,2.3,4.6,2.9,57.2.5,51,.6,53.2,2.7,59.6,2.6,7.8,6.2,13.1,13.1,19,2.8,2.4,5.1,4.7,5.1,5.1s-2.9,3.5-6.5,6.9c-8.1,7.8-12.1,15.5-13.5,25.9-.5,4.1-1,28.2-1,53.6,0,51.2-.1,52.3-6.5,60.7-4.7,6.1-10.6,9.4-20,11.2-4.2.8-7.8,1.5-8,1.5a10.41,10.41,0,0,0-2.5,2.2c-2.5,2.7-2.7,8.8-.2,11.7,4,5.1,16.8,4.4,28.8-1.4,11.6-5.7,22-18.3,25.7-31.2.6-2.4,1.3-23.8,1.6-56.3l.6-52.5,2.5-5c5.2-10.3,11.9-14.9,25.9-17.5,7-1.3,10.1-4.1,10.1-9.1,0-6-3.1-8.8-11.5-10.4a80.8,80.8,0,0,1-9.7-2.4c-4.3-1.6-11.7-9-14.6-14.6l-2.7-5-.5-52.5c-.5-51.6-.6-52.6-2.8-59-4.6-12.9-13.9-23.7-25.1-29.3-5.4-2.6-7.8-3.2-15.5-3.5C486.16,62.8,485.56,62.9,483,65.3Z" transform="translate(0 -11)"/></g></svg>