<svg id="Layer_1" data-name="Layer 1" xmlns="http://www.w3.org/2000/svg" viewBox="0 0 400 400"><defs><style>.cls-1{fill:none;}.cls-2{fill:#23353f;}.cls-10,.cls-11,.cls-12,.cls-13,.cls-14,.cls-15,.cls-16,.cls-2,.cls-3,.cls-4,.cls-5,.cls-6,.cls-7,.cls-8,.cls-9{fill-rule:evenodd;}.cls-3{fill:#00949c;}.cls-4{fill:#3dcad1;}.cls-5{fill:#006d73;}.cls-6{fill:#4cd4db;}.cls-7{fill:#4ea100;}.cls-8{fill:#397500;}.cls-9{fill:#8ad642;}.cls-10{fill:#2c4b5f;}.cls-11{fill:#7baac9;}.cls-12{fill:#0f181f;}.cls-13{fill-opacity:0;}.cls-14{fill:#ed7500;}.cls-15{fill:#ab4200;}.cls-16{fill:#fcc894;}</style></defs><rect class="cls-1" width="400" height="400"/><path class="cls-2" d="M104,131.85C99.15,146,97.09,151,97.88,156.64c.56,4.06,4.68,5.79,4.68,12.18,0,11.27-26.85,36.62-26,44.61.56,5.52,14.17,9,18,16.17,2.42,4.57-.17,11.93-5.4,17.26.5,5.59,3,6.55,6.34,7.53-3.73,1-4.84,4.73-4.43,8.25,9.53,2.86,4.37,9,2.42,15.62a18.53,18.53,0,0,0,1.37,13.59c2,4.14,7.84,4.65,15.5,5.1,10.13.58,23.2.31,37.68,12.26,9.12,7.53,17.3,22.13,20.7,35l124.82-.41c-14.24-34.12-23.67-76.45-10.37-88.06C332,213.14,351.55,94.45,254.31,62.59,184.25,39.69,123,77.15,104,131.85Z"/><path class="cls-3" d="M174.06,83.43a28.2,28.2,0,0,1,7.58,3.17l5.58-5.53a36.79,36.79,0,0,1,10.16,10.27l-5.58,5.52a28.47,28.47,0,0,1,3.06,7.47h7.85a36.8,36.8,0,0,1-.07,14.45h-7.86a28.32,28.32,0,0,1-3.13,7.44l5.53,5.58A37.07,37.07,0,0,1,186.91,142l-5.53-5.58a28.86,28.86,0,0,1-7.32,3v7.85a36.61,36.61,0,0,1-14.45,0V139.4a28.2,28.2,0,0,1-7.58-3.17l-5.59,5.53a36.93,36.93,0,0,1-10.16-10.27l5.58-5.53a28.78,28.78,0,0,1-3.05-7.47H131A37,37,0,0,1,131,104h7.86A28.36,28.36,0,0,1,142,96.61L136.49,91a36.83,36.83,0,0,1,10.27-10.17l5.52,5.58a28.93,28.93,0,0,1,7.33-3V75.58a36.61,36.61,0,0,1,14.45,0v7.85Zm-7.23,10.12a17.87,17.87,0,1,0,17.87,17.87h0a17.86,17.86,0,0,0-17.86-17.86Zm0,2.09a15.78,15.78,0,1,0,15.78,15.78h0a15.77,15.77,0,0,0-15.77-15.77Zm0-3.35A19.13,19.13,0,1,0,186,111.41a19.12,19.12,0,0,0-19.17-19.12Z"/><path class="cls-4" d="M174.06,83.43a28.2,28.2,0,0,1,7.58,3.17l5.58-5.53a36.79,36.79,0,0,1,10.16,10.27l-.09.1a36.78,36.78,0,0,0-10.07-10.13l-5.58,5.53a28.2,28.2,0,0,0-7.58-3.17ZM191.89,97a29,29,0,0,1,3,7.31h7.85a36.58,36.58,0,0,1,.68,7v.12a37.29,37.29,0,0,0-.68-6.91h-7.85a28.47,28.47,0,0,0-3.06-7.47l-.16-.3.16.06.09.15Zm-.15,29.29,5.44,5.49-.1.15-5.58-5.66.15-.07.09.09Zm-55.36,5.32-.1-.14,5.49-5.44.09-.09.16.06Zm-6.1-20.1v-.12A36.67,36.67,0,0,1,131,104h7.86a28.66,28.66,0,0,1,3-7.29l.09-.16.17-.07-.18.32a28.29,28.29,0,0,0-3.12,7.44H131a37.09,37.09,0,0,0-.75,7.28Zm6.31-20.41-.1-.09a36.83,36.83,0,0,1,10.27-10.17l5.52,5.58a28.93,28.93,0,0,1,7.33-3v.24a28.57,28.57,0,0,0-7.33,3l-5.52-5.58a36.67,36.67,0,0,0-10.17,10Zm23-15.3v-.24a36.61,36.61,0,0,1,14.45,0v.24A36.61,36.61,0,0,0,159.59,75.8Zm7.22,17.73a17.87,17.87,0,0,1,17.87,17.86v.13a17.87,17.87,0,0,0-35.73,0v-.13a17.86,17.86,0,0,1,17.86-17.86Zm15.77,18a15.77,15.77,0,0,1-31.54,0v.12a15.78,15.78,0,0,0,31.55,0v-.12Zm3.36,0a19.13,19.13,0,0,1-38.25,0v.12a19.13,19.13,0,0,0,38.25,0Z"/><path class="cls-5" d="M197.38,91.34l-5.49,5.44-.09.09-.16-.06,5.55-5.52h.19Zm6,20v.11a36.89,36.89,0,0,1-.75,7.41h-7.86a28.66,28.66,0,0,1-3,7.29l-.09.15-.16.08.16-.32a28.32,28.32,0,0,0,3.13-7.44h7.86a37.09,37.09,0,0,0,.75-7.28Zm-6.21,20.5A36.89,36.89,0,0,1,186.91,142l-5.53-5.57a28.86,28.86,0,0,1-7.32,3v-.24a28.15,28.15,0,0,0,7.32-3l5.53,5.58A36.64,36.64,0,0,0,197,131.85h.17ZM174.06,147v.24a36.61,36.61,0,0,1-14.45,0V147A36.61,36.61,0,0,0,174.06,147Zm-14.45-7.61a28.2,28.2,0,0,1-7.58-3.17l-5.59,5.53a36.93,36.93,0,0,1-10.16-10.27h.2a36.89,36.89,0,0,0,10,10L152,136a28.2,28.2,0,0,0,7.58,3.17v.24ZM141.77,125.8a28.86,28.86,0,0,1-3-7.32h-7.85a36.58,36.58,0,0,1-.68-7v-.11a37.29,37.29,0,0,0,.68,6.91h7.85a28.78,28.78,0,0,0,3,7.47l.16.3-.16-.06-.09-.15Zm.16-29.29L136.49,91h.2l5.5,5.55-.17.08-.09-.09Zm42.77,14.77v.12a17.87,17.87,0,1,1-35.73.85c0-.29,0-.57,0-.85v-.12a17.87,17.87,0,0,0,35.73,0ZM166.83,95.64a15.78,15.78,0,0,1,15.77,15.65v-.12a15.78,15.78,0,0,0-31.55,0v.12a15.78,15.78,0,0,1,15.77-15.65Zm0-3.35a19.14,19.14,0,0,1,19.13,19v-.12a19.13,19.13,0,0,0-38.25,0v.12A19.13,19.13,0,0,1,166.83,92.29Z"/><path class="cls-3" d="M241.4,65.93A4.77,4.77,0,1,1,239,72.24v0a4.76,4.76,0,0,1,2.43-6.28h0ZM239,62.11l.44,1.87A7.28,7.28,0,0,0,238,65.13l-1.73-.83-.78,1.07,1.31,1.4a7.46,7.46,0,0,0-.66,1.72l-1.92.15L234.07,70l1.84.55a7.42,7.42,0,0,0,.28,1.82l-1.58,1.08.54,1.22,1.86-.44a8,8,0,0,0,1.16,1.44l-.83,1.72,1.07.79,1.4-1.32a7.06,7.06,0,0,0,1.72.67l.14,1.91,1.32.14.56-1.83a7.44,7.44,0,0,0,1.82-.29L246.45,79l1.22-.54-.44-1.87a7.52,7.52,0,0,0,1.43-1.15l1.73.83.79-1.07-1.32-1.4a7.49,7.49,0,0,0,.67-1.72l1.91-.15.14-1.32-1.83-.55a7.44,7.44,0,0,0-.29-1.82L252,67.17,251.51,66l-1.87.44A7.58,7.58,0,0,0,248.49,65l.82-1.73-1.07-.79-1.4,1.32a7,7,0,0,0-1.71-.67l-.13-2L243.66,61l-.55,1.83a7.42,7.42,0,0,0-1.82.28l-1.09-1.58-1.21.54Zm1.85,2.54A6.17,6.17,0,1,0,249,67.8a6.16,6.16,0,0,0-8.15-3.15l0,0Z"/><path class="cls-5" d="M248.08,70a4.76,4.76,0,0,1-9.51.44,4.7,4.7,0,0,0,.4,1.65A4.76,4.76,0,0,0,248.08,70ZM239,62.11h0l.46,2V64Zm10.29,1.09h0l-.8,1.8h-.07v-.07l.79-1.65v-.07ZM252,67.09v.08l-1.58,1.08v-.07Zm-1.27,2.81V70h0Zm1.83.72h0l-.14,1.32-1.92.15a6.93,6.93,0,0,1-.63,1.66v.06h-.06a10,10,0,0,0,.72-1.84l1.91-.15.14-1.22Zm-1.44,4.54-.74,1-1.73-.83a7.28,7.28,0,0,1-1.44,1.15h0v.07h0a7.11,7.11,0,0,0,1.42-1.14l1.73.83.78-1.07h0Zm-3.49,3.22v.09l-1.22.54-1.08-1.58a7.42,7.42,0,0,1-1.82.28L243,79.54l-1.32-.14-.14-1.91a7.06,7.06,0,0,1-1.72-.67l-1.4,1.32-1.07-.79v-.07l1,.76,1.4-1.32a7.41,7.41,0,0,0,1.71.67l.15,1.91,1.32.14.55-1.83a7,7,0,0,0,1.82-.29l1.09,1.59,1.19-.53Zm-9.51-2.79a7.17,7.17,0,0,1-1.12-1.4l-1.87.44-.53-1.22h0l.5,1.14,1.87-.44a7.52,7.52,0,0,0,1.15,1.43l.06.07h-.05Zm-2-3.35a7,7,0,0,1-.26-1.64,8.5,8.5,0,0,0,.32,1.8v-.16Zm-.26-1.73L234.07,70v-.1l1.82.55v.1Zm.85-3.78-1.28-1.36v-.05l1.27,1.35.07.08h-.07Zm4.08-2.08A6.17,6.17,0,0,1,249,67.74a6.09,6.09,0,0,1,.54,2.26,6.17,6.17,0,0,0-12.33.55,6.18,6.18,0,0,1,3.68-5.9Z"/><path class="cls-6" d="M241.4,65.93a4.77,4.77,0,0,1,6.29,2.47,4.65,4.65,0,0,1,.4,1.72,4.7,4.7,0,0,0-.4-1.65,4.76,4.76,0,0,0-9.12,2.09,4.79,4.79,0,0,1,2.83-4.63ZM239,62.11l1.21-.54,1.09,1.58a7.42,7.42,0,0,1,1.82-.28l.55-1.83,1.32.14.15,1.91a7.41,7.41,0,0,1,1.71.67l1.4-1.32,1.07.79h-.06l-1-.73-1.4,1.32a7.49,7.49,0,0,0-1.72-.67L245,61.28l-1.32-.14L243.11,63a7.42,7.42,0,0,0-1.82.28l-1.08-1.58-1.18.52v-.08ZM248.52,65a7.17,7.17,0,0,1,1.12,1.4l1.87-.44.53,1.22-.06-.06-.47-1.06-1.86.44a8.41,8.41,0,0,0-1.09-1.37l-.14-.13h.1Zm2,3.35a7,7,0,0,1,.25,1.64,8.5,8.5,0,0,0-.32-1.8v.16Zm.26,1.73,1.83.55v.09l-1.81-.54v-.1Zm-.89,3.74,1.31,1.4h-.08l-1.29-1.38h.06Zm-2.63,2.79.44,1.87h0l-.46-2v.07Zm-9.89.75.8-1.66v-.06h.05l-.81,1.72h0Zm-2.73-3.94,1.56-1.07h0l.05.07h0l-1.53,1-.06-.06ZM236,70.69v-.07h0ZM234.07,70l.14-1.32,1.92-.15a7.57,7.57,0,0,1,.63-1.66h.07l-.06.12a7.49,7.49,0,0,0-.67,1.72l-1.91.15L234.07,70v0Zm1.41-4.59h.08l.71-1,1.73.83a7.45,7.45,0,0,1,1.42-1.15h0V64h0A7,7,0,0,0,238,65.13l-1.73-.83-.78,1.07Zm14,4.7a6.17,6.17,0,0,1-12.32.55,6.27,6.27,0,0,0,.52,2.26,6.17,6.17,0,0,0,11.8-2.81Z"/><path class="cls-7" d="M185.48,62.77a8.1,8.1,0,0,1,3.11,1.13l1.11-.48,1.55,1.41L190.86,66a8.1,8.1,0,0,1,1.4,3l1.13.45.09,2.09-1.08.54a8.12,8.12,0,0,1-1.14,3.11l.49,1.12-1.42,1.54-1.15-.38a8.17,8.17,0,0,1-3,1.4L185.74,80l-2.1.1L183.1,79a8.19,8.19,0,0,1-3.1-1.15l-1.11.48-1.55-1.41.39-1.16a7.94,7.94,0,0,1-1.4-3l-1.13-.45-.09-2.09,1.08-.54a8.27,8.27,0,0,1,1.13-3.11l-.48-1.12,1.42-1.54,1.15.38a8.17,8.17,0,0,1,3-1.4l.44-1.13,2.1-.09.54,1.09ZM180.34,67l1.23,1.13.16-.17.55.18a3.19,3.19,0,0,1,1.18-.55l.22-.54h.88l.26.52a3.63,3.63,0,0,1,1.23.44l.53-.23.18.16,1.13-1.23a5.57,5.57,0,0,0-7.55.33ZM183,69.39l1.31,1.19,1.19-1.3A2,2,0,0,0,183,69.39Zm1.61,1.47,1.3,1.2a2,2,0,0,0,.39-1.27,1.93,1.93,0,0,0-.5-1.23Zm2.71,2.48,1.23,1.13a5.55,5.55,0,0,0-.33-7.55l-1.13,1.23.18.16-.19.55a3.51,3.51,0,0,1,.56,1.19l.54.21v.89l-.52.26a3.33,3.33,0,0,1-.45,1.22l.23.54-.16.17Zm1,1.43L187,73.65l-.16.17-.55-.18a3.74,3.74,0,0,1-1.18.55l-.22.54H184l-.26-.52a3.21,3.21,0,0,1-1.23-.45L182,74l-.18-.17-1.13,1.23a5.55,5.55,0,0,0,7.55-.33Zm-2.63-2.41-1.31-1.2-1.19,1.31A2,2,0,0,0,185.69,72.36ZM184,70.89l-1.3-1.2a2,2,0,0,0,.11,2.5Zm-2.71-2.49-1.23-1.12a5.55,5.55,0,0,0,.33,7.55l1.13-1.23-.18-.16.18-.56A3.67,3.67,0,0,1,181,71.7l-.54-.21V70.6l.52-.26a3.45,3.45,0,0,1,.45-1.23l-.23-.53Z"/><path class="cls-8" d="M191.22,64.8h0l-.36,1.2h-.05l.41-1.22Zm2.26,6.6v.12l-1.08.54a8.17,8.17,0,0,1-1.11,3.06h-.06l.07-.1a8.39,8.39,0,0,0,1.1-3l1.08-.55Zm-1.77,4.81v.08l-1.42,1.54-1.15-.38a8.17,8.17,0,0,1-3,1.4l-.4,1.15-2.1.1L183.1,79a8.19,8.19,0,0,1-3.1-1.15l-1.11.48-1.55-1.41v-.09l1.52,1.38,1.11-.48a8.1,8.1,0,0,0,3.11,1.13l.54,1.09,2.1-.09.44-1.13a8.17,8.17,0,0,0,3-1.4l1.15.38,1.38-1.5Zm-14-.48a8.18,8.18,0,0,1-1.37-3l-1.13-.45-.09-2.09h0l.09,2,1.13.45a8.19,8.19,0,0,0,1.45,3.07h0Zm-.35-9.08-.51-1.19h0l.5,1.18v0Zm10.49-.06a5.57,5.57,0,0,0-7.43.32l-.06.07h-.12l.12-.13a5.49,5.49,0,0,1,3.71-1.65,5.56,5.56,0,0,1,3.84,1.32l.11.1h-.11l-.06-.06Zm-2.42,2.64a2,2,0,0,0-1.21-.34,2,2,0,0,0-1.16.44l-.07.06h-.13l.13-.11a2.07,2.07,0,0,1,1.23-.5,2,2,0,0,1,1.27.39l.13.1h-.19Zm.86,1.59h0a1.93,1.93,0,0,0-.5-1.23L184.54,71l-.06-.06,1.31-1.43a1.93,1.93,0,0,1,.5,1.23v.12Zm3.57,0V70.5a5.64,5.64,0,0,0-1.65-3.71L187,68.16h.05l1.19-1.29a5.55,5.55,0,0,1,1.65,3.71v.2Zm-2.63-2.55h0l-.21.63h0Zm1,2.75v.12l-.52.26a3.47,3.47,0,0,1-.42,1.18h-.06l.06-.1a3.45,3.45,0,0,0,.45-1.23l.51-.26Zm-.76,2.06v.08l-.21.23-.07,0,.25-.26Zm.88,1.74L187,73.65l-.16.17-.55-.18a3.74,3.74,0,0,1-1.18.55l-.22.54H184l-.26-.52a3.21,3.21,0,0,1-1.23-.45L182,74l-.18-.16-1.18,1.29h-.06l1.24-1.36.18.16.53-.23a3.63,3.63,0,0,0,1.23.44l.26.52h.88l.22-.55a3.19,3.19,0,0,0,1.18-.55l.55.19.16-.18,1.36,1.24-.07.06Zm-2.64-2.42-1.36-1.25-1.25,1.37H183l1.32-1.44,1.43,1.31h-.07Zm-1.6-1.47-1.36-1.25a2,2,0,0,0-.39,1.12,1.91,1.91,0,0,1,.39-1.24l1.41,1.31Zm-2.83-2.59-1.17-1.07a5.48,5.48,0,0,0-1.32,3.52,5.46,5.46,0,0,1,1.32-3.64l1.23,1.13.11.11h-.11l-.06-.06Zm.34,5.3.06-.06-.26-.24v.09l.23.21Zm-.07-.8h.06l-.06-.07a3.49,3.49,0,0,1-.55-1.19l-.54-.21V70.6h0v.89l.54.21a3.76,3.76,0,0,0,.53,1.15Zm-.11-3.67h0l-.26-.6h0Z"/><path class="cls-9" d="M185.48,62.77a8.1,8.1,0,0,1,3.11,1.13l1.11-.48,1.55,1.41-.06.06-1.49-1.36-1.11.49a8.12,8.12,0,0,0-3.11-1.14l-.54-1.08-2.1.09L182.4,63a7.94,7.94,0,0,0-3,1.4l-1.15-.4-1.35,1.5h-.07L178.25,64l1.15.38a8.17,8.17,0,0,1,3-1.4l.44-1.13,2.1-.09.54,1.09ZM190.89,66a8.18,8.18,0,0,1,1.37,3l1.13.45.09,2.09h0l-.09-2-1.13-.44a8.17,8.17,0,0,0-1.45-3.1h.08Zm.38,9.15.48,1.12h-.07l-.48-1.1h.07ZM177.33,76.9l.39-1.16h.05l-.38,1.14-.06.06Zm-2.23-6.58v-.11l1.08-.54a8.2,8.2,0,0,1,1.1-3.07h.06l-.06.09a8.44,8.44,0,0,0-1.13,3.11l-1.08.54ZM180.34,67l1.23,1.13.16-.17.55.18a3.19,3.19,0,0,1,1.18-.55l.22-.54h.88l.26.52a3.63,3.63,0,0,1,1.23.44l.53-.23.18.16,1.13-1.23H188L186.76,68l-.18-.16-.53.23a3.38,3.38,0,0,0-1.23-.45l-.26-.52h-.88l-.22.54a3.38,3.38,0,0,0-1.18.56l-.55-.19-.16.18L180.22,67ZM183,69.39l1.31,1.19,1.19-1.3h.13l-1.32,1.44-1.44-1.32Zm1.61,1.47,1.3,1.2a2,2,0,0,0,.39-1.13,1.89,1.89,0,0,1-.39,1.24l-1.42-1.3Zm2.71,2.48,1.23,1.13a5.53,5.53,0,0,0,1.32-3.53,5.54,5.54,0,0,1-1.32,3.65l-1.35-1.24Zm-.23-5.19H187l.26.24V68.3l-.18-.16Zm0,.75H187l.05.07a3.38,3.38,0,0,1,.56,1.18l.54.22v.77h0v-.89l-.54-.21a3.76,3.76,0,0,0-.53-1.15Zm.14,3.73h-.06l.22.51h.07l-.23-.54Zm-2.69,3.79a5.52,5.52,0,0,0,3.65-1.59h.19a5.28,5.28,0,0,1-3.84,1.77,5.66,5.66,0,0,1-4-1.43h.12a5.56,5.56,0,0,0,3.84,1.32Zm-1.36-3.91a1.93,1.93,0,0,0,1.21.35,2,2,0,0,0,1.16-.45h.19l-.12.12a2,2,0,0,1-1.23.49,1.87,1.87,0,0,1-1.27-.39l-.13-.09h.19Zm-.86-1.58h0a1.93,1.93,0,0,0,.5,1.23l1.19-1.3h.11l-1.3,1.43a1.93,1.93,0,0,1-.5-1.23.38.38,0,0,1,0-.15Zm-3.57,0v.31A5.55,5.55,0,0,0,180.4,75l1.24-1.35h-.12l-1.12,1.23a5.64,5.64,0,0,1-1.65-3.71v-.2Zm2.6,2.52.18-.56h.06l-.18.53-.06.07Zm-.94-2.73V70.6l.52-.26a3.47,3.47,0,0,1,.42-1.18h.06a3.49,3.49,0,0,0-.51,1.32l-.51.25Zm.73-2.13.16-.18h.11l-.2.22Z"/><path class="cls-10" d="M111.85,119.49l2.84-1.21a1.24,1.24,0,0,1,1.62.64h0l1.21,2.83a12.48,12.48,0,0,1,4.56-.05l1.15-2.86a1.23,1.23,0,0,1,1.6-.69h0l2.87,1.15a1.24,1.24,0,0,1,.69,1.6l-1.15,2.86a12.88,12.88,0,0,1,3.27,3.19l2.83-1.21a1.25,1.25,0,0,1,1.62.65l1.22,2.84a1.25,1.25,0,0,1-.65,1.62l-2.83,1.21a13,13,0,0,1,.05,4.57l2.86,1.14a1.22,1.22,0,0,1,.68,1.6h0l-1.15,2.87a1.23,1.23,0,0,1-1.6.68l-2.86-1.14a12.84,12.84,0,0,1-3.19,3.26l1.21,2.83a1.24,1.24,0,0,1-.64,1.62h0l-2.84,1.22a1.25,1.25,0,0,1-1.62-.65l-1.21-2.83a12.94,12.94,0,0,1-4.56.05l-1.15,2.86a1.24,1.24,0,0,1-1.6.69l-2.87-1.15a1.25,1.25,0,0,1-.69-1.61l1.15-2.86a12.88,12.88,0,0,1-3.27-3.19l-2.83,1.22a1.25,1.25,0,0,1-1.62-.65l-1.22-2.84a1.26,1.26,0,0,1,.65-1.63l2.83-1.21a12.94,12.94,0,0,1,0-4.56l-2.86-1.15a1.23,1.23,0,0,1-.69-1.58v0l1.14-2.87a1.25,1.25,0,0,1,1.61-.69l2.86,1.15a12.88,12.88,0,0,1,3.19-3.27l-1.21-2.83a1.24,1.24,0,0,1,.64-1.62h0Zm6.08,10.28a5.15,5.15,0,1,0,6.76,2.72h0a5.13,5.13,0,0,0-6.74-2.71Z"/><path class="cls-11" d="M111.85,119.49l2.84-1.21a1.24,1.24,0,0,1,1.62.64h0l1.21,2.83a12.94,12.94,0,0,1,4.56-.06l1.15-2.85a1.24,1.24,0,0,1,1.59-.7h0l2.86,1.15a1.23,1.23,0,0,1,.76,1.33,1.22,1.22,0,0,0-.76-1l-2.86-1.15a1.24,1.24,0,0,0-1.61.69L122.08,122a12.94,12.94,0,0,0-4.56.06l-1.21-2.83a1.22,1.22,0,0,0-1.61-.65h0l-2.84,1.21a1.24,1.24,0,0,0-.7.77.62.62,0,0,1,0-.27,1.22,1.22,0,0,1,.72-.87Zm15.51,4.36a13.1,13.1,0,0,1,3.15,3.11l2.83-1.21a1.25,1.25,0,0,1,1.62.65l1.22,2.84a1.27,1.27,0,0,1,.08.67,1.67,1.67,0,0,0-.08-.3L135,126.77a1.25,1.25,0,0,0-1.62-.65l-2.83,1.21a12.88,12.88,0,0,0-3.27-3.19L127,124l.23-.22.12.08Zm5.4,8.57a14.12,14.12,0,0,1,.17,2.25,13.94,13.94,0,0,0-.23-2.23l-.13-.68.12.31.07.35Zm0,4.2,2.9,1.16a1.26,1.26,0,0,1,.76,1.34,1.22,1.22,0,0,0-.76-1l-3-1.18.05-.35Zm-5.33,8.17,1.32,3.1a1.28,1.28,0,0,1,.09.67,1.71,1.71,0,0,0-.09-.3l-1.45-3.38Zm-15.94,3.94a1.26,1.26,0,0,1,.07-.64l1.26-3.14.12.08-1.38,3.43A1.34,1.34,0,0,0,111.49,148.73Zm-7.8-9.26a1.26,1.26,0,0,1,.73-1.33l2.88-1.23.09.34-3,1.26a1.25,1.25,0,0,0-.73,1Zm3.33-4.76a13.35,13.35,0,0,1,.13-2l0-.35.11-.33-.11.7a13.39,13.39,0,0,0-.18,2Zm-3.44-4.45a1.16,1.16,0,0,1,.08-.64l1.14-2.87a1.25,1.25,0,0,1,1.61-.69l2.86,1.15a12.71,12.71,0,0,1,3.07-3.18l.12-.09.25.21-.25.17a12.84,12.84,0,0,0-3.19,3.26l-2.86-1.15a1.25,1.25,0,0,0-1.61.69L103.61,130a1.38,1.38,0,0,0-.08.27Zm21.56,4.42a5.14,5.14,0,0,1-9.87,1.85,5.36,5.36,0,0,1-.42-1.85,5.29,5.29,0,0,0,.42,2.22,5.14,5.14,0,0,0,9.87-2.22Z"/><path class="cls-12" d="M128.46,120.27a1.16,1.16,0,0,1-.07.64l-1.15,2.87L127,124l1.39-3.45a1.34,1.34,0,0,0,.07-.27Zm7.8,9.27a1.25,1.25,0,0,1-.73,1.32l-2.84,1.22-.12-.32,3-1.27a1.23,1.23,0,0,0,.73-1Zm-3.33,4.82a13.8,13.8,0,0,1-.13,1.93l-.05.35-.09.33.09-.7a15.24,15.24,0,0,0,.18-1.91Zm3.44,4.39a1.16,1.16,0,0,1-.08.64l-1.15,2.87a1.23,1.23,0,0,1-1.6.68l-2.86-1.14a12.67,12.67,0,0,1-3.07,3.17l-.12.1-.24-.19a13.88,13.88,0,0,0,3.43-3.45l2.86,1.14a1.23,1.23,0,0,0,1.6-.68l1.15-2.87A1.38,1.38,0,0,0,136.37,138.75Zm-7.58,9.44a1.24,1.24,0,0,1-.74,1.32l-2.84,1.22a1.25,1.25,0,0,1-1.62-.65l-1.21-2.83a12.94,12.94,0,0,1-4.56.05l-1.15,2.86a1.24,1.24,0,0,1-1.6.69l-2.87-1.15a1.26,1.26,0,0,1-.76-1.34,1.22,1.22,0,0,0,.76,1l2.87,1.15a1.24,1.24,0,0,0,1.6-.69l1.15-2.86a12.94,12.94,0,0,0,4.56-.05l1.21,2.83a1.25,1.25,0,0,0,1.62.65l2.84-1.22a1.21,1.21,0,0,0,.74-.95Zm-16.25-3a12.71,12.71,0,0,1-3.15-3.1l-2.83,1.21a1.25,1.25,0,0,1-1.62-.65l-1.22-2.84a1.18,1.18,0,0,1-.08-.67,1,1,0,0,0,.08.29l1.22,2.85a1.25,1.25,0,0,0,1.62.65l2.83-1.21a13.52,13.52,0,0,0,3.49,3.34l-.22.21Zm-5.4-8.56a12.93,12.93,0,0,1-.17-2.24,13.69,13.69,0,0,0,.23,2.21l.14.7-.13-.31Zm0-4.22-2.86-1.14a1.26,1.26,0,0,1-.76-1.34,1.22,1.22,0,0,0,.76,1l3,1.2-.1.32ZM112.4,124l-1.21-2.84a1.28,1.28,0,0,1-.09-.67,1.71,1.71,0,0,0,.09.3l1.46,3.41-.25-.2Zm5.52,5.82a5.14,5.14,0,0,1,6.75,2.7h0a5,5,0,0,1,.41,1.83,5,5,0,0,0-.41-2.2,5.15,5.15,0,0,0-9.88,2.2,5.17,5.17,0,0,1,3.14-4.58Z"/><path class="cls-3" d="M256.79,70.16l2.84-1.22a1.25,1.25,0,0,1,1.62.65l1.21,2.83a13,13,0,0,1,4.57,0l1.14-2.86a1.25,1.25,0,0,1,1.61-.69L272.65,70a1.25,1.25,0,0,1,.68,1.61l-1.14,2.86a12.8,12.8,0,0,1,3.26,3.18l2.83-1.21a1.25,1.25,0,0,1,1.62.65l1.22,2.84a1.24,1.24,0,0,1-.65,1.63l-2.83,1.21a12.94,12.94,0,0,1,.05,4.56l2.86,1.15a1.24,1.24,0,0,1,.69,1.6L280.09,93a1.25,1.25,0,0,1-1.61.69l-2.86-1.15a12.88,12.88,0,0,1-3.19,3.27l1.22,2.83a1.25,1.25,0,0,1-.65,1.62l-2.84,1.21a1.24,1.24,0,0,1-1.63-.65h0l-1.21-2.83a12.94,12.94,0,0,1-4.56,0l-1.15,2.86a1.24,1.24,0,0,1-1.6.69l-2.87-1.15a1.24,1.24,0,0,1-.69-1.6l1.15-2.86a12.88,12.88,0,0,1-3.27-3.19L251.5,93.9a1.25,1.25,0,0,1-1.62-.65l-1.21-2.84a1.24,1.24,0,0,1,.64-1.62h0l2.83-1.21A12.59,12.59,0,0,1,252.1,83l-2.86-1.14a1.25,1.25,0,0,1-.69-1.61l1.15-2.87a1.23,1.23,0,0,1,1.58-.69h0l2.86,1.14a12.84,12.84,0,0,1,3.19-3.26l-1.21-2.83a1.24,1.24,0,0,1,.64-1.62h0Zm6.08,10.27a5.15,5.15,0,1,0,6.76,2.71h0A5.15,5.15,0,0,0,262.87,80.43Z"/><path class="cls-4" d="M256.79,70.15l2.84-1.21a1.25,1.25,0,0,1,1.62.65l1.21,2.83a13,13,0,0,1,4.57,0l1.14-2.86a1.25,1.25,0,0,1,1.61-.69L272.65,70a1.26,1.26,0,0,1,.76,1.34,1.27,1.27,0,0,0-.76-1l-2.87-1.15a1.25,1.25,0,0,0-1.61.69L267,72.74a13,13,0,0,0-4.57.05L261.25,70a1.25,1.25,0,0,0-1.62-.65l-2.84,1.22a1.2,1.2,0,0,0-.69.77.42.42,0,0,1,0-.27,1.23,1.23,0,0,1,.72-.88Zm15.51,4.37a12.71,12.71,0,0,1,3.15,3.1l2.83-1.21a1.25,1.25,0,0,1,1.62.65l1.22,2.84a1.18,1.18,0,0,1,.08.67,1,1,0,0,0-.08-.29l-1.22-2.85a1.25,1.25,0,0,0-1.62-.65L275.45,78a12.8,12.8,0,0,0-3.26-3.18l-.24-.16.24-.21.11.08Zm5.4,8.56a13,13,0,0,1,.17,2.25,12.66,12.66,0,0,0-.23-2.22l-.12-.68.12.3Zm0,4.21,2.89,1.15a1.26,1.26,0,0,1,.76,1.34,1.22,1.22,0,0,0-.76-1l-2.94-1.17.05-.35Zm-5.34,8.17,1.33,3.1a1.27,1.27,0,0,1,.08.67,1.11,1.11,0,0,0-.08-.3l-1.45-3.39.12-.08Zm-15.94,3.93a1.23,1.23,0,0,1,.07-.63l1.26-3.15.12.08-1.38,3.44A1.11,1.11,0,0,0,256.42,99.39Zm-7.8-9.26a1.24,1.24,0,0,1,.74-1.32l2.88-1.23.08.33-3,1.27a1.21,1.21,0,0,0-.74.95ZM252,85.37a13.34,13.34,0,0,1,.12-2l0-.35.11-.33-.11.7a14.85,14.85,0,0,0-.17,2Zm-3.44-4.45a1.08,1.08,0,0,1,.07-.64l1.15-2.87a1.23,1.23,0,0,1,1.58-.69h0l2.86,1.14a12.67,12.67,0,0,1,3.07-3.17l.12-.09.25.2-.25.17a12.84,12.84,0,0,0-3.19,3.26l-2.9-1.14a1.21,1.21,0,0,0-1.59.66v0l-1.15,2.87a.9.9,0,0,0-.07.27ZM270,85.34a5.15,5.15,0,0,1-9.88,1.85,5.08,5.08,0,0,1-.41-1.84,5.08,5.08,0,0,0,.41,2.21A5.15,5.15,0,0,0,270,85.34Z"/><path class="cls-13" d="M273.41,70.94a1.16,1.16,0,0,1-.08.64l-1.14,2.86-.25.22,1.39-3.45A1.38,1.38,0,0,0,273.41,70.94Zm7.79,9.26a1.24,1.24,0,0,1-.73,1.33l-2.83,1.21-.13-.32,3-1.26a1.25,1.25,0,0,0,.73-1ZM277.87,85a12.43,12.43,0,0,1-.12,1.93l-.06.35-.09.33.09-.7A12.23,12.23,0,0,0,277.87,85Zm3.44,4.39a1.26,1.26,0,0,1-.07.64l-1.15,2.87a1.22,1.22,0,0,1-1.6.68h0l-2.86-1.14a13,13,0,0,1-3.06,3.18l-.12.09-.24-.19a14,14,0,0,0,3.42-3.45l2.86,1.14a1.23,1.23,0,0,0,1.61-.67h0l1.15-2.87a1.34,1.34,0,0,0,.07-.27Zm-7.58,9.44a1.26,1.26,0,0,1-.73,1.33l-2.84,1.21a1.24,1.24,0,0,1-1.63-.65h0l-1.21-2.83a12.94,12.94,0,0,1-4.56,0l-1.14,2.86a1.25,1.25,0,0,1-1.61.69l-2.87-1.15a1.24,1.24,0,0,1-.76-1.34,1.22,1.22,0,0,0,.76,1L260,101.1a1.25,1.25,0,0,0,1.61-.69l1.14-2.86a12.94,12.94,0,0,0,4.56,0l1.21,2.83a1.24,1.24,0,0,0,1.63.65h0L273,99.81a1.25,1.25,0,0,0,.73-1Zm-16.25-3a13.1,13.1,0,0,1-3.15-3.11l-2.83,1.21a1.25,1.25,0,0,1-1.62-.65l-1.21-2.84a1.28,1.28,0,0,1-.09-.67,1.71,1.71,0,0,0,.09.3l1.21,2.84a1.25,1.25,0,0,0,1.62.65l2.83-1.21a13.6,13.6,0,0,0,3.5,3.35l-.23.21Zm-5.39-8.57a12,12,0,0,1-.17-2.24,11.78,11.78,0,0,0,.23,2.22l.13.69-.13-.3Zm0-4.22-2.85-1.14a1.24,1.24,0,0,1-.76-1.34,1.22,1.22,0,0,0,.76,1l3,1.19-.11.32Zm5.26-8.42-1.21-2.83a1.18,1.18,0,0,1-.08-.67,1.11,1.11,0,0,0,.08.3l1.46,3.4Zm5.52,5.82a5.14,5.14,0,0,1,6.76,2.71A5.35,5.35,0,0,1,270,85a5.38,5.38,0,0,0-.41-2.2,5.15,5.15,0,0,0-9.84,2.2,5.15,5.15,0,0,1,3.12-4.57Z"/><path class="cls-10" d="M221.89,58.93l.77.31-.83,2.46,1,.46L224.2,60l.72.4-1.12,2.34c.38.23.74.46,1.1.71l1.68-2,.66.49-1.43,2.17.82.7L228.54,63l.59.57-1.68,2a10.76,10.76,0,0,1,.87,1l2.14-1.48.51.65-2,1.71c.22.29.42.59.61.89l2.31-1.21.42.71-2.14,1.47c.21.38.41.77.59,1.16l2.45-.87.33.75-2.33,1.17c.13.33.25.67.36,1l2.54-.57.23.79-2.45.87c.1.42.19.85.27,1.28l2.59-.21.12.81-2.55.52c0,.36.07.72.09,1.07l2.6.11V78l-2.59.2a9.58,9.58,0,0,1-.06,1.31L235,80l-.1.82-2.59-.15c-.05.35-.12.7-.19,1l2.48.78-.2.8-2.56-.47c-.12.41-.25.83-.4,1.24l2.35,1.11-.31.76L231,85.12l-.46,1,2.19,1.4-.4.72L230,87.09c-.23.38-.46.74-.71,1.1l2,1.68-.49.66-2.17-1.43c-.23.28-.46.55-.7.82l1.76,1.91-.57.59-2-1.69a10.66,10.66,0,0,1-1,.88l1.48,2.14-.65.5-1.72-1.94c-.29.21-.59.42-.89.61l1.21,2.31-.71.42-1.47-2.14c-.38.21-.77.41-1.17.59l.88,2.45-.75.33-1.17-2.33c-.33.13-.67.25-1,.36l.57,2.54-.79.23-.87-2.46c-.43.11-.85.2-1.28.28l.21,2.59-.81.12-.52-2.55q-.54.06-1.08.09l-.1,2.59h-.83l-.2-2.59a8.22,8.22,0,0,1-1.31-.07l-.46,2.56-.82-.1.15-2.59c-.35-.06-.7-.12-1.05-.2l-.78,2.48-.8-.19.47-2.56c-.41-.12-.83-.25-1.24-.4L207.51,97l-.76-.31.82-2.47c-.33-.14-.66-.29-1-.46L205.2,96l-.72-.4,1.12-2.34c-.38-.23-.74-.47-1.1-.71l-1.68,2-.66-.5,1.43-2.16-.82-.7L200.86,93l-.59-.57,1.69-2a10.66,10.66,0,0,1-.88-1l-2.14,1.48-.51-.65,1.95-1.72c-.21-.29-.42-.59-.61-.89l-2.31,1.21L197,88.1l2.14-1.47c-.21-.38-.41-.77-.59-1.17l-2.45.88-.33-.75,2.33-1.17c-.13-.33-.25-.67-.36-1l-2.54.57-.23-.8,2.46-.87c-.11-.42-.2-.84-.28-1.27l-2.59.21-.12-.81L197,80c0-.35-.07-.71-.09-1.07l-2.6-.11V78l2.59-.2a8.22,8.22,0,0,1,.07-1.31L194.43,76l.1-.82,2.59.15a3.94,3.94,0,0,1,.2-1l-2.48-.78.19-.8,2.56.47c.12-.41.25-.83.4-1.24l-2.35-1.11L196,70l2.47.82c.14-.33.29-.65.46-1l-2.2-1.39.4-.72,2.34,1.12c.23-.38.46-.74.71-1.1l-2-1.68.5-.66,2.16,1.43c.23-.28.46-.55.7-.82l-1.76-1.91.57-.59,2,1.68a12.23,12.23,0,0,1,1-.87l-1.48-2.14.65-.51,1.72,2c.29-.22.59-.42.89-.61l-1.21-2.31.71-.42L206,62.47c.38-.21.77-.41,1.17-.59l-.88-2.45.75-.33,1.17,2.33c.33-.13.67-.25,1-.36l-.57-2.54.8-.23.86,2.45c.43-.1.85-.19,1.28-.27l-.21-2.59.81-.12.53,2.55c.35,0,.71-.07,1.07-.09l.11-2.6h.82l.2,2.59a9.58,9.58,0,0,1,1.31.06l.46-2.55.82.1-.15,2.59c.35,0,.7.12,1.05.19l.78-2.48.8.2-.47,2.56c.41.12.83.25,1.24.4l1.11-2.35ZM214.7,74.77A3.22,3.22,0,1,0,217.92,78a3.22,3.22,0,0,0-3.22-3.23h0Zm2.24-2.37a6,6,0,0,1,2.41,1.76l6.85-2.93a13.35,13.35,0,0,0-15.15-6.07L214,72a6,6,0,0,1,3,.39Zm3.74,4.87a6.05,6.05,0,0,1-2.15,5.41l2.93,6.84a13.33,13.33,0,0,0,6.07-15.14l-6.85,2.93ZM215.42,84a6,6,0,0,1-5.37-2.16l-6.84,2.94a13.3,13.3,0,0,0,15.14,6.06Zm-6.7-5.26a6.05,6.05,0,0,1,2.15-5.41l-2.93-6.85a13.32,13.32,0,0,0-6.06,15.15Z"/><path class="cls-12" d="M222.61,59.22h0l-.87,2.61h0Zm2.24,1.11h.07l-1.18,2.48h-.07Zm2.31,1.55h.08l-1.5,2.28-.08-.06,1.5-2.27Zm1.89,1.65.08.08-1.76,2.07-.08-.09Zm1.84,2.09-2,1.79.08.11,2-1.79Zm1.4,2.1.07.12-2.16,1.49-.12-.11,2.21-1.5Zm1.24,2.49.06.14-2.34,1.18-.09-.13Zm.81,2.39v.15l-2.47.88v-.16Zm.55,2.73v.17l-2.55.53v-.17Zm.18,2.53V78l-2.59.2v1.14c0-.44.06-.88.06-1.31l2.59-.2ZM235,80h0l-.1.82-2.59-.15c-.05.29-.1.59-.16.89v.17l-.05.15c.08-.46.18-.92.25-1.39l2.59.16Zm-.42,2.49h0l-.2.8-2.56-.47c-.1.36-.22.73-.35,1.09l-.05.15-.1.12c.16-.46.35-1,.5-1.54l2.56.48.16-.64Zm-.83,2.66h.06l-.31.76-2.5-.79c-.13.29-.26.57-.4.84l-.07.14-.11.09c.18-.41.39-.82.58-1.24l2.46.82.25-.62Zm-1,2.29h.07l-.4.72L230,87.09c-.2.34-.42.67-.64,1l-.08.11h-.13c.28-.45.58-.87.85-1.32L232.32,88l.33-.6Zm-1.48,2.36.08.07-.49.66-2.17-1.43c-.2.25-.41.49-.62.73l-.08.09h-.15c.28-.33.57-.65.85-1l2.17,1.42.41-.55Zm-1.6,1.94.08.09-.57.59-2-1.69c-.29.29-.59.56-.89.82l-.08.06h-.15c.39-.32.76-.65,1.12-1l2,1.69.49-.51Zm-2,1.89-.58.45-1.72-1.94c-.33.24-.67.48-1,.69l.13.09h.07c.28-.18.55-.37.82-.57l1.61,1.9.65-.5-.07-.12Zm-2,1.47.07.13-.71.42-1.47-2.14-1.11.57h-.06l-.1-.13a11.6,11.6,0,0,0,1.27-.64L225,95.46l.64-.38ZM223,96.4l-.7.3-1.17-2.32c-.33.13-.67.25-1,.36h-.07l.07.15h0l1-.35,1.17,2.33.75-.33Zm-2.35.89v.16l-.79.23L219,95.22c-.42.11-.84.2-1.27.28v-.17c.43-.08.85-.17,1.28-.28l.87,2.45.75-.21Zm-2.7.63-.8.12-.52-2.55q-.54.06-1.08.09l-.1,2.59h-.83l-.2-2.59a8.22,8.22,0,0,1-1.31-.07l-.46,2.56-.81-.1v.17l.82.1.46-2.56c.44,0,.87.06,1.31.07l.2,2.59h.83l.1-2.59a6.56,6.56,0,0,0,1.08-.09l.52,2.55.81-.12v-.17Zm-6-2.35c-.35-.06-.69-.12-1-.2l-.78,2.48-.8-.19v-.17h0l.73.18.9-2.47c.35.08.7.14,1.05.2v.17Zm-2.18-.48h0v-.15c-.38-.12-.86-.27-1.3-.43l-1.11,2.36-.71-.29-.05.15.76.31,1.11-2.35c.4.14.81.27,1.21.39Zm-2.31-.84c-.32-.14-.62-.28-.92-.44L205.2,96l-.72-.4.07-.13.65.36,1.4-2.2c.35.18.7.35,1.06.5l-.09.13h-.11Zm-2-1h.06l.12-.09c-.37-.24-.82-.51-1.22-.8l-1.68,2-.58-.44-.08.11.66.5,1.68-2,1,.67Zm-2-1.41c-.26-.21-.51-.42-.75-.64L200.8,93l-.59-.57.08-.1.08.08.43.42,2-1.79a8.55,8.55,0,0,0,1,.8l-.16.07-.07-.06Zm-1.64-1.51c-.28-.29-.55-.59-.8-.89l-2.14,1.48-.51-.65.08-.07.43.55L201,89.27c.33.39.68.76,1,1.13h-.15l-.08-.09Zm-1.58-1.89c-.18-.25-.36-.51-.53-.78l-2.31,1.21-.42-.71h.07l.35.59,2.31-1.21c.24.38.5.73.76,1.1h-.14l-.09-.12Zm-1.18-1.88c-.19-.34-.37-.69-.53-1l-2.45.88-.32-.76h.06l.06.15.2.47,2.45-.88a11.74,11.74,0,0,0,.73,1.41l-.13-.07-.07-.13Zm-1-2.23c-.11-.28-.21-.57-.31-.86l-2.54.57-.23-.8H195l.05.16.13.47,2.54-.56c.11.34.23.67.36,1l.11.29-.11-.12v-.15Zm-.66-2.11c-.09-.37-.17-.75-.24-1.12l-2.59.21-.12-.81h0l.09.65,2.59-.21c.1.54.23,1.06.35,1.59l-.07-.14v-.16Zm-.4-2.44a3.91,3.91,0,0,0-.07-.9l-2.6-.11V78h0v.65l2.6.11a9.45,9.45,0,0,0,.09,1.07v0Zm0-3.34L194.43,76v-.17l2.57.46v.15Zm.35-2.18-2.51-.78v-.16l2.5.78v.16Zm.69-2.33-2.4-1.13.06-.15,2.4,1.14Zm.86-2-2.22-1.41.07-.13L199,69.81l-.1.09Zm1.31-2-2.06-1.75.08-.1.08.07,2,1.67-.07.11Zm1.37-1.72.08-.09-1.75-1.9-.08-.08-.08.08,1.83,2Zm1.76-1.67-1.55-2.24.08-.06,1.55,2.25h-.08Zm1.77-1.28-1.27-2.44h.07l1.27,2.43h-.07ZM207.24,62l-.93-2.59h.05l.06.16.87,2.44h0Zm2-.79-.61-2.7h0l.6,2.7ZM220,58.31h0l-.47,2.56V61h0l.5-2.72Zm-5.3,16.46a3.23,3.23,0,0,1,3.22,3.13v-.08a3.22,3.22,0,0,0-6.44,0v.08a3.2,3.2,0,0,1,3.21-3.13Zm11.42-3.67.08.13.15.11-.15-.28a13.34,13.34,0,0,0-15.28-6l.13.13h.06a13.33,13.33,0,0,1,15,6Zm-5.4,6.8a6,6,0,0,1-2.14,4.69h-.06l-.1-.09A6,6,0,0,0,220.29,80a6.16,6.16,0,0,0,.43-2.16Zm7.32,0a13.24,13.24,0,0,0-.52-3.54l-6.84,2.93h0v-.15l6.88-3a13.37,13.37,0,0,1,.52,3.72ZM215.42,84l3,7h.06l-3.06-7.15a6.14,6.14,0,0,1-3-.39A6.05,6.05,0,0,1,210,81.69l-7,3,.14.12L210,81.87A6,6,0,0,0,215.42,84Zm-6.71-5.42c0-.22,0-.43,0-.65v.65Zm2.17-5.2-2.94-6.86a13.37,13.37,0,0,0-6.58,11.4,13.35,13.35,0,0,1,6.58-11.57l3,7.1Z"/><path class="cls-11" d="M221.89,58.93l.77.31-.1.13-.67-.27-1.11,2.35c-.41-.15-.89-.3-1.3-.42l.06-.15c.4.11.85.26,1.24.4Zm0,2.78-.1.12c.33.15.75.34,1.06.51l1.4-2.2.59.33.13-.1-.72-.4-1.4,2.19a9.54,9.54,0,0,0-1-.45Zm2,1c.36.21.79.5,1.1.71l1.68-2,.66.49-.15.06-.51-.38-1.68,2c-.35-.24-.85-.56-1.23-.78l.13-.1Zm2,1.39-.15.06,1,.81,1.91-1.76.43.42h.16l-.59-.57-1.91,1.76c-.21-.19-.55-.49-.82-.7Zm1.63,1.49c.31.32.6.65.88,1l2.14-1.48.51.65h-.16l-.35-.45-2.14,1.48c-.28-.33-.72-.82-1-1.13ZM229,67.45c.19.26.46.65.61.89l2.31-1.21.42.71-.14-.07-.28-.47-2.31,1.21c-.19-.3-.55-.81-.76-1.1H229Zm1.79,3,2.45-.87.33.75-.13-.11-.2-.47-2.45.88c-.23-.49-.49-1-.73-1.43l.13.09c.22.38.42.77.6,1.16Zm.51,1.19c.1.29.21.58.3.87l2.54-.57.23.79-.09-.14-.14-.48-2.54.57c-.11-.34-.23-.68-.36-1l-.1-.3.1.13.06.14Zm.65,2.12c.1.37.17.74.24,1.12l2.59-.21.12.81v-.16l-.07-.48-2.59.21c-.08-.43-.17-.85-.27-1.28l-.07-.32.07.15v.16Zm.42,2.41c0,.3.06.6.07.91l2.6.1V78h0v-.65l-2.6-.11a9.45,9.45,0,0,0-.09-1.07v0Zm0,3.35L235,80v.16l-2.54-.45v-.17ZM232,81.7l2.49.78-.08.15L232,81.88l.05-.16Zm-.67,2.35,2.35,1.11-.11.12-2.34-1.11.1-.12Zm-.88,2,2.19,1.4-.14.08-2.18-1.38.13-.1Zm-1.26,2.1,2,1.68h-.16l-2-1.66h.14Zm-1.38,1.72,1.76,1.92h-.16l-1.75-1.91Zm-1.76,1.7,1.48,2.14-.15-.06L226,91.56h.09Zm-1.78,1.31,1.21,2.31-.14-.09-1.2-2.31.13.09Zm-2.14,1.18.88,2.45-.1-.13L222.11,94l.1.13Zm-2,.81.57,2.54-.08-.15-.56-2.54.07.15Zm-8.29,3.25L212,95.7h0l-.08,2.3v.17Zm-2.48-.5.48-2.56v-.15l-.47,2.54-.06.17Zm-2.64-.92.81-2.47.11-.13-.82,2.46-.1.14Zm-2.27-1.13,1.12-2.35.12-.08-1.11,2.33-.13.1ZM202.16,94l1.43-2.16.16-.07L202.31,94l-.15,0Zm-1.89-1.67,1.68-2h.15l-1.67,2Zm-1.84-2.12,1.95-1.73h.15l-1.94,1.71h-.16ZM197,88.14l2.14-1.47.14.07-2.13,1.47Zm-1.22-2.52,2.32-1.16.11.12-2.31,1.16-.12-.12Zm-.81-2.4,2.45-.86.08.14-2.44.86Zm-.53-2.74L197,80v.16l-2.54.53-.05-.16Zm-.15-2.36V78l2.59-.2a8.7,8.7,0,0,1,.05-1.14v-.34c-.05.55-.09,1.09-.1,1.65l-2.59.2Zm.1-2.14.1-.82,2.59.15a5.47,5.47,0,0,1,.19-1l.08-.16c-.08.35-.22,1-.27,1.38l-2.59-.15-.06.48V76Zm.41-2.5.19-.8,2.56.47c.09-.32.26-.87.4-1.24l.11-.12c-.15.41-.39,1.12-.51,1.53L195,72.85l-.12.48-.07.15Zm.8-2.68.4-.8,2.47.82c.11-.25.3-.68.45-1l.13-.07c-.18.31-.44.89-.58,1.22L196,70.21l-.19.47-.12.12Zm1-2.31.4-.72,2.34,1.12c.18-.31.48-.78.71-1.1h.15c-.25.35-.63.93-.86,1.31L197,68l-.26.47-.14.08Zm1.47-2.38.5-.66,2.16,1.43.69-.82h.17c-.24.26-.63.71-.86,1l-2.16-1.43-.34.45h-.16Zm1.6-2,.57-.59,2,1.68a12.74,12.74,0,0,1,1-.87h.16c-.34.28-.81.7-1.12,1l-2-1.69-.4.42Zm2-1.92.15.05.5-.39,1.72,2,1-.7-.13-.08c-.29.18-.64.43-.89.61l-1.72-2-.65.51Zm2.05-1.48.71-.42L206,62.47c.35-.19.8-.42,1.16-.59l.11.12c-.39.18-.89.43-1.27.64l-1.47-2.14-.57.34-.14-.09Zm2.47-1.32.1.12.65-.28,1.17,2.33c.33-.13.74-.27,1.08-.38l-.07-.15c-.32.1-.7.24-1,.36L207,59.06l-.75.33Zm2.36-.9.8-.23.86,2.45c.42-.1.84-.19,1.27-.27v.17c-.43.08-.85.17-1.28.28l-.86-2.46-.72.21-.08-.15Zm2.74-.47.8-.12.53,2.55c.35,0,.71-.07,1.07-.09l.11-2.59h.82l.2,2.59a9.58,9.58,0,0,1,1.31.06l.46-2.55.81.1V57.8l-.82-.1-.46,2.55c-.44,0-.87-.06-1.31-.06l-.2-2.59h-.82l-.11,2.6a9.45,9.45,0,0,0-1.07.09l-.53-2.55-.81.12V58Zm6,2.35v.17c.35.05.7.12,1.05.2l.78-2.48.74.18.06-.16-.8-.2-.78,2.48-1-.19ZM217.82,78a3.22,3.22,0,0,1-6.43,0v.08a3.22,3.22,0,1,0,6.44,0h0V78Zm-1-5.68a6,6,0,0,1,2.41,1.76l6.85-2.93.15.11-7,3a6.05,6.05,0,0,0-5.41-2.15L210.92,65l.12.13L214,72a6,6,0,0,1,3,.39ZM220.6,78a8.42,8.42,0,0,0-.08-1v.16a5.48,5.48,0,0,1,0,.81Zm-2.19,4.56,2.93,6.84A13.35,13.35,0,0,0,228,78.09a13.35,13.35,0,0,1-6.58,11.57l-3-7.11.11.09Zm-15.24,2.24-.09-.14-.15-.11.16.29A13.32,13.32,0,0,0,218.35,91h.13l-.13-.14h-.06a13.32,13.32,0,0,1-15-6ZM208.56,78a6,6,0,0,1,2.19-4.54l.11-.09-.11-.08h-.05A6,6,0,0,0,208.56,78Zm-7.32,0a13.31,13.31,0,0,0,.52,3.55l6.84-2.93v.16l-6.88,2.94a13.13,13.13,0,0,1-.36-3.64Z"/><path class="cls-14" d="M198.92,147.12l1.07.43L198.84,151c.46.21.92.42,1.36.65l2-3.09,1,.56-1.57,3.3c.53.31,1.05.65,1.55,1l2.36-2.79.92.7-2,3c.4.32.78.65,1.15,1l2.69-2.47.83.8-2.37,2.78c.43.44.84.9,1.23,1.37l3-2.09.71.92L209,159.06c.3.41.58.82.86,1.24l3.24-1.69.59,1-3,2.07c.3.54.58,1.08.84,1.64l3.44-1.24.45,1.07-3.27,1.64c.19.47.36.94.51,1.42l3.57-.8.32,1.11L213,167.77c.15.6.28,1.19.39,1.8l3.64-.3.17,1.14-3.58.74c0,.5.1,1,.12,1.5l3.65.16V174l-3.64.29a12.67,12.67,0,0,1-.09,1.84l3.59.65-.14,1.15-3.64-.22c-.08.5-.17,1-.28,1.49l3.49,1.09-.28,1.12-3.59-.66q-.26.87-.57,1.74L215.6,184l-.43,1.08-3.47-1.15c-.2.46-.42.91-.65,1.36l3.09,2-.56,1-3.3-1.57c-.31.53-.65,1-1,1.54l2.79,2.36-.69.93-3-2c-.32.39-.64.78-1,1.15l2.47,2.69-.8.83-2.78-2.37c-.44.43-.9.84-1.36,1.23l2.08,3-.91.72-2.46-2.8c-.41.29-.82.58-1.24.85l1.69,3.24-1,.6-2.07-3c-.54.3-1.08.58-1.64.84L200.6,200l-1.07.46-1.64-3.27c-.46.18-.94.35-1.42.51l.8,3.57-1.11.32L195,198.13q-.88.23-1.8.39l.3,3.64-1.14.16-.74-3.58c-.5.06-1,.1-1.5.13l-.15,3.65h-1.16l-.29-3.64q-.92,0-1.83-.09L186,202.4l-1.14-.14.21-3.65c-.49-.07-1-.16-1.48-.27l-1.1,3.49-1.12-.28L182,198c-.59-.16-1.17-.35-1.75-.56l-1.56,3.3-1.08-.43,1.16-3.47c-.47-.2-.92-.41-1.37-.64l-2,3.08-1-.56,1.57-3.29c-.53-.32-1-.65-1.54-1l-2.36,2.79-.93-.7,2-3.05a15.23,15.23,0,0,1-1.15-1l-2.69,2.47-.83-.81,2.37-2.77c-.43-.44-.84-.9-1.23-1.37l-3,2.08-.72-.91,2.74-2.42c-.3-.41-.59-.82-.86-1.25l-3.24,1.7-.6-1,3-2.08c-.3-.53-.58-1.08-.84-1.63l-3.44,1.23-.46-1.06,3.27-1.64c-.18-.47-.35-.94-.5-1.42l-3.57.8-.32-1.12,3.44-1.22c-.15-.59-.28-1.19-.38-1.79l-3.65.3-.16-1.15,3.58-.73c-.06-.5-.1-1-.13-1.51l-3.64-.15v-1.16l3.63-.28a11.42,11.42,0,0,1,.1-1.84l-3.59-.65.13-1.15,3.65.22c.07-.5.16-1,.27-1.49l-3.48-1.09.27-1.12,3.6.66c.16-.58.35-1.16.56-1.74L162,163.8l.43-1.07,3.47,1.15c.2-.46.42-.92.64-1.36l-3.08-2,.56-1,3.3,1.57c.31-.53.64-1,1-1.54l-2.78-2.36.69-.93,3.05,2a13.49,13.49,0,0,1,1-1.15l-2.47-2.69.8-.83,2.77,2.37c.45-.43.9-.84,1.37-1.23l-2.08-3,.91-.72,2.43,2.73c.4-.3.82-.58,1.24-.85l-1.7-3.24,1-.6,2.07,3c.53-.3,1.08-.58,1.63-.83l-1.25-3.4,1.06-.45,1.64,3.27c.47-.18.94-.35,1.42-.51l-.8-3.57,1.12-.32,1.22,3.45c.59-.15,1.19-.28,1.79-.39l-.3-3.64,1.15-.16.73,3.57c.5,0,1-.09,1.51-.12l.15-3.65h1.16l.28,3.64A12.6,12.6,0,0,1,191,149l.65-3.59,1.15.14-.22,3.64c.5.08,1,.17,1.49.28l1.09-3.49,1.13.28-.67,3.59c.58.17,1.17.36,1.75.57l1.56-3.31Zm-10.11,22.27a4.52,4.52,0,1,0,4.52,4.52,4.52,4.52,0,0,0-4.52-4.52Zm3.15-3.34a8.51,8.51,0,0,1,3.39,2.48l9.62-4.12a18.74,18.74,0,0,0-21.29-8.52l4.12,9.62a8.44,8.44,0,0,1,4.16.54Zm5.25,6.84a8.33,8.33,0,0,1-.54,4.16,8.44,8.44,0,0,1-2.48,3.39l4.12,9.62a18.74,18.74,0,0,0,8.53-21.29l-9.63,4.12Zm-7.38,9.42a8.54,8.54,0,0,1-7.55-3l-9.62,4.11A18.7,18.7,0,0,0,194,191.93l-4.12-9.62Zm-9.42-7.39a8.48,8.48,0,0,1,3-7.55l-4.12-9.62a18.75,18.75,0,0,0-8.5,21.25Z"/><path class="cls-15" d="M199.92,147.53H200l-1.22,3.68h-.07l1.22-3.67Zm3.16,1.56h.09l-1.66,3.49h-.09Zm3.25,2.18.1.08-2.11,3.2-.1-.08ZM209,153.6l.11.1-2.47,2.9-.11-.11Zm2.58,2.93-2.83,2.52.1.14,2.84-2.51-.11-.15Zm2,2.94.1.17-3,2.09-.17-.14,3.11-2.12Zm1.74,3.51.08.2-3.28,1.65-.13-.19,3.33-1.66Zm1.15,3.35.06.22L213,167.78l-.07-.22,3.48-1.23Zm.77,3.85v.23l-3.59.74v-.23l3.58-.74Zm.25,3.54V174l-3.64.29a12.31,12.31,0,0,1-.07,1.6v0q.08-.91.09-1.83l3.64-.29Zm-.17,3h0l-.14,1.15-3.64-.22c-.07.42-.14.84-.23,1.26v.23l-.08.21c.12-.64.26-1.29.36-1.94l3.64.22.11-.92Zm-.6,3.5h.06l-.28,1.12-3.59-.66c-.15.51-.31,1-.49,1.54l-.08.21-.14.17c.23-.66.5-1.43.71-2.17l3.59.67.22-.9Zm-1.2,3.78h.08l-.43,1.08-3.47-1.15c-.18.4-.36.79-.55,1.18l-.1.18-.17.13c.27-.57.56-1.15.82-1.74l3.47,1.16.35-.87ZM214,187.19l.1.07-.56,1-3.3-1.57c-.28.47-.58.94-.89,1.39l-.11.16-.2.06c.41-.62.82-1.21,1.2-1.85l3.3,1.57.46-.84Zm-2,3.32.11.09-.69.93-3-2c-.28.35-.57.69-.87,1l-.11.12h-.21c.39-.47.8-.92,1.19-1.4l3,2,.58-.78Zm-2.25,2.72.11.13-.8.83-2.78-2.37q-.61.6-1.26,1.14l-.11.09-.21-.06c.55-.45,1.07-.92,1.58-1.41L209,194l.69-.72Zm-2.86,2.67-.8.63-2.43-2.74c-.46.34-.94.68-1.44,1l.2.13.09-.07c.39-.25.77-.52,1.15-.79l2.43,2.73.91-.72-.11-.15ZM204,198l.09.18-1,.6-2.07-3q-.77.43-1.56.81h-.08l-.14-.18a19.78,19.78,0,0,0,1.78-.9l2.07,3,.9-.54Zm-3.45,1.83-1,.43L197.91,197c-.46.18-.94.35-1.42.5h-.1l.1.21h0c.47-.15.92-.31,1.37-.49l1.64,3.27,1.07-.46-.08-.21Zm-3.3,1.25.05.23-1.11.31L195,198.13c-.59.15-1.18.28-1.78.38v-.23q.92-.17,1.8-.39l1.22,3.44,1.06-.3Zm-3.79.89-1.13.16-.74-3.58c-.5.06-1,.1-1.5.13l-.15,3.64h-1.16l-.29-3.64a11.23,11.23,0,0,1-1.83-.1l-.66,3.6-1.13-.14v.24l1.14.14.66-3.59q.92.07,1.83.09l.29,3.64H190l.15-3.65a12.65,12.65,0,0,0,1.5-.13l.74,3.58,1.15-.16V202Zm-8.4-3.31q-.74-.1-1.47-.27l-1.09,3.49-1.13-.28v-.23h.06l1,.25,1.09-3.48c.49.11,1,.2,1.48.27v.24ZM182,198h0l.08-.21c-.55-.17-1.22-.37-1.83-.59l-1.56,3.3-1-.4-.07.21,1.08.43,1.56-3.3c.57.2,1.13.39,1.7.55Zm-3.25-1.18c-.44-.19-.87-.4-1.3-.61l-2,3.08-1-.56.09-.19.92.51,2-3.08c.5.25,1,.48,1.5.7l-.13.18h-.07ZM176,195.37l.1.06.17-.13c-.52-.33-1.15-.71-1.72-1.11L172.14,197l-.82-.61-.11.16.93.7,2.36-2.79c.47.33,1,.64,1.45.94Zm-2.83-2a11.06,11.06,0,0,1-1-.89L169.43,195l-.83-.81.11-.13.12.12.6.58,2.69-2.48a11.42,11.42,0,0,0,1.37,1.13l-.22.09-.1-.08Zm-2.31-2.12c-.39-.4-.76-.82-1.12-1.25l-3,2.08-.72-.91.12-.1.6.77,3-2.08c.47.56,1,1.07,1.45,1.59h-.21l-.12-.12Zm-2.21-2.65c-.26-.36-.51-.72-.75-1.1l-3.24,1.7-.6-1,.11-.08.49.83,3.24-1.7c.34.53.71,1,1.07,1.55h-.2l-.12-.17ZM166.93,186c-.26-.48-.51-1-.74-1.46l-3.44,1.23-.46-1.06h.09l.09.2.28.66,3.44-1.23a18.65,18.65,0,0,0,1,2l-.19-.1-.1-.18Zm-1.45-3.13c-.15-.4-.29-.81-.42-1.22l-3.57.8-.32-1.12h.06l.07.23.19.67,3.57-.8c.15.48.32,1,.5,1.42l.15.41-.15-.17-.08-.2Zm-.92-3c-.13-.52-.24-1-.33-1.57l-3.65.3-.16-1.15h0l.13.91,3.65-.3c.13.76.31,1.49.49,2.24l-.11-.2-.05-.23Zm-.59-3.39c0-.42-.07-.84-.1-1.27l-3.64-.15v-1.16h0v.92l3.64.15a12.82,12.82,0,0,0,.13,1.51l.06.47-.06-.23v-.24Zm0-4.69-3.61-.66v-.23l3.61.65Zm.48-3.06-3.52-1.11v-.22l3.53,1.1-.06.23Zm1-3.28L162,163.8l.08-.2,3.37,1.59-.07.21Zm1.19-2.86-3.11-2,.1-.18,3.16,2-.15.13Zm1.85-2.87-2.89-2.45.11-.15.11.1,2.77,2.35-.1.15Zm1.93-2.41.11-.12L168,154.46l-.11-.12-.11.12,2.57,2.8Zm2.46-2.34-2.17-3.16.11-.08,2.18,3.16Zm2.5-1.81-1.78-3.42.09-.06,1.79,3.42-.1.06Zm3-1.64L177,147.82h.07l.08.22,1.23,3.43h0Zm2.86-1.12-.85-3.79h0Zm15-4.09h0l-.67,3.59v.23h0l.71-3.82Zm-7.42,23.13a4.51,4.51,0,0,1,4.52,4.39v-.11a4.52,4.52,0,0,0-9,0v.11a4.54,4.54,0,0,1,4.52-4.39Zm16-5.17.12.2.21.15-.21-.4a18.74,18.74,0,0,0-21.48-8.47l.19.19h.09a18.72,18.72,0,0,1,21.08,8.36Zm-7.57,9.57a8.49,8.49,0,0,1-3,6.59l-.08.07-.15-.13a8.48,8.48,0,0,0,3.24-6.53Zm10.28,0a19.25,19.25,0,0,0-.73-5l-9.62,4.13h0v-.21l9.67-4.15a18.51,18.51,0,0,1,.73,5.23Zm-17.73,8.55,4.21,9.84h.09l-4.3-10.05a8.48,8.48,0,0,1-7.55-3l-9.83,4.21.21.15,9.62-4.11a8.54,8.54,0,0,0,7.55,3Zm-9.44-7.62a6.91,6.91,0,0,1,0-.91,4.54,4.54,0,0,0,.06.9l.05.47-.05-.22v-.24Zm3-7.3-4.12-9.64a18.75,18.75,0,0,0-9.25,16,18.77,18.77,0,0,1,9.25-16.26l4.27,10Z"/><path class="cls-16" d="M198.92,147.12l1.07.43-.14.19-.93-.38-1.56,3.31c-.58-.21-1.25-.42-1.84-.59l.09-.22c.56.16,1.2.37,1.75.57l1.56-3.31Zm-.08,3.91-.14.18c.47.2,1.06.47,1.5.7l2-3.09.83.46.18-.14-1-.56-2,3.09c-.38-.2-.92-.45-1.36-.64Zm2.76,1.41c.51.29,1.11.7,1.55,1l2.36-2.79.92.7-.21.08-.71-.54-2.36,2.79c-.49-.34-1.2-.79-1.73-1.1l.18-.14Zm2.83,2-.21.07c.39.32,1,.82,1.35,1.14l2.69-2.47.61.59h.22l-.83-.8-2.69,2.47C205.28,155.17,204.8,154.76,204.43,154.44Zm2.29,2.08c.4.4.91,1,1.24,1.37l3-2.08.71.91-.22-.05L211,156l-3,2.08c-.4-.47-1-1.15-1.45-1.59h.21Zm2.22,2.62c.27.37.64.92.86,1.24l3.24-1.69.59,1-.2-.1-.39-.65-3.24,1.7c-.28-.43-.78-1.14-1.07-1.54h.21Zm2.51,4.25,3.45-1.24.45,1.07-.17-.15-.28-.67-3.45,1.23c-.32-.69-.69-1.34-1-2l.2.13c.3.53.58,1.08.83,1.64Zm.71,1.67c.15.4.3.81.43,1.22l3.57-.8.32,1.11-.13-.2-.19-.67-3.57.8c-.15-.48-.32-1-.51-1.42l-.14-.42.14.18Zm.93,3c.13.52.24,1,.33,1.58l3.64-.3.17,1.14-.07-.22-.1-.68-3.64.3q-.16-.9-.39-1.8l-.09-.45.09.21.06.22Zm.58,3.4c.05.42.08.84.1,1.26l3.65.16V174h0v-.91l-3.65-.16a9.48,9.48,0,0,0-.12-1.5v0Zm0,4.7,3.59.65-.06.23-3.57-.65v-.23Zm-.47,3.07,3.49,1.09-.11.2-3.46-1.08.08-.21Zm-1,3.29,3.4,1.48-.16.17-3.29-1.55.14-.18ZM211,185.37l3.09,2-.2.11-3.06-1.94.17-.13Zm-1.77,2.94,2.79,2.36-.22.05L209,188.38l.2-.07Zm-1.93,2.43,2.47,2.69h-.22l-2.46-2.67Zm-2.47,2.38,2.08,3-.22-.07-2.08-3,.22.06Zm-2.5,1.84L204,198.2l-.19-.13-1.69-3.23Zm-3,1.66,1.24,3.44-.15-.18-1.24-3.44Zm-2.89,1.13.8,3.58-.1-.22-.8-3.57Zm-11.64,4.58.2-3.41h0l-.19,3.17v.24Zm-3.49-.71L182,198l.08-.21-.66,3.58-.09.23Zm-3.72-1.29,1.16-3.47.14-.18-1.15,3.46-.15.19Zm-3.18-1.59,1.57-3.3.18-.12-1.57,3.28Zm-3.26-2.2,2-3,.22-.09-2,3.06-.21.08Zm-2.66-2.36,2.37-2.77H171l-2.35,2.77Zm-2.58-3,2.74-2.43.21.07-2.72,2.41-.23,0Zm-2-3,3-2.08.19.11-3,2.07-.21-.1Zm-1.72-3.54,3.27-1.64.15.17-3.25,1.62ZM161,181.26l3.44-1.21.11.2-3.43,1.21-.12-.2Zm-.75-3.86,3.58-.73.06.23-3.57.73-.07-.23Zm-.21-3.3v-.25l3.63-.28a10.72,10.72,0,0,1,.08-1.6v-.48c-.07.78-.12,1.54-.14,2.32l-3.63.29Zm.14-3,.13-1.15,3.65.22a10,10,0,0,1,.27-1.48l.1-.23c-.11.5-.3,1.45-.37,1.95l-3.65-.22-.08.68v.23Zm.57-3.51.27-1.12,3.6.66c.13-.45.36-1.22.56-1.75l.15-.17c-.21.58-.55,1.58-.71,2.16l-3.6-.66-.16.67-.11.21ZM162,163.8l.43-1.07,3.47,1.15c.15-.35.43-1,.64-1.36l.18-.11c-.25.44-.62,1.25-.82,1.71L162.46,163l-.27.66-.16.17Zm1.46-3.24.56-1,3.29,1.57c.26-.43.68-1.09,1-1.55h.21c-.35.5-.89,1.31-1.21,1.84L164,159.85l-.37.66-.19.11Zm2.07-3.34.69-.93,3.05,2c.25-.31.67-.81,1-1.15h.22c-.33.37-.88,1-1.19,1.4l-3.05-2-.47.63-.22.06Zm2.25-2.76.8-.83,2.77,2.37c.38-.37.94-.87,1.36-1.23l.22.06c-.47.39-1.14,1-1.58,1.41l-2.77-2.37-.57.59Zm2.86-2.7.21.08.7-.55L174,154c.4-.3,1-.7,1.43-1l-.19-.11c-.4.25-.9.6-1.24.85L171.57,151l-.91.71Zm2.89-2.07,1-.6,2.07,3c.48-.27,1.11-.59,1.63-.83l.15.17c-.55.26-1.25.61-1.78.9l-2.07-3-.8.48-.19-.12Zm3.46-1.87.14.18.92-.39,1.64,3.27c.47-.18,1-.39,1.52-.54l-.1-.21c-.45.15-1,.34-1.42.51l-1.64-3.27-1.06.45Zm3.32-1.26,1.12-.32,1.22,3.45c.58-.15,1.18-.28,1.77-.39v.24c-.6.11-1.2.24-1.79.39l-1.22-3.45-1,.29-.11-.21Zm3.85-.66,1.13-.16.73,3.57c.5-.05,1-.09,1.51-.12l.15-3.65h1.16l.28,3.64a12.6,12.6,0,0,1,1.84.09l.65-3.59,1.14.14v-.24l-1.15-.14L191,149c-.61,0-1.23-.08-1.84-.09l-.28-3.64h-1.16l-.15,3.65c-.51,0-1,.07-1.51.12l-.73-3.57-1.15.16v.24Zm8.4,3.31v.24c.5.07,1,.16,1.49.27l1.09-3.49,1,.26.09-.22L195.1,146,194,149.48q-.73-.16-1.47-.27ZM193.3,174a4.52,4.52,0,0,1-9,0v.12a4.52,4.52,0,0,0,9,.85,4,4,0,0,0,0-.85V174Zm-1.37-8a8.51,8.51,0,0,1,3.39,2.48l9.62-4.12.21.15-9.83,4.21a8.54,8.54,0,0,0-7.55-3l-4.31-10.05.19.18,4.12,9.63a8.44,8.44,0,0,1,4.16.54Zm5.32,8a12.09,12.09,0,0,0-.12-1.35l.05.22a8.47,8.47,0,0,1,.07,1.13Zm-3.09,6.41,4.12,9.62a18.75,18.75,0,0,0,9.25-16,18.77,18.77,0,0,1-9.25,16.26l-4.27-10,.15.12Zm-21.42,3.16-.11-.2-.21-.16.21.41A18.72,18.72,0,0,0,194,192.17h.18L194,192h-.09a18.72,18.72,0,0,1-21.08-8.36Zm7.58-9.6a8.48,8.48,0,0,1,3.09-6.38l.15-.13-.15-.12-.08.07a8.46,8.46,0,0,0-3,6.56Zm-10.28.06a18.42,18.42,0,0,0,.72,5l9.62-4.12.05.22-9.67,4.14a18.59,18.59,0,0,1-.69-5.24Z"/><path class="cls-7" d="M231.33,93.49l5.22-.77L239,99.93a29.07,29.07,0,0,1,7.26.85l4.07-6.45,4.91,2-1.47,7.49a29.43,29.43,0,0,1,5.87,4.36l6.75-3.55,3.28,4.14-5,5.75a28.73,28.73,0,0,1,2.9,6.71l7.62.3.76,5.23-7.21,2.47a29.19,29.19,0,0,1-.84,7.27l6.45,4.07-2,4.9L264.93,144a29.82,29.82,0,0,1-4.36,5.87l3.55,6.75L260,159.85l-5.75-5a29.39,29.39,0,0,1-6.72,2.89l-.3,7.63-5.22.76-2.48-7.21a29.59,29.59,0,0,1-7.26-.84l-4.07,6.44-4.91-2,1.46-7.48a29.8,29.8,0,0,1-5.86-4.37l-6.75,3.55-3.28-4.14,5-5.74a29,29,0,0,1-2.9-6.72l-7.62-.3-.77-5.22,7.21-2.48a29.2,29.2,0,0,1,.85-7.27l-6.45-4.06,2-4.91,7.49,1.46A29.48,29.48,0,0,1,218,109l-3.55-6.75L218.56,99l5.75,5a29.39,29.39,0,0,1,6.72-2.89Zm24.27,17.66-3.91,5.25a18,18,0,0,1,3.11,22.12l5.25,3.9a24.5,24.5,0,0,0-4.45-31.27Zm-7.24,2.74,3.9-5.24a24.5,24.5,0,0,0-31.41,4.61l5.25,3.9a18,18,0,0,1,22.26-3.27Zm-18,31.18-3.9,5.25a24.51,24.51,0,0,0,31.08-4.57l-5.25-3.9a18,18,0,0,1-21.93,3.22Zm-7.26,2.77,3.9-5.24a18,18,0,0,1-3.37-22.08l-5.25-3.91a24.5,24.5,0,0,0,4.72,31.23Zm14.4-30.49a12.2,12.2,0,1,0,13.85,10.3A12.2,12.2,0,0,0,237.5,117.35Z"/><path class="cls-8" d="M255.22,96.26h.05l-1.51,7.7h0l1.5-7.7Zm14.38,12.33.1.13-5,5.78-.13-.09,5.07-5.82Zm6.34,17.89v.23l-7.2,2.47v-.24l7.18-2.46Zm-7.18,2.93a29.1,29.1,0,0,1-.79,6.83l-.05.22-.1.17.1-.42A28.91,28.91,0,0,0,268.76,129.41Zm5.53,11.06.08.05-1.95,4.9L264.93,144a30.25,30.25,0,0,1-4.28,5.78l-.09.09-.16-.08.17-.16a29.82,29.82,0,0,0,4.36-5.87l7.49,1.46,1.87-4.71ZM264,156.41l.09.17L260,159.85l-5.75-5a29.39,29.39,0,0,1-6.72,2.89l-.3,7.63-5.22.76-2.48-7.21a29.59,29.59,0,0,1-7.26-.84l-4.07,6.44-4.91-2v-.22l4.87,1.93,4.07-6.45a29.07,29.07,0,0,0,7.26.85l2.48,7.21,5.22-.77.3-7.62a29.39,29.39,0,0,0,6.72-2.89l5.75,5,4-3.2Zm-39.34-1.35h0l.09-.2h-.09a29.08,29.08,0,0,1-5.86-4.36l-6.68,3.5-3.18-4-.1.11,3.28,4.14,6.75-3.55a29.39,29.39,0,0,0,5.82,4.34Zm-10.93-10.82a29.57,29.57,0,0,1-2.81-6.57l-7.62-.3-.77-5.22h0l.73,5,7.62.3a28.93,28.93,0,0,0,3.07,7h-.17l-.09-.15Zm-4-14.81Zm.85-7-6.45-4.06.08-.2,6.45,4.07Zm7.27-13.53-3.47-6.6.09-.07,3.63,6.91L218,109l-.09-.16Zm37.71,2.28-4,5.38-.11-.09,4.11-5.53a24.55,24.55,0,0,1,8.18,18.43,25.21,25.21,0,0,0-.26-3.47,24.42,24.42,0,0,0-7.92-14.72Zm1.67,18.21a17.86,17.86,0,0,1-2.37,9l-.11.18-.19.08a17.89,17.89,0,0,0,2.67-9.25ZM252.1,108.6l.12.08.25-.07c-4.64-3.25-11.25-4.46-16.8-3.64-5.29.77-11.9,4-15.08,8.39l.22-.07.13-.15A24.52,24.52,0,0,1,252.1,108.6Zm-21.78,36.5-4,5.41-.13-.07,4.16-5.58a18,18,0,0,0,21.93-3.22l5.5,4.08-.24.07-5.26-3.91a18,18,0,0,1-21.93,3.22Zm-3.46-2.57.1.1.2-.06a18,18,0,0,1-5.93-13.27,18.33,18.33,0,0,0,.19,2.77,17.91,17.91,0,0,0,5.44,10.46Zm-3.27-22-5.25-3.92a24.36,24.36,0,0,0-3.62,12.68,24.34,24.34,0,0,1,3.62-12.92l5.43,4-.18.11Zm13.87-3.18A12.21,12.21,0,0,0,227,129.27a12.21,12.21,0,0,1,24.29-1.86,13.8,13.8,0,0,1,.13,1.93,13.59,13.59,0,0,0-.13-1.69,12.2,12.2,0,0,0-13.81-10.3Z"/><path class="cls-9" d="M231.33,93.49l5.22-.77L239,99.93a29.07,29.07,0,0,1,7.26.85l4.07-6.45,4.91,2-.09.2-4.82-1.91-4,6.38a28.6,28.6,0,0,0-7.26-.84L236.55,93l-5.22.77-.3,7.62a29.39,29.39,0,0,0-6.72,2.89l-5.75-5-4,3.14-.18-.11L218.56,99l5.75,5a29.39,29.39,0,0,1,6.72-2.89Zm22.52,10.3h0l-.08.2.08.05a29.43,29.43,0,0,1,5.87,4.36l6.75-3.55,3.08,3.89h.2l-3.28-4.14-6.75,3.55a29.39,29.39,0,0,0-5.82-4.34Zm10.93,10.82a29.77,29.77,0,0,1,2.81,6.57l7.62.3.76,5.23h0l-.73-5-7.62-.3a28.73,28.73,0,0,0-2.9-6.71l-.16-.3.16.06.09.14Zm4,14.81Zm-.85,7,6.45,4.07-.16.14-6.39-4,.1-.18Zm-7.36,13.38,3.56,6.75-.09.07-3.63-6.9.16.08Zm-37.29,12.74,1.46-7.49.08-.18-1.45,7.47-.09.2ZM208.85,150.1l5-5.74H214l-5,5.72h-.2Zm-6.24-17.75v-.23l7.21-2.48v.24l-7.17,2.47Zm7.17-2.94a29.65,29.65,0,0,1,.8-6.83l0-.21.09-.19A36.62,36.62,0,0,0,209.78,129.41Zm-5.6-11.1,2-4.91,7.49,1.46a30.25,30.25,0,0,1,4.28-5.78L218,109l.17.08-.17.16a30,30,0,0,0-4.36,5.86l-7.49-1.46-1.79,4.52-.16.15Zm47.62-1.84a18,18,0,0,1,5.48,13.05,19,19,0,0,0-.19-2.5,18,18,0,0,0-5.39-10.41l-.2-.2h.2l.1.1Zm3,22,5.25,3.91a24.51,24.51,0,0,0,3.73-12.84,24.39,24.39,0,0,1-3.73,13.08l-5.45-4,.2-.1Zm-6.44-24.62a18,18,0,0,0-22.26,3.27l-5.1-3.77-.13-.09-.22.07,5.47,4.07a18,18,0,0,1,22.26-3.27l4.14-5.55-.24.07-3.9,5.24Zm-21.78,36.5a24.5,24.5,0,0,0,30.83-4.49l.13-.14.25-.07-.25.31a24.49,24.49,0,0,1-31.08,4.56l-.25-.14.25-.1.12.07Zm-3.48-2.55A24.39,24.39,0,0,1,215,133a23.47,23.47,0,0,1-.26-3.45,24.48,24.48,0,0,0,8.34,18.55l4.1-5.54-.2.05-3.9,5.25Zm-1.83-18.33a18,18,0,0,1,2.26-8.82l.1-.17.18-.11-.18.35A17.82,17.82,0,0,0,221.27,129.47Zm30.21.07a12.21,12.21,0,0,1-24.29,1.62,13.59,13.59,0,0,1-.13-1.69,11.32,11.32,0,0,0,.13,1.93,12.21,12.21,0,0,0,24.29-1.86Z"/><path class="cls-14" d="M293,93.1a16.69,16.69,0,0,1,6.4,2.33l2.3-1,3.18,2.91-.79,2.38A16.69,16.69,0,0,1,307,105.9l2.32.92.19,4.31-2.23,1.12a16.75,16.75,0,0,1-2.34,6.41l1,2.29-2.92,3.2-2.37-.79a16.91,16.91,0,0,1-6.18,2.88l-.92,2.33-4.32.19-1.12-2.24a17,17,0,0,1-6.4-2.33l-2.3,1-3.18-2.91.79-2.38a16.69,16.69,0,0,1-2.89-6.18l-2.32-.92-.19-4.31,2.23-1.12a16.75,16.75,0,0,1,2.34-6.41l-1-2.3,2.92-3.18,2.37.79a16.67,16.67,0,0,1,6.18-2.88l.92-2.33,4.32-.19Zm-10.6,8.67,2.53,2.32.33-.36,1.14.38a6.91,6.91,0,0,1,2.44-1.14l.44-1.11,1.83-.08.54,1.07a6.9,6.9,0,0,1,2.52.92l1.1-.48.37.33,2.32-2.53A11.43,11.43,0,0,0,282.4,101.77Zm5.43,5,2.69,2.46,2.46-2.69a4.07,4.07,0,0,0-2.61-.8,4.16,4.16,0,0,0-2.54,1Zm3.31,3,2.69,2.46a4.07,4.07,0,0,0,.8-2.61,4,4,0,0,0-1-2.53l-2.46,2.68Zm5.59,5.12,2.53,2.32a11.43,11.43,0,0,0-.68-15.56l-2.32,2.54.36.33-.37,1.14a7,7,0,0,1,1.13,2.43l1.12.44.08,1.83-1.07.54a7.41,7.41,0,0,1-.92,2.53l.47,1.1-.33.36Zm2,3-2.53-2.33-.33.37-1.14-.38a7.37,7.37,0,0,1-2.44,1.14l-.44,1.11-1.83.08-.54-1.07a6.9,6.9,0,0,1-2.52-.92l-1.1.48-.37-.34-2.32,2.54a11.46,11.46,0,0,0,15.56-.68Zm-5.43-5-2.69-2.46-2.46,2.68A4.1,4.1,0,0,0,293.3,112.84Zm-3.31-3-2.69-2.46a4.11,4.11,0,0,0-.8,2.62,4,4,0,0,0,1,2.53l2.46-2.69Zm-5.59-5.11-2.53-2.33a11.44,11.44,0,0,0,.68,15.57l2.32-2.54-.36-.33.37-1.14a7.06,7.06,0,0,1-1.13-2.44l-1.12-.44-.08-1.83,1.07-.53a7.2,7.2,0,0,1,.92-2.53l-.47-1.1Z"/><path class="cls-15" d="M304.86,97.3h.06l-.8,2.41H304l.84-2.51Zm4.66,13.6v.24l-2.23,1.12a16.75,16.75,0,0,1-2.28,6.31l-.06.1h-.12l.12-.2A16.82,16.82,0,0,0,307.3,112l2.22-1.12Zm-3.63,9.9.07.16-3,3.19-2.37-.79a16.91,16.91,0,0,1-6.18,2.88l-.92,2.33-4.32.19-1.12-2.24a17,17,0,0,1-6.4-2.33l-2.3,1-3.18-2.91.06-.19,3.12,2.86,2.3-1a16.71,16.71,0,0,0,6.4,2.34l1.12,2.23,4.32-.18.92-2.33a16.91,16.91,0,0,0,6.18-2.88l2.37.79,2.85-3.11Zm-28.91-1a16.68,16.68,0,0,1-2.83-6.1l-2.32-.92-.19-4.31h0l.18,4.08,2.32.92a16.76,16.76,0,0,0,3,6.32l-.11.1-.06-.08Zm-.71-18.71-1.06-2.45.07-.08,1.05,2.43Zm21.61-.12a11.44,11.44,0,0,0-15.32.67l-.13.12h-.24l.25-.26a11.43,11.43,0,0,1,15.56-.68l.24.22H298l-.13-.12Zm-5,5.45a4.08,4.08,0,0,0-4.88.2l-.14.12h-.27l.27-.22a4.08,4.08,0,0,1,5.15-.23l.26.21H293l-.13-.09Zm1.78,3.26v-.06a4,4,0,0,0-1-2.54l-2.58,2.82-.12-.11,2.7-3a4,4,0,0,1,1,2.54,1.5,1.5,0,0,1,0,.3Zm7.36,0V109a11.41,11.41,0,0,0-3.4-7.65l-2.56,2.8.12.11,2.44-2.67a11.41,11.41,0,0,1,3.4,7.65Zm-5.43-5.24.06.06-.43,1.3-.06-.08Zm2,5.67v.23l-1.07.54a7.28,7.28,0,0,1-.86,2.43l-.07.1h-.11l.12-.21a7.41,7.41,0,0,0,.92-2.53l1.06-.53ZM297,114.37l.07.17-.43.47-.14-.09Zm1.82,3.59-2.65-2.44-.33.37-1.14-.38a7.09,7.09,0,0,1-2.44,1.14l-.44,1.11-1.83.08-.54-1.07a6.9,6.9,0,0,1-2.52-.92l-1.1.48-.37-.34L283,118.66l-.12-.11,2.56-2.8.37.33,1.1-.47a6.9,6.9,0,0,0,2.52.92l.54,1.07,1.83-.08.44-1.11a7.37,7.37,0,0,0,2.44-1.14l1.14.38.33-.37,2.8,2.57Zm-5.44-5-2.8-2.57L288,113.23l-.13-.09,2.72-3,2.94,2.7-.14.12Zm-3.3-3-2.81-2.58a4,4,0,0,0-.8,2.32,4,4,0,0,1,.8-2.56l2.92,2.68-.11.14Zm-5.83-5.34-2.41-2.22a11.41,11.41,0,0,0-2.73,7.27,11.36,11.36,0,0,1,2.73-7.51l2.53,2.33.23.23h-.23l-.12-.11Zm.7,10.93.12-.13-.53-.51-.06.19Zm-.15-1.67.06.09.1-.1-.11-.15a7.06,7.06,0,0,1-1.13-2.44l-1.12-.44-.07-1.59h0l.08,1.83,1.12.44a6.66,6.66,0,0,0,1.08,2.36Zm-.22-7.55.06-.09-.53-1.23-.07.08Z"/><path class="cls-16" d="M293,93.1a16.69,16.69,0,0,1,6.4,2.33l2.3-1,3.18,2.91-.12.13-3.06-2.8-2.3,1a17,17,0,0,0-6.4-2.33l-1.12-2.24-4.32.19-.92,2.33a16.91,16.91,0,0,0-6.18,2.88l-2.37-.79-2.77,3-.15-.09,2.92-3.18,2.37.79a16.67,16.67,0,0,1,6.18-2.88l.92-2.33,4.32-.19Zm11.15,6.7a16.65,16.65,0,0,1,2.83,6.11l2.32.92.19,4.31h0l-.18-4.07-2.32-.92a17,17,0,0,0-3-6.34l.11-.08.06.07Zm.77,18.87,1,2.29-.14-.08-1-2.25h.12Zm-28.71,3.6.79-2.38.11-.1-.78,2.36Zm-4.6-13.56v-.23l2.23-1.12a16.75,16.75,0,0,1,2.28-6.31l.06-.1h.12l-.12.19a16.75,16.75,0,0,0-2.34,6.41l-2.22,1.11Zm10.79-6.94,2.53,2.32.33-.36,1.14.38a6.91,6.91,0,0,1,2.44-1.14l.44-1.11,1.83-.08.54,1.07a6.9,6.9,0,0,1,2.52.92l1.1-.48.37.33,2.32-2.53h.24l-2.56,2.79-.37-.33-1.1.48a6.9,6.9,0,0,0-2.52-.92l-.54-1.07-1.83.08-.44,1.11a7.09,7.09,0,0,0-2.44,1.14l-1.1-.37-.33.36-2.77-2.54h.24Zm5.43,5,2.69,2.46,2.46-2.69h.26l-2.72,3-3-2.72h.27Zm3.31,3,2.69,2.46a4,4,0,0,0,.8-2.31,4.06,4.06,0,0,1-.8,2.56l-2.93-2.69h.24Zm5.59,5.12,2.53,2.32A11.37,11.37,0,0,0,302,110a11.36,11.36,0,0,1-2.73,7.51L296.5,115h.24Zm-.47-10.71H296l.54.49.06-.18-.36-.34Zm0,1.55-.06-.07-.1.08.11.16a7,7,0,0,1,1.13,2.43l1.12.45.07,1.59h0l-.08-1.83-1.12-.44a6.84,6.84,0,0,0-1.08-2.36Zm.28,7.7h-.12l.46,1,.14.09-.48-1.1Zm-5.53,7.8a11.36,11.36,0,0,0,7.52-3.27l.12-.12H299a11,11,0,0,1-7.91,3.64,11.69,11.69,0,0,1-8.16-2.94h.24a11.55,11.55,0,0,0,7.92,2.71Zm-2.81-8a4.12,4.12,0,0,0,2.48.7,4,4,0,0,0,2.4-.91l.13-.11h.26l-.25.25a4.07,4.07,0,0,1-5.15.22l-.26-.19h.26l.13.09ZM286.42,110v0a4,4,0,0,0,1,2.53l2.46-2.69h.23l-2.69,2.94a4,4,0,0,1-1-2.53,1.5,1.5,0,0,1,0-.3Zm-7.36,0v.65a11.41,11.41,0,0,0,3.4,7.65l2.55-2.79h-.23L282.55,118a11.41,11.41,0,0,1-3.4-7.65v-.41Zm5.37,5.19.37-1.14.12-.09-.37,1.1Zm-1.95-5.61v-.24l1.07-.53a7.28,7.28,0,0,1,.86-2.43l.06-.1h.13a7,7,0,0,0-1.05,2.72l-1.06.53Zm1.51-4.4.33-.37h.23l-.42.46Z"/><path class="cls-10" d="M255.41,170.84a41.39,41.39,0,0,1,10.46,1.9l1.45-3.67a1.31,1.31,0,0,1,1.71-.74l2.81,1.12a1.32,1.32,0,0,1,.75,1.7h0l-1.45,3.67a41.8,41.8,0,0,1,8.93,5.76l2.75-2.84a1.32,1.32,0,0,1,1.86,0l2.18,2.11a1.31,1.31,0,0,1,0,1.85h0l-2.75,2.85a41.79,41.79,0,0,1,6.06,8.73l3.61-1.57a1.32,1.32,0,0,1,1.74.69l1.2,2.78a1.32,1.32,0,0,1-.68,1.73l-3.62,1.57a41,41,0,0,1,2.23,10.39l3.95-.06a1.32,1.32,0,0,1,1.34,1.3h0l.05,3a1.32,1.32,0,0,1-1.3,1.34h0l-3.94.07a41.39,41.39,0,0,1-1.9,10.46l3.66,1.45a1.31,1.31,0,0,1,.75,1.71h0L296.16,231a1.33,1.33,0,0,1-1.71.75l-3.67-1.45a41.15,41.15,0,0,1-5.77,8.92l2.84,2.75a1.33,1.33,0,0,1,0,1.87l-2.1,2.17a1.33,1.33,0,0,1-1.87,0L281,243.26a42.06,42.06,0,0,1-8.73,6.06l1.56,3.62a1.32,1.32,0,0,1-.68,1.73l-2.78,1.2a1.33,1.33,0,0,1-1.74-.68l-1.56-3.62a41.17,41.17,0,0,1-10.4,2.23l.07,4a1.31,1.31,0,0,1-1.3,1.33l-3,.05a1.32,1.32,0,0,1-1.34-1.29l-.06-3.95a41.39,41.39,0,0,1-10.46-1.9l-1.45,3.67a1.33,1.33,0,0,1-1.71.74l-2.82-1.12a1.31,1.31,0,0,1-.74-1.71l1.45-3.67a41.46,41.46,0,0,1-8.93-5.77L223.67,247a1.31,1.31,0,0,1-1.84,0l0,0-2.18-2.1a1.33,1.33,0,0,1,0-1.87l2.75-2.84a41.79,41.79,0,0,1-6-8.73l-3.7,1.54a1.33,1.33,0,0,1-1.73-.69l-1.21-2.78a1.3,1.3,0,0,1,.68-1.72h0l3.61-1.57a42,42,0,0,1-2.23-10.39l-3.95.06a1.33,1.33,0,0,1-1.34-1.3l-.05-3a1.33,1.33,0,0,1,1.3-1.34l3.95-.06a41.39,41.39,0,0,1,1.9-10.46L210,198.29a1.31,1.31,0,0,1-.74-1.71l1.11-2.82A1.35,1.35,0,0,1,212,193l3.66,1.45a42.42,42.42,0,0,1,5.77-8.92l-2.84-2.75a1.33,1.33,0,0,1,0-1.87l2.11-2.18a1.32,1.32,0,0,1,1.86,0l2.84,2.76a41.48,41.48,0,0,1,8.74-6.06l-1.57-3.62a1.31,1.31,0,0,1,.69-1.73l2.78-1.21a1.33,1.33,0,0,1,1.73.69l1.57,3.62a41,41,0,0,1,10.39-2.24l-.06-4A1.32,1.32,0,0,1,251,165.6h3a1.33,1.33,0,0,1,1.34,1.3l.07,4ZM252.79,184a28.33,28.33,0,1,0,28.78,27.88A28.33,28.33,0,0,0,252.79,184Z"/><path class="cls-11" d="M255.41,170.84a41.39,41.39,0,0,1,10.46,1.9l1.45-3.67a1.31,1.31,0,0,1,1.71-.74l2.81,1.11a1.33,1.33,0,0,1,.83,1.36,1.31,1.31,0,0,0-.83-1.11L269,168.57a1.33,1.33,0,0,0-1.71.74L265.87,173a41.39,41.39,0,0,0-10.46-1.9l-.07-4a1.31,1.31,0,0,0-1.33-1.29h-3a1.33,1.33,0,0,0-1.29,1.25V167a1.32,1.32,0,0,1,1.29-1.34h3a1.33,1.33,0,0,1,1.34,1.3l.07,4Zm15.8,4a42.17,42.17,0,0,1,8.85,5.73l2.75-2.84a1.32,1.32,0,0,1,1.86,0l2.18,2.11a1.34,1.34,0,0,1,.4,1.07,1.31,1.31,0,0,0-.4-.83L284.67,178a1.31,1.31,0,0,0-1.85,0h0l-2.75,2.84A43,43,0,0,0,271,175l.15-.17h.06Zm13,9.8a41.43,41.43,0,0,1,6,8.61l3.61-1.57a1.32,1.32,0,0,1,1.74.69l1.2,2.78a1.28,1.28,0,0,1,.11.64,1.4,1.4,0,0,0-.11-.4l-1.2-2.78a1.33,1.33,0,0,0-1.74-.68l-3.61,1.56a42.06,42.06,0,0,0-6.06-8.73l-.22-.26h.22l.11.13Zm8.27,14a40.8,40.8,0,0,1,2.16,10.18l3.95-.06a1.32,1.32,0,0,1,1.34,1.29l.05,3v.1l-.05-2.88a1.32,1.32,0,0,0-1.34-1.3h0l-3.95.06a41,41,0,0,0-2.23-10.39l-.16-.41.16.17.07.21Zm.43,26.33,3.59,1.43a1.33,1.33,0,0,1,.83,1.35,1.31,1.31,0,0,0-.83-1.11l-3.66-1.45Zm-8,14.09,2.93,2.83a1.34,1.34,0,0,1,.4,1.07,1.31,1.31,0,0,0-.4-.83l-3-2.95.12-.12Zm-12.59,10.21,1.57,3.62a1.28,1.28,0,0,1,.11.64,1.4,1.4,0,0,0-.11-.4l-1.73-4ZM256.75,254l.06,3.71v.09l-.07-3.8Zm-22.94.13a1.54,1.54,0,0,1,.09-.6l1.53-3.87h.08l-1.61,4.07a2.37,2.37,0,0,0-.09.36ZM219.24,244a1.36,1.36,0,0,1,.36-1l2.86-2.95.11.13-3,3.06a1.4,1.4,0,0,0-.36.8Zm-9.6-14.91a1.32,1.32,0,0,1,.79-1.33l3.68-1.6.07.21L210.43,228A1.3,1.3,0,0,0,209.64,229.12Zm-3.17-17.41v-.15a1.33,1.33,0,0,1,1.3-1.34l3.95-.06A41.32,41.32,0,0,1,213.55,200l.07-.23.14-.16-.14.41a41.39,41.39,0,0,0-1.9,10.46l-3.95.06a1.34,1.34,0,0,0-1.3,1.25Zm2.65-14.57a1.54,1.54,0,0,1,.09-.6l1.11-2.82A1.34,1.34,0,0,1,212,193l3.66,1.45a42.13,42.13,0,0,1,5.66-8.79l.12-.14h.23l-.24.26a42.42,42.42,0,0,0-5.77,8.92L212,193.26a1.34,1.34,0,0,0-1.72.74l-1.11,2.82a1.12,1.12,0,0,0-.09.36ZM218.24,182a1.36,1.36,0,0,1,.36-1l2.11-2.18a1.31,1.31,0,0,1,1.85,0h0l2.84,2.75a42.31,42.31,0,0,1,8.65-6h.09l.17.16-.17.08a42.12,42.12,0,0,0-8.74,6.06L222.57,179a1.31,1.31,0,0,0-1.85,0h0l-2.11,2.17a1.28,1.28,0,0,0-.36.8Zm14.24-10.57a1.3,1.3,0,0,1,.79-1.09l2.78-1.21a1.33,1.33,0,0,1,1.73.69l1.57,3.62a41.55,41.55,0,0,1,10.39-2.24V171a41.55,41.55,0,0,0-10.39,2.24l-1.57-3.62a1.33,1.33,0,0,0-1.73-.69l-2.78,1.21A1.32,1.32,0,0,0,232.48,171.43Zm49.09,41.27a28.33,28.33,0,0,1-56.66.15v.24a28.33,28.33,0,1,0,56.66-.39Z"/><path class="cls-12" d="M272.67,170.55a1.26,1.26,0,0,1-.09.61l-1.45,3.67L271,175l1.61-4.08a1.12,1.12,0,0,0,.09-.36Zm14.58,10.11a1.29,1.29,0,0,1-.37,1l-2.75,2.85h-.22l3-3.07a1.3,1.3,0,0,0,.37-.79Zm9.6,14.91a1.33,1.33,0,0,1-.79,1.33l-3.62,1.57-.16-.17,3.78-1.64a1.35,1.35,0,0,0,.79-1.09ZM300,213v.14a1.32,1.32,0,0,1-1.3,1.34h0l-3.94.07a41.87,41.87,0,0,1-1.83,10.24h-.07a41.39,41.39,0,0,0,1.9-10.46l3.94-.07A1.32,1.32,0,0,0,300,213Zm-2.65,14.56a1.26,1.26,0,0,1-.09.61l-1.1,2.83a1.33,1.33,0,0,1-1.71.75l-3.67-1.45a41.82,41.82,0,0,1-5.65,8.79l-.12.14h-.21L285,239a41.46,41.46,0,0,0,5.77-8.93l3.67,1.45a1.3,1.3,0,0,0,1.7-.73h0l1.11-2.81a1.18,1.18,0,0,0,.09-.37Zm-9.11,15.22a1.33,1.33,0,0,1-.37,1l-2.1,2.17a1.33,1.33,0,0,1-1.87,0l-2.84-2.75a41.27,41.27,0,0,1-8.65,6l-.09.05-.16-.15a45,45,0,0,0,8.9-6.15l2.84,2.75a1.33,1.33,0,0,0,1.87,0l2.1-2.17a1.35,1.35,0,0,0,.37-.8ZM274,253.33a1.33,1.33,0,0,1-.79,1.33l-2.78,1.2a1.33,1.33,0,0,1-1.74-.68l-1.56-3.62a41,41,0,0,1-10.39,2.23v-.24a41.17,41.17,0,0,0,10.4-2.23l1.56,3.62a1.33,1.33,0,0,0,1.74.68l2.78-1.2a1.35,1.35,0,0,0,.79-1.09Zm-17.2,4.27a1.33,1.33,0,0,1-1.3,1.24l-3,.05a1.32,1.32,0,0,1-1.34-1.29l-.06-4a41.39,41.39,0,0,1-10.46-1.9l-1.45,3.66a1.33,1.33,0,0,1-1.71.75L234.64,255a1.34,1.34,0,0,1-.83-1.11,1.34,1.34,0,0,0,.83,1.35l2.82,1.12a1.33,1.33,0,0,0,1.71-.74l1.45-3.67a41.39,41.39,0,0,0,10.46,1.9l.06,4a1.32,1.32,0,0,0,1.34,1.29l3,0a1.31,1.31,0,0,0,1.3-1.33v-.15Zm-21.54-7.74a41.78,41.78,0,0,1-8.85-5.73L223.67,247a1.31,1.31,0,0,1-1.84,0l0,0-2.18-2.1a1.33,1.33,0,0,1-.39-1.07,1.37,1.37,0,0,0,.39.83l2.18,2.1a1.31,1.31,0,0,0,1.85,0h0l2.75-2.84a41.06,41.06,0,0,0,9.1,5.85l-.17.16h-.08Zm-13-9.79a41.77,41.77,0,0,1-5.94-8.61L212.68,233a1.33,1.33,0,0,1-1.73-.69l-1.21-2.78a1.27,1.27,0,0,1-.1-.64,1.38,1.38,0,0,0,.1.4L211,232.1a1.32,1.32,0,0,0,1.73.68l3.62-1.56a44.16,44.16,0,0,0,6.28,9h-.23l-.11-.12Zm-8.27-14a41.25,41.25,0,0,1-2.16-10.18l-4,.06a1.33,1.33,0,0,1-1.34-1.3l0-3v-.1l0,2.89a1.33,1.33,0,0,0,1.34,1.3l4-.06A41.35,41.35,0,0,0,214,226l.15.42-.14-.18-.08-.21Zm-.36-26.31L210,198.29a1.34,1.34,0,0,1-.83-1.35,1.34,1.34,0,0,0,.83,1.11l3.82,1.51-.16.18Zm7.86-14.19-2.84-2.75a1.33,1.33,0,0,1-.39-1.07,1.37,1.37,0,0,0,.39.83l3.07,3h-.23Zm12.68-10.13-1.57-3.62a1.27,1.27,0,0,1-.1-.64,1.12,1.12,0,0,0,.1.4l1.74,4-.17-.16ZM252.79,184a28.35,28.35,0,0,1,28.78,27.88v-.24a28.33,28.33,0,1,0-56.66.39A28.35,28.35,0,0,1,252.79,184Z"/><path class="cls-3" d="M290.11,141.83a12.94,12.94,0,1,1-7.39,16.74h0A12.94,12.94,0,0,1,290.11,141.83ZM284,131.15l.95,5.12a19.59,19.59,0,0,0-4,2.95l-4.6-2.46-2.26,2.81,3.39,4a20.65,20.65,0,0,0-2,4.57l-5.21.16-.55,3.57,4.91,1.73a20.06,20.06,0,0,0,.54,5l-4.43,2.75,1.3,3.36,5.13-1a19.59,19.59,0,0,0,2.95,4l-2.47,4.59,2.82,2.26,4-3.39a20,20,0,0,0,4.57,2l.16,5.21,3.57.56L294.5,174a19.6,19.6,0,0,0,5-.54l2.75,4.44,3.36-1.31-1-5.12a20.21,20.21,0,0,0,4-3L313.2,171l2.26-2.81-3.39-4a20.65,20.65,0,0,0,2-4.57l5.21-.16.56-3.57-4.92-1.73a19.6,19.6,0,0,0-.54-5l4.43-2.75-1.3-3.36-5.12.95a20.21,20.21,0,0,0-3-4l2.46-4.59L309,133.15l-4,3.39a20.65,20.65,0,0,0-4.57-2l-.16-5.22-3.57-.55L295,133.68a20.54,20.54,0,0,0-5,.54l-2.75-4.43Zm4.69,7.12a16.75,16.75,0,1,0,21.67,9.57,16.75,16.75,0,0,0-21.67-9.57Z"/><path class="cls-5" d="M307.72,153.76a12.94,12.94,0,0,1-25,4.81,13.18,13.18,0,0,1-.88-4.81,12.94,12.94,0,0,0,25.88,0ZM284,131.14h0l1,5.38-.09-.24-1-5.13Zm27.78,4.25.1.08-2.46,4.59-.19.09.09-.18,2.36-4.39Zm6.93,10.9.08.22-4.43,2.75-.09-.21Zm-3.8,7.47V154h0v-.24Zm4.87,2.19h0l-.56,3.57-5.21.16a20.32,20.32,0,0,1-1.92,4.41l-.1.16-.18.06a24.57,24.57,0,0,0,2.2-4.91l5.21-.16.52-3.3Zm-4.47,12.14-2.15,2.67-4.59-2.47a20.21,20.21,0,0,1-4,3l-.1.06.1.22h.05a19.72,19.72,0,0,0,4-2.92L313.2,171l2.26-2.81-.11-.13Zm-9.87,8.3v.25l-3.36,1.3-2.75-4.43a19.6,19.6,0,0,1-5,.54L292.72,179l-3.57-.56L289,173.2a20,20,0,0,1-4.57-2l-4,3.39-2.82-2.26.11-.19,2.71,2.18,4-3.39a20,20,0,0,0,4.57,2l.16,5.21,3.57.55,1.73-4.91a20.06,20.06,0,0,0,5-.54l2.75,4.43,3.31-1.28ZM280,167.62a19.44,19.44,0,0,1-2.86-3.94l-5.13,1-1.3-3.36.09-.06,1.21,3.15,5.13-1a19.59,19.59,0,0,0,2.95,4l.16.19-.16.08-.09-.1Zm-4.91-9.33a19.51,19.51,0,0,1-.49-4.5,22.77,22.77,0,0,0,.65,5l-.11-.2-.05-.25Zm-.49-4.73-4.91-1.73v-.26l4.87,1.72v.27Zm2.78-10.14-3.3-3.85.12-.15,3.27,3.83.2.23-.19.06Zm11.33-5.15a16.78,16.78,0,0,1,22.81,15.52A16.76,16.76,0,0,0,278,153c0,.27,0,.55,0,.82a16.73,16.73,0,0,1,10.72-15.52Z"/><path class="cls-6" d="M290.11,141.83A12.94,12.94,0,0,1,307.72,154a12.94,12.94,0,0,0-25.88,0,13,13,0,0,1,8.27-12.2ZM284,131.14l3.36-1.3,2.75,4.43a20.54,20.54,0,0,1,5-.54l1.73-4.91,3.57.55.16,5.22a20.65,20.65,0,0,1,4.57,2l4-3.39,2.81,2.26-.19.12-2.62-2.1-4,3.39a20.65,20.65,0,0,0-4.57-2l-.16-5.21-3.57-.56-1.72,4.9a19.6,19.6,0,0,0-5,.54l-2.75-4.43-3.27,1.26-.09-.24Zm25.51,9a20.12,20.12,0,0,1,2.86,3.94l5.12-1,1.3,3.36-.17-.17-1.13-2.92-5.12,1a20.23,20.23,0,0,0-2.77-3.85l-.37-.38.18-.09.1.1Zm4.91,9.34A20.29,20.29,0,0,1,315,154a25,25,0,0,0-.64-4.95l.09.21.06.24Zm.49,4.73,4.91,1.73-.09.24-4.83-1.7v-.27Zm-2.88,10,3.39,4h-.23l-3.34-3.9.18-.06Zm-7.5,7.26,1,5.12h0l-1-5.36.1.22Zm-26.93.79,2.4-4.36.09-.18.16-.08-2.42,4.56-.21.11Zm-6.91-11,4.38-2.71h.05l.11.21-.11.07-4.26,2.63-.17-.16Zm3.89-7.26v-.19h0V154Zm-4.91-2.19.55-3.57,5.21-.16a20.36,20.36,0,0,1,1.93-4.41l.09-.15.2-.06-.2.32a20.65,20.65,0,0,0-2,4.57l-5.21.16-.47,3.05-.08.25Zm4.39-12.26h.23l2-2.53,4.6,2.46a20.16,20.16,0,0,1,4-2.93l.12-.07-.09-.22h0a19.72,19.72,0,0,0-4,2.92l-4.6-2.46-2.26,2.81ZM311.5,154a16.76,16.76,0,0,1-33.5,0,16.76,16.76,0,0,0,33.51.82c0-.27,0-.55,0-.82Z"/><path class="cls-7" d="M307.46,180.11a8.44,8.44,0,0,1,3.11,1.13l1.11-.48,1.55,1.42-.39,1.15a7.94,7.94,0,0,1,1.4,3l1.13.44.09,2.1-1.08.54a8.44,8.44,0,0,1-1.13,3.11l.48,1.11-1.42,1.55-1.15-.39a7.94,7.94,0,0,1-3,1.4l-.44,1.13-2.09.09-.55-1.08A8.3,8.3,0,0,1,302,195.2l-1.11.48-1.55-1.42.39-1.15a7.94,7.94,0,0,1-1.4-3l-1.13-.44-.09-2.1,1.08-.54a8.44,8.44,0,0,1,1.13-3.11l-.48-1.11,1.42-1.55,1.15.39a7.94,7.94,0,0,1,3-1.4l.44-1.13L307,179l.54,1.08Zm-5.14,4.21,1.23,1.13.16-.18.55.18a3.74,3.74,0,0,1,1.18-.55l.22-.54h.88l.26.52a3.38,3.38,0,0,1,1.23.45l.53-.23.18.16,1.13-1.23a5.56,5.56,0,0,0-7.55.33Zm2.63,2.42,1.31,1.19,1.19-1.3A2,2,0,0,0,305,186.74Zm1.61,1.47,1.3,1.19a2,2,0,0,0-.11-2.5Zm2.71,2.48,1.23,1.13a5.55,5.55,0,0,0-.33-7.55L309,185.5l.18.16-.18.55a3.74,3.74,0,0,1,.55,1.18l.54.22v.88l-.52.26a3.38,3.38,0,0,1-.45,1.23l.23.53-.16.18Zm1,1.43L309,191l-.16.18-.55-.18a3.74,3.74,0,0,1-1.18.55l-.22.54H306l-.26-.52a3.38,3.38,0,0,1-1.23-.45l-.53.23-.18-.16-1.13,1.23a5.55,5.55,0,0,0,7.55-.33Zm-2.63-2.42-1.31-1.19-1.19,1.3A2,2,0,0,0,307.64,189.7ZM306,188.23,304.7,187a2,2,0,0,0,.11,2.5Zm-2.71-2.48L302,184.62a5.55,5.55,0,0,0,.33,7.55l1.13-1.23-.18-.16.18-.55a3.74,3.74,0,0,1-.55-1.18l-.54-.22V188l.52-.26a3.38,3.38,0,0,1,.45-1.23l-.23-.53Z"/><path class="cls-8" d="M313.2,182.15h0l-.39,1.16h0l.41-1.22Zm2.26,6.6v.12l-1.08.54a8.4,8.4,0,0,1-1.1,3.06v.05h-.06l.07-.1a8.27,8.27,0,0,0,1.13-3.11l1.08-.54Zm-1.77,4.8v.08l-1.42,1.55-1.15-.39a7.94,7.94,0,0,1-3,1.4l-.44,1.13-2.09.09-.55-1.08a8.12,8.12,0,0,1-3.11-1.14l-1.11.49-1.55-1.42v-.09l1.52,1.39,1.11-.48a8.27,8.27,0,0,0,3.11,1.13l.55,1.08,2.09-.09.44-1.12a8.41,8.41,0,0,0,3-1.4l1.15.38,1.38-1.51Zm-14-.48a8.18,8.18,0,0,1-1.37-3l-1.13-.44-.09-2.1h0l.09,2,1.13.45a8.15,8.15,0,0,0,1.45,3.06l0,.05h0Zm-.34-9.07-.52-1.19h0l.5,1.18v0Zm10.48-.06a5.55,5.55,0,0,0-7.43.32l-.06.06h-.12l.12-.13a5.55,5.55,0,0,1,7.55-.33l.11.11h-.11l-.06-.05Zm-2.42,2.64a2,2,0,0,0-1.21-.34,2,2,0,0,0-1.16.44l-.07.06h-.13l.13-.11a2,2,0,0,1,2.5-.11l.13.1h-.19Zm.86,1.58h0a1.93,1.93,0,0,0-.5-1.23l-1.25,1.37-.06-.05,1.31-1.43a1.93,1.93,0,0,1,.5,1.23v.11Zm3.57,0v-.31a5.55,5.55,0,0,0-1.65-3.71L309,185.5l.05.05,1.19-1.29a5.55,5.55,0,0,1,1.65,3.71v.19Zm-2.63-2.54h0l-.21.63h0l.21-.62Zm1,2.75v.11l-.52.26a3.47,3.47,0,0,1-.42,1.18h-.06l.06-.11a3.33,3.33,0,0,0,.45-1.22l.51-.26Zm-.76,2v.08l-.21.23h-.07l.25-.27Zm.88,1.75L309,191l-.16.18-.55-.19a3.38,3.38,0,0,1-1.18.56l-.22.54H306l-.26-.52a3.38,3.38,0,0,1-1.23-.45l-.53.23-.18-.16-1.18,1.29h-.06l1.24-1.36.18.16.53-.23a3.38,3.38,0,0,0,1.23.45l.26.52h.88l.22-.54a3.74,3.74,0,0,0,1.18-.55l.55.18.16-.17,1.36,1.24-.07.06Zm-2.64-2.42-1.36-1.25L305,189.88h-.07l1.32-1.44,1.43,1.31-.07.06Zm-1.6-1.47L304.68,187a1.88,1.88,0,0,0-.39,1.12,1.91,1.91,0,0,1,.39-1.24l1.42,1.3-.06.07Zm-2.83-2.59L302,184.62a5.53,5.53,0,0,0-1.32,3.53,5.51,5.51,0,0,1,1.32-3.64l1.23,1.12.11.12h-.11l-.06-.05Zm.34,5.3.06-.06-.26-.25v.09l.23.22Zm-.07-.81h.05l-.06-.08a3.74,3.74,0,0,1-.55-1.18l-.54-.21v-.78h0v.88l.54.22a3.6,3.6,0,0,0,.53,1.14Zm-.11-3.66v-.05l-.26-.59h0Z"/><path class="cls-9" d="M307.46,180.11a8.44,8.44,0,0,1,3.11,1.13l1.11-.48,1.55,1.42-.06.06-1.49-1.36-1.11.48a8.27,8.27,0,0,0-3.11-1.13l-.54-1.08-2.1.09-.44,1.12a8.41,8.41,0,0,0-3,1.4l-1.15-.38-1.35,1.47h-.07l1.42-1.55,1.15.39a7.94,7.94,0,0,1,3-1.4l.44-1.13,2.1-.09.54,1.08Zm5.41,3.25a8.35,8.35,0,0,1,1.37,3l1.13.44.09,2.1h0l-.09-2-1.13-.45a8.19,8.19,0,0,0-1.45-3.07h0Zm.38,9.16.48,1.11h-.07l-.48-1.09h.07Zm-13.94,1.74.39-1.15.05-.05-.38,1.15h-.06Zm-2.23-6.57v-.12l1.08-.54a8.23,8.23,0,0,1,1.11-3.06v-.05h.06l-.06.09a8.27,8.27,0,0,0-1.13,3.11l-1.08.54Zm5.24-3.37,1.23,1.13.16-.18.55.18a3.74,3.74,0,0,1,1.18-.55l.22-.54h.88l.26.52a3.38,3.38,0,0,1,1.23.45l.53-.23.18.16,1.13-1.23H310l-1.25,1.36-.18-.17-.53.24a3.38,3.38,0,0,0-1.23-.45l-.26-.52h-.88l-.22.54a3.74,3.74,0,0,0-1.18.55l-.55-.18-.16.17-1.35-1.23Zm2.63,2.41,1.31,1.2,1.19-1.3h.13l-1.32,1.44-1.44-1.32Zm1.61,1.48,1.3,1.19a1.88,1.88,0,0,0,.39-1.12,1.91,1.91,0,0,1-.39,1.24l-1.42-1.3Zm2.71,2.48,1.23,1.13a5.53,5.53,0,0,0,1.32-3.53,5.46,5.46,0,0,1-1.32,3.64l-1.35-1.23ZM309,185.5h-.11l.26.24v-.09l-.18-.16Zm0,.75h-.06l.06.08a3.74,3.74,0,0,1,.55,1.18l.54.21v.78h0v-.88l-.54-.22a3.6,3.6,0,0,0-.53-1.14Zm.14,3.73h-.06l.22.51h.07l-.23-.53Zm-2.69,3.79a5.52,5.52,0,0,0,3.65-1.59l.06-.06h.13a5.24,5.24,0,0,1-3.84,1.76,5.57,5.57,0,0,1-3.95-1.42h.11a5.65,5.65,0,0,0,3.84,1.32Zm-1.36-3.91a2,2,0,0,0,1.21.34,2,2,0,0,0,1.16-.44h.19l-.12.12a2,2,0,0,1-2.5.11l-.13-.1h.19Zm-.86-1.58h0a1.93,1.93,0,0,0,.5,1.23l1.19-1.31H306l-1.31,1.43a1.93,1.93,0,0,1-.5-1.23v-.12Zm-3.57,0v.31a5.55,5.55,0,0,0,1.65,3.71l1.24-1.35h-.11l-1.13,1.23a5.55,5.55,0,0,1-1.65-3.71v-.19Zm2.6,2.51.18-.55h.06l-.18.53-.06.06Zm-.94-2.72V188l.52-.26a3.47,3.47,0,0,1,.42-1.18h.06a3.49,3.49,0,0,0-.51,1.32l-.51.26Zm.73-2.13.16-.18h.11l-.2.22Z"/><path class="cls-7" d="M141,143.38h2.64l.71,3.75a15,15,0,0,1,3.54.94l2.47-2.9,2.3,1.32-1.27,3.6a15.11,15.11,0,0,1,2.6,2.58l3.6-1.27,1.32,2.29L156,156.16a14.46,14.46,0,0,1,1,3.54l3.76.7V163l-3.75.71a15,15,0,0,1-.94,3.54l2.9,2.47L157.66,172,154,170.79a14.71,14.71,0,0,1-2.58,2.59l1.27,3.6-2.28,1.33-2.49-2.89a14.92,14.92,0,0,1-3.54,1l-.69,3.75H141l-.7-3.75a15,15,0,0,1-3.54-.94l-2.48,2.9L132,177l1.26-3.6a14.71,14.71,0,0,1-2.59-2.58l-3.6,1.27-1.33-2.29,2.89-2.48a15.07,15.07,0,0,1-.95-3.54l-3.75-.69v-2.65l3.75-.71a15,15,0,0,1,.94-3.54l-2.9-2.47,1.32-2.29,3.6,1.26a14.43,14.43,0,0,1,2.59-2.59L132,146.5l2.29-1.33,2.49,2.89a15,15,0,0,1,3.53-1l.7-3.75Zm10.75,10.49-2.31,2.32a9,9,0,0,1-.05,11.18l2.32,2.31a12.26,12.26,0,0,0,0-15.81Zm-3.78.84,2.31-2.32a12.25,12.25,0,0,0-15.89,0l2.32,2.31a9,9,0,0,1,11.26,0Zm-11.15,14.15-2.31,2.32a12.24,12.24,0,0,0,15.72,0l-2.32-2.31a9,9,0,0,1-11.09,0Zm-3.8.85,2.31-2.32a9,9,0,0,1-.09-11.17l-2.32-2.32a12.26,12.26,0,0,0,.1,15.81Zm9.32-14.07a6.11,6.11,0,1,0,6.12,6.1,6.12,6.12,0,0,0-6.12-6.1Z"/><path class="cls-8" d="M152.58,146.44h.07l-1.33,3.79h0l1.33-3.77Zm6.23,7.07.09.17-3,2.56-.08-.18,3-2.55Zm1.91,9.29v.2l-3.75.71a15,15,0,0,1-.87,3.36l-.07.18-.13.12.1-.37a15,15,0,0,0,.94-3.54l3.75-.7Zm-1.88,6.88.09.08-1.32,2.29-3.6-1.26a14.42,14.42,0,0,1-2.52,2.54l-.06.06-.14-.14.14-.11a14.71,14.71,0,0,0,2.58-2.59l3.6,1.26,1.23-2.13Zm-6.21,7.1.07.2-2.28,1.33-2.49-2.89a14.92,14.92,0,0,1-3.54,1l-.69,3.75h-2.65l-.7-3.75a15,15,0,0,1-3.54-.94l-2.48,2.9L132,177l.07-.2,2.22,1.28,2.48-2.9a15,15,0,0,0,3.54.94l.7,3.75h2.65l.69-3.75a15.07,15.07,0,0,0,3.54-1l2.49,2.89,2.21-1.29Zm-19.4-3.41a14.71,14.71,0,0,1-2.52-2.53l-3.6,1.27-1.33-2.29.09-.08,1.24,2.13,3.6-1.28a17.36,17.36,0,0,0,2.72,2.7l-.11.14-.09-.06Zm-4.63-6.21a14.47,14.47,0,0,1-.88-3.36l-3.75-.69v-.25l3.75.7a15,15,0,0,0,1.1,3.88l-.14-.1Zm.13-10.88-3-2.54.09-.17,3,2.53-.07.18Zm4.59-6L132,146.52l.07-.05,1.34,3.79h-.07Zm18.42,3.57-2.32,2.34h-.2l2.52-2.54a12.21,12.21,0,0,1,2.87,7.86v.1a12.19,12.19,0,0,0-2.87-7.72Zm-.39,7.77v.09a9,9,0,0,1-1.86,5.5l-.11.14h-.22l.22-.27a9,9,0,0,0,2-5.49Zm-1.21-9.36a12.26,12.26,0,0,0-15.63,0l-.14.11h-.24l.25-.24a12.25,12.25,0,0,1,16.14.19h-.25l-.13-.11Zm-13.33,16.58-2.45,2.45-.13-.11,2.58-2.58a9,9,0,0,0,11.09,0l2.58,2.57h-.26l-2.32-2.31a9,9,0,0,1-11.09,0Zm-1.6-1.6a8.94,8.94,0,0,1-1.88-5.49v-.15a9,9,0,0,0,2,5.53l.21.26h-.21l-.11-.13Zm.13-10.94.11-.13-2.54-2.53a12.3,12.3,0,0,0-2.84,7.87v.1a12.26,12.26,0,0,1,2.84-7.73Zm7-.68a6.1,6.1,0,0,1,6.12,6v-.14a6.11,6.11,0,0,0-12.22,0v.1a6.11,6.11,0,0,1,6.09-5.94Z"/><path class="cls-9" d="M141,143.38h2.64l.71,3.75a15,15,0,0,1,3.54.94l2.47-2.9,2.3,1.32-.14.16-2.16-1.24-2.47,2.9a15,15,0,0,0-3.54-.94l-.71-3.75H141l-.7,3.75a14.86,14.86,0,0,0-3.53.95l-2.49-2.89-2.15,1.24-.14-.15,2.29-1.33,2.49,2.89a15,15,0,0,1,3.53-1l.7-3.75Zm10.46,6.75a15.14,15.14,0,0,1,2.53,2.53l3.6-1.27,1.32,2.29-.19-.09-1.13-2-3.6,1.28a14.82,14.82,0,0,0-2.6-2.59l-.12-.1.12-.14h.07Zm4.63,6.21a14.47,14.47,0,0,1,.88,3.36l3.76.69v.25l-3.76-.7a14.51,14.51,0,0,0-1-3.53l-.15-.34.15.09.07.18ZM156,167.29l2.9,2.47-.19.08-2.85-2.43.14-.12Zm-4.6,6.09,1.27,3.6-.14-.16-1.27-3.57ZM132,177l1.26-3.6.13-.13-1.25,3.57Zm-6.26-7.2,2.89-2.48.14.11L126,169.92l-.17-.1ZM124,160.7v-.24l3.75-.71a15,15,0,0,1,.87-3.36l.07-.18.15-.11a15.42,15.42,0,0,0-1.09,3.89Zm1.79-7,1.32-2.29,3.6,1.26a14.42,14.42,0,0,1,2.52-2.54h.06l.14.14-.13.1a14.43,14.43,0,0,0-2.59,2.59l-3.6-1.26-1.14,2-.18.08Zm23.78,2.59a8.92,8.92,0,0,1,1.82,5.4v.15a9,9,0,0,0-2.12-5.71h.2l.1.14Zm-.15,11h-.22l2.54,2.52a12.2,12.2,0,0,0,2.91-7.95v-.1a12.17,12.17,0,0,1-2.91,7.81l-2.32-2.31ZM148,154.71l2.31-2.32h.25L148,155a9,9,0,0,0-11.26,0l-2.57-2.55h.24l2.33,2.31a9,9,0,0,1,11.26,0Zm-13.33,16.58a12.26,12.26,0,0,0,15.46,0l.13-.11h.26a12.29,12.29,0,0,1-16.25,0h.27l.13.11ZM133,169.71l2.31-2.32h.22L133,170a12.18,12.18,0,0,1-2.94-7.94V162a12.15,12.15,0,0,0,2.94,7.8Zm.32-7.85v-.09a9,9,0,0,1,1.8-5.42l.1-.13h.21l-.21.26a9,9,0,0,0-1.9,5.4Zm15.12,0a6.11,6.11,0,1,1-12.22,0V162a6.11,6.11,0,1,0,12.22,0Z"/></svg>