<svg xmlns="http://www.w3.org/2000/svg" viewBox="0 0 1122 1122"><defs><style>.cls-1{fill:#fff;}.cls-2{fill:#f0ede2;}.cls-3{fill:#dddbd0;}.cls-4{fill:#6da1a1;}.cls-5{fill:#588281;}.cls-6{fill:#e6ba59;}.cls-7{fill:#c7a24f;}.cls-8{fill:#4e4f51;}.cls-9{fill:#404042;}</style></defs><g id="BG"><rect class="cls-1" width="1122" height="1122"/></g><g id="Object"><path class="cls-2" d="M829.49,332.29H291.69A30.69,30.69,0,0,0,261,363V755.73a30.69,30.69,0,0,0,30.69,30.69h537.8a30.69,30.69,0,0,0,30.69-30.69V363A30.69,30.69,0,0,0,829.49,332.29Z"/><path class="cls-3" d="M807.78,768.28a28.12,28.12,0,0,0,28.13-28.12V380.3a28.12,28.12,0,0,0-28.13-28.12H561.41v416.1Z"/><path class="cls-4" d="M549.28,675.79l-61.35-72.63c-7.93-9.38-27.73-9.38-35.66,0L270.59,748.42c-7.92,9.38,2,21.11,17.83,21.11H562.2V691.1Z"/><path class="cls-5" d="M853,740.19,741.44,538.25c-11-13-38.55-13-49.57,0l-85.28,101-44.1,52.21,0,0-.25-.29v78.43H831.52C853.55,769.53,864.05,753.23,853,740.19Z"/><path class="cls-6" d="M379.42,504.42A42.55,42.55,0,0,0,422,547V461.87A42.55,42.55,0,0,0,379.42,504.42Z"/><path class="cls-7" d="M422,461.87V547a42.55,42.55,0,0,0,0-85.09Z"/><path class="cls-8" d="M315,768.28a28.12,28.12,0,0,1-28.12-28.12V380.3A28.12,28.12,0,0,1,315,352.18H561.41V335.57H292.51a30.69,30.69,0,0,0-30.69,30.69V759a30.69,30.69,0,0,0,30.69,30.69h268.9V768.28Z"/><path class="cls-9" d="M830.31,335.57H561.41v16.61H807.78a28.12,28.12,0,0,1,28.13,28.12V740.16a28.12,28.12,0,0,1-28.13,28.12H561.41v21.43h268.9A30.69,30.69,0,0,0,861,759V366.26A30.69,30.69,0,0,0,830.31,335.57Z"/></g></svg>