<svg xmlns="http://www.w3.org/2000/svg" viewBox="0 0 1000 1000"><defs><style>.cls-1{fill:#f6db40;}.cls-2{fill:#71d2df;}.cls-3{fill:#1a1a1a;}.cls-4{fill:#8360f4;}</style></defs><g id="Color"><circle class="cls-1" cx="51.71" cy="49.16" r="22.34"/><ellipse class="cls-1" cx="235.41" cy="52.02" rx="26.89" ry="25.2"/><ellipse class="cls-1" cx="103.98" cy="350.82" rx="20.68" ry="27.95"/><circle class="cls-1" cx="53.82" cy="501.49" r="24.46"/><circle class="cls-1" cx="498.85" cy="52.02" r="25.2"/><ellipse class="cls-1" cx="771.08" cy="54.56" rx="21.06" ry="27.74"/><ellipse class="cls-1" cx="953.39" cy="54.56" rx="20.02" ry="27.74"/><ellipse class="cls-1" cx="908.37" cy="348.05" rx="25" ry="30.73"/><ellipse class="cls-1" cx="951.56" cy="504.88" rx="35.16" ry="27.84"/><ellipse class="cls-1" cx="107.2" cy="654.39" rx="33.16" ry="24.21"/><ellipse class="cls-1" cx="51.71" cy="950.54" rx="22.34" ry="31.34"/><ellipse class="cls-1" cx="236" cy="953.93" rx="34.99" ry="27.95"/><circle class="cls-1" cx="499.48" cy="950.12" r="24.14"/><circle class="cls-1" cx="763.76" cy="950.12" r="24.14"/><ellipse class="cls-1" cx="949.88" cy="950.12" rx="16.52" ry="24.14"/><circle class="cls-1" cx="901.68" cy="648.5" r="18.31"/><polygon class="cls-1" points="376.52 419.44 623.29 422.26 620.47 487.2 584.89 500 468.56 514.87 417.74 505.27 379.34 492.28 376.52 419.44"/><path class="cls-1" d="M376.52,505.27l246.77,3v64.18l-33.88,10.67s-65.5,14.74-67.76,14.74-59.86,2.26-64.94,0-39-8.47-45.18-11.29-25.35-17.51-28.21-19.77S376.52,505.27,376.52,505.27Z" transform="translate(0 0)"/><path class="cls-1" d="M379.34,586.59h244v46.88c0,1.12-10.16,23.14-11.85,24.27S545.36,673,540.85,674.12s-73.41,2.82-75.11,2.82-57.6-10.66-59.86-10.13-32.75-16.26-32.75-18.31S379.34,586.59,379.34,586.59Z" transform="translate(0 0)"/><path class="cls-2" d="M350,224.61l23.14-5.08L414.35,250l37.27-15.24,13.56-22L473.65,189h50.4l24.14,49.12L588.85,250l34.44-30.49H650l28.63,13.55v39s-8.48,23.71-6.78,28.8,23.72,22,23.72,22H750l21.06,10.51,12.28,45.4L750,404.19l13.74,37.27,35.22,22,18.57,36.25v33H792.14L643.06,427.16l-19.77-60.43L573.6,333.38l-50-10.51-78.77,10.51-39,14.67-29.36,12.83-3.39,28.06s-11.29,57.6-9.6,62.68,3.39,65.15,3.39,65.15l-3.39,58.52V648.5l19.79,18.31-46.9,32.46-28.8-20.68s-27.95,0-45.31-1.65a63.45,63.45,0,0,1-29.15-10.44l-16.52-34.74,33-26L236,552.08l-35-19.36s-18.76-37.05-18.76-42.13,26.26-27.12,26.26-27.12l41.15-46.58-33-50.16,16.52-49.41H271l33.25,5.55,27.1-35.58-10.16-40.65Z" transform="translate(0 0)"/><path class="cls-2" d="M792.14,532.72,643.06,427.16V648.5l-52.52,28.44-73.87,1.65-50.93-1.65L394,666.5l-17.5-6-50.26,38.76v40.35L350,775.2,376.52,782l27.67-18.64,39-1.69,18.64,30.49,21.54,16.94h33.34L536.33,782,577,756.56l46.3,20.33,41.79-5.08,20.33-23.72-6.77-39,16.94-30.54,32.18-1.65,36,1.65,19.6-45.12-19.6-34.58s-13.51-23.6-13.74-30.37,16.67-21.69,16.67-21.69Z" transform="translate(0 0)"/></g><g id="Capa_1" data-name="Capa 1"><path class="cls-3" d="M33.3,2.67C22.25,6.21,5.58,23.92,2.25,36A51.65,51.65,0,0,0,6,72.48c4.58,8.75,16.25,20,22.92,22.3C33.09,96,33.3,97.49,33.3,135v38.76l38.12,38.13L109.55,250H299.78l5.41,16.88c2.92,9.17,5.21,17.92,5.21,19.38,0,3.54-20.63,24.17-24,24.17-1.46,0-11.88-2.92-23.13-6.25-26-8.13-28.54-7.29-41.87,13.75l-9.59,15.42H178.93c-31.46,0-32.92-.2-34.17-4.37-2.29-6.67-13.54-18.34-22.29-22.93-20.21-10.21-40.63-6.87-56.88,9.38S45.8,350.26,55,369.85C67.26,396.32,97.05,407,122.47,394c8.75-4.59,20-16,22.29-22.93,1.25-4.17,2.92-4.37,26.25-4.37h24.8v5.41c0,4,4.37,9.59,17.71,22.3L231,411.53l-4.17,15.84-4.37,15.84L200.6,448c-26.88,6-30.21,8.33-31.88,23.13l-1,11.25-35.84.63c-34.58.42-35.83.42-37.08-3.75-2.29-6.88-13.54-18.55-22.3-23.13-20.21-10.22-40.62-6.88-56.87,9.37S-4.21,500.3,5,519.89c12.29,26.47,42.09,37.1,67.5,24.18,8.76-4.59,20-16.05,22.3-23.13,1.25-4.17,2.5-4.17,37.08-3.76l35.84.63,1,11.25c1.67,14.8,5,17.09,31.88,23.13l21.88,4.8,4.37,15.83,4.38,15.84-17.71,17.09c-13.34,12.71-17.71,18.34-17.71,22.3v5.42H171c-23.33,0-25-.21-26.25-4.38-2.29-6.67-13.54-18.34-22.29-22.92-20.21-10.21-40.63-6.88-56.88,9.37S45.8,650.35,55,669.93c12.3,26.47,42.09,37.1,67.51,24.18,8.75-4.59,20-16.05,22.29-22.92,1.25-4.17,2.71-4.38,34.17-4.38h32.92l9.59,15.42c13.33,20.84,16.25,21.67,42.29,13.75,11-3.54,21.25-6.25,22.71-6.25,3.33,0,24,20.63,24,24.18,0,1.45-2.29,10.21-5.21,19.38l-5.41,16.88H109.55L71.42,788.3,33.3,826.44V865.2c0,37.51-.21,39-4.38,40.22C22,907.71,10.38,919,6,927.92c-2.5,4.59-4.79,13.13-5.42,19-2.91,28.55,25,56.05,53.34,52.72,20-2.29,35.84-14.59,42.92-33.55,4.38-11.46,3.34-26-2.91-38.35-4.59-8.75-16.05-20-22.92-22.29-4.17-1.25-4.38-2.92-4.38-32.93V840.82l28.75-28.76,28.55-28.55h100l100-.21,21.26,11,21.46,11v70.85L337.9,905l-28.54,28.55h-15c-13.34,0-15-.42-16.25-4.38-2.3-6.67-13.55-18.34-22.3-22.92-20.21-10.21-40.63-6.88-56.88,9.38s-19.79,34.8-10.62,54.39c12.29,26.46,42.08,37.09,67.5,24.17,8.75-4.58,20-16.05,22.3-22.92,1.25-4.17,2.91-4.38,23.54-4.38h22.09l38.12-38.13L400,890.62V780.17l5.84-5.62c5.83-5.63,6-5.63,16.25-2.71,5.62,1.67,12.5,3.54,15.62,4.17,4.8,1,5.63,2.91,10.21,23.34,6,27.09,8.34,30.42,23.13,32.09l11.25,1,.63,35.84c.41,34.6.41,35.85-3.76,37.1-6.87,2.29-18.54,13.54-23.12,22.29-12.92,25.43-2.5,55.23,24,67.52,13.54,6.25,26.25,6.46,39.79,0,26.46-12.29,37.09-42.09,24.17-67.52-4.58-8.75-16-20-23.12-22.29-4.17-1.25-4.17-2.5-3.76-37.1l.63-35.84,11.25-1c14.79-1.67,17.09-5,23.13-31.89l4.79-21.88,15.83-4.16,15.84-4.17,5.83,5.42,5.63,5.41V890.62l38.13,38.14,38.12,38.13h22.09c20.63,0,22.29.21,23.54,4.38,2.3,6.87,13.55,18.34,22.71,23.34,11.67,6,32.3,6.25,44,0,24.37-12.92,34.37-40.43,23.12-64.19-12.29-26.46-42.08-37.09-67.5-24.17-8.75,4.58-20,16-22.3,22.92-1.25,4-2.91,4.38-16.25,4.38h-15l-28.75-28.76-28.55-28.55V805.39l21.46-11,21.26-11,100,.21h100l28.75,28.76,28.55,28.55v31.67c0,30-.21,31.68-4.38,32.93-6.87,2.29-18.54,13.54-22.92,22.5-2.5,4.59-4.79,13.13-5.41,19-2.92,28.55,25,56.05,53.34,52.72,20-2.29,35.83-14.59,42.92-33.55,4.37-11.46,3.33-26-2.92-38.35-4.58-8.75-16-20-22.92-22.29-4.17-1.25-4.38-2.71-4.38-40.22V826.44L928.58,788.3l-38.13-38.13H700.22l-5.41-16.88c-2.92-9.17-5.21-17.93-5.21-19.38,0-3.55,20.63-24.18,24-24.18,1.46,0,11.67,2.71,22.71,6.25,26,7.92,29,7.09,42.29-13.75l9.59-15.42h32.92c31.46,0,32.92.21,34.17,4.38,2.29,6.87,13.54,18.33,22.71,23.34,11.67,6,32.29,6.25,44,0,24.38-12.93,34.38-40.43,23.13-64.4-12.3-26.46-42.09-36.88-67.51-24-8.75,4.58-20,16.25-22.29,22.92-1.25,4.17-2.92,4.38-26.25,4.38h-24.8v-5.42c0-4-4.37-9.59-17.71-22.3l-17.71-17.09L773.15,573l4.37-15.63,21.88-5.21c27.09-6,30.42-8.54,31.88-23.13l1-11.25,35.84-.63c34.58-.41,35.83-.41,37.08,3.76,2.29,7.08,13.54,18.54,22.3,23.13C953,557,982.75,546.36,995,519.89c9.17-19.59,5.63-38.13-10.63-54.39s-36.66-19.59-56.87-9.37c-8.76,4.58-20,16.25-22.3,23.13-1.25,4.17-2.5,4.17-37.08,3.75l-35.84-.63-1-11.25C829.82,456.54,826.49,454,799.4,448l-21.88-5.21-4.37-15.63-4.38-15.63,17.71-17.09c13.34-12.71,17.71-18.34,17.71-22.3v-5.41H829c23.33,0,25,.2,26.25,4.37,2.29,6.88,13.54,18.34,22.71,23.34,11.67,6.05,32.29,6.25,44,0C946.29,381.52,956.29,354,945,330.26c-12.3-26.47-42.09-37.1-67.51-24.18-8.75,4.59-20,16.05-22.29,22.93-1.25,4.17-2.71,4.37-34.17,4.37H788.15L778.56,318c-13.33-21-15.83-21.88-41.87-13.75-11.25,3.33-21.67,6.25-23.13,6.25-3.33,0-24-20.63-24-24.17,0-1.46,2.29-10.21,5.21-19.38L700.22,250H890.45l38.13-38.14,38.12-38.13V135c0-37.51.21-39,4.38-40.22,6.88-2.3,18.34-13.55,22.92-22.3,12.92-25.42,2.29-55.22-24.17-67.52C950.25-4.21,931.7-.67,915.45,15.59s-19.58,36.68-9.38,56.89c4.59,8.75,16.26,20,22.92,22.3,4.17,1.25,4.38,2.91,4.38,32.92v31.68l-28.75,28.76-28.55,28.55h-100l-100,.2-21.26-11-21.46-11V124L662.1,95.19l28.54-28.55h15c13.34,0,15,.42,16.25,4.38,2.3,6.88,13.55,18.34,22.71,23.34,11.67,6,32.3,6.25,44,0,24.37-12.92,34.37-40.43,23.12-64.18C799.4,3.71,769.61-6.92,744.19,6c-8.75,4.59-20,16.05-22.3,22.93-1.25,4.16-2.91,4.37-23.54,4.37H676.26L638.14,71.44,600,109.57V220l-5.63,5.42-5.83,5.42-15.84-4.17-15.83-4.17-4.79-21.88c-6-26.88-8.34-30.22-23.13-31.88l-11.25-1-.63-35.84c-.41-34.59-.41-35.84,3.76-37.09,7.08-2.3,18.54-13.55,23.12-22.3C556.88,47.06,546.25,17.26,519.79,5c-19.58-9.17-38.12-5.63-54.38,10.63S445.83,52.27,456,72.48c4.58,8.75,16.25,20,23.12,22.3,4.17,1.25,4.17,2.5,3.76,37.09l-.63,35.84-11.25,1c-14.79,1.66-17.09,5-23.13,31.88l-4.79,21.88-15.83,4.38-15.84,4.16-5.62-5.41L400,220V109.57L361.86,71.44,323.74,33.3H301.65c-20.63,0-22.29-.21-23.54-4.37-2.3-6.67-13.55-18.34-22.3-22.93C235.6-4.21,215.18-.87,198.93,15.38s-19.79,34.8-10.62,54.39c12.29,26.47,42.08,37.09,67.5,24.17,8.75-4.58,20-16,22.3-22.92,1.25-4,2.91-4.38,16.25-4.38h15L338.11,95.4,366.66,124V194.8l-21.46,11-21.26,11-100-.2h-100L95.18,187.93,66.63,159.38V127.7c0-30,.21-31.67,4.38-32.92,6.87-2.3,18.33-13.55,22.92-22.3C113.93,33.09,75.8-10.67,33.3,2.67ZM61.42,38.51C71.84,48.72,64.55,66.64,50,66.64,41.42,66.64,33.3,58.52,33.3,50S41.42,33.3,50,33.3A16.25,16.25,0,0,1,61.42,38.51Zm183.35,0c10.42,10.21,3.13,28.13-11.46,28.13-8.54,0-16.67-8.12-16.67-16.67s8.13-16.67,16.67-16.67A16.25,16.25,0,0,1,244.77,38.51Zm266.69,0A16.27,16.27,0,0,1,516.67,50a16.25,16.25,0,0,1-5.21,11.46C501.25,71.85,483.33,64.56,483.33,50c0-8.54,8.13-16.67,16.67-16.67A16.27,16.27,0,0,1,511.46,38.51Zm266.69,0A16.27,16.27,0,0,1,783.36,50a16.25,16.25,0,0,1-5.21,11.46,15.21,15.21,0,0,1-22.92,0A16.25,16.25,0,0,1,750,50a16.27,16.27,0,0,1,5.21-11.46,15.21,15.21,0,0,1,22.92,0Zm183.35,0A16.25,16.25,0,0,1,966.7,50a16.24,16.24,0,0,1-5.2,11.46,15.21,15.21,0,0,1-22.92,0A16.21,16.21,0,0,1,933.37,50a16.22,16.22,0,0,1,5.21-11.46,15.21,15.21,0,0,1,22.92,0ZM523.13,223.77c3.12,12.3,6.87,24,8.54,25.63s11,4.8,20.63,6.88S574,261.7,579,263.36c17.51,6.46,20.84,5.21,38.76-13.54l16-16.88,10,4.58a91.93,91.93,0,0,1,15.42,9.17l5.63,4.38-6.46,20.84c-3.55,11.46-5.84,22.92-5.21,25.42,1.46,6.05,43.54,48.14,49.58,49.6,2.51.62,14-1.67,25.42-5.21L749,335.26l4.37,5.63a85.73,85.73,0,0,1,9.17,15.63l4.79,10-17.08,15.84c-18.75,17.92-20,21.25-13.54,38.76,1.66,5,5,17.08,7.08,26.67s5.21,19,6.88,20.63S764,473.84,776.27,477L799,482.38v35.43l-22.71,5.42c-12.29,3.12-24,6.87-25.62,8.54s-4.8,11.05-6.88,20.63-5.42,21.68-7.08,26.68c-6.46,17.5-5.21,20.84,13.54,38.76l17.08,15.83-4.79,10a86.43,86.43,0,0,1-9.17,15.63L749,664.93l-20.84-6.46c-11.46-3.54-22.91-5.83-25.42-5.21-6,1.46-48.12,43.56-49.58,49.6-.63,2.5,1.66,14,5.21,25.42l6.46,20.84-5.63,4.38a91.26,91.26,0,0,1-15.42,9.17l-10,4.58-16-16.88c-17.92-18.75-21.25-20-38.76-13.54-5,1.67-17.08,5-26.66,7.08s-19,5.21-20.63,6.88-5.42,13.34-8.54,25.63l-5.42,22.72H482.29l-5.42-22.72c-3.12-12.29-6.87-24-8.75-25.63-1.66-1.67-10.83-4.79-20.42-6.88-9.58-2.29-21.66-5.41-26.66-7.29-17.71-6.25-20.84-5-38.76,13.75l-15.83,17.09-10-4.79a86.08,86.08,0,0,1-15.63-9.17l-5.63-4.38,6.46-20.84c3.55-11.46,5.84-22.92,5.21-25.42-1.46-6-43.54-48.14-49.58-49.6-2.51-.62-14,1.67-25.42,5.21L251,664.93l-4.37-5.62a86.43,86.43,0,0,1-9.17-15.63l-4.79-10,17.08-15.83c18.75-17.92,20-21.26,13.54-38.76-1.66-5-5-17.09-7.08-26.68s-5.21-19-6.88-20.63-13.33-5.42-25.62-8.54L201,517.81V482.38L223.73,477c12.29-3.13,24-6.88,25.62-8.55s4.8-11,6.88-20.63,5.42-21.67,7.08-26.67c6.46-17.51,5.21-20.84-13.54-38.76l-16.88-16.05,4.59-10a90.86,90.86,0,0,1,9.17-15.42l4.37-5.63,20.84,6.46c11.46,3.54,22.91,5.83,25.42,5.21,6-1.46,48.12-43.55,49.58-49.6.63-2.5-1.66-14-5.21-25.42l-6.46-20.84,5.63-4.38a86.66,86.66,0,0,1,15.63-9.17l10-4.79,15.83,17.09c17.92,18.75,21.05,20,38.76,13.75,5-1.87,17.08-5,26.66-7.29,9.59-2.08,18.76-5.21,20.63-6.88,1.67-1.66,5.21-12.29,7.92-23.75,2.71-11.26,5.42-21.68,6-23.14.63-1.87,5.63-2.5,18.13-2.08l17.29.63ZM111.43,338.59c10.41,10.21,3.12,28.14-11.46,28.14-8.55,0-16.67-8.13-16.67-16.67s8.12-16.68,16.67-16.68A16.27,16.27,0,0,1,111.43,338.59Zm800.06,0A15.21,15.21,0,1,1,900,333.38,16.25,16.25,0,0,1,911.49,338.59ZM61.42,488.64c10.42,10.21,3.13,28.13-11.46,28.13-8.54,0-16.66-8.13-16.66-16.67S41.42,483.43,50,483.43A16.21,16.21,0,0,1,61.42,488.64Zm900.08,0c10.41,10.21,3.12,28.13-11.46,28.13-8.55,0-16.67-8.13-16.67-16.67a16.22,16.22,0,0,1,28.13-11.46Zm-850.07,150a15.21,15.21,0,0,1,0,22.92C101.22,672,83.3,664.73,83.3,650.14c0-8.55,8.12-16.67,16.67-16.67A16.22,16.22,0,0,1,111.43,638.68Zm800.06,0c10.42,10.21,3.13,28.13-11.46,28.13-8.54,0-16.67-8.13-16.67-16.67s8.13-16.67,16.67-16.67A16.21,16.21,0,0,1,911.49,638.68ZM61.42,938.76a15.21,15.21,0,0,1,0,22.92A16.21,16.21,0,0,1,50,966.89a16.22,16.22,0,0,1-11.46-5.21,15.23,15.23,0,0,1,0-22.92A16.22,16.22,0,0,1,50,933.55,16.21,16.21,0,0,1,61.42,938.76Zm183.35,0c10.42,10.21,3.13,28.13-11.46,28.13-8.54,0-16.67-8.13-16.67-16.67s8.13-16.67,16.67-16.67A16.21,16.21,0,0,1,244.77,938.76Zm266.69,0c10.42,10.21,3.12,28.13-11.46,28.13a16.22,16.22,0,0,1-11.46-5.21c-10.42-10.21-3.12-28.13,11.46-28.13A16.22,16.22,0,0,1,511.46,938.76Zm266.69,0c10.42,10.21,3.12,28.13-11.46,28.13-8.54,0-16.67-8.13-16.67-16.67s8.13-16.67,16.67-16.67A16.22,16.22,0,0,1,778.15,938.76Zm183.35,0c10.41,10.21,3.12,28.13-11.46,28.13-8.55,0-16.67-8.13-16.67-16.67s8.12-16.67,16.67-16.67A16.22,16.22,0,0,1,961.5,938.76Z" transform="translate(0 0)"/><path class="cls-3" d="M464.58,318c-60,7.71-97.92,24.38-110.63,49-3.75,7.72-4,13.76-4,141.5s.21,133.79,4,141.5C364.78,671,393.53,686,440.62,695.36c26.25,5.21,92.51,5.21,118.76,0,47.09-9.38,75.84-24.38,86.67-45.43,3.75-7.71,4-13.75,4-141.5s-.21-133.78-4-141.5c-10.83-21-39.79-36.26-85.63-45.22C543.34,318.59,480.62,316.09,464.58,318ZM410.83,437.79c27.08,8.75,46.87,11,90.21,11,46.26,0,70.84-3.75,100.43-15.42l15.21-5.83v20.63c0,23.75-1.25,25.84-19.59,34.38-50,22.92-144.18,22.92-194.18,0-18.34-8.54-19.59-10.42-19.59-34.59V427.16l7.92,3.33C395.41,432.37,404.37,435.7,410.83,437.79Zm0,83.35c27.08,8.76,46.87,11.05,90.21,11.05,46.26,0,70.84-3.75,100.43-15.42l15.21-5.84v20.63c0,23.76-1.25,25.84-19.59,34.39-50,22.92-144.18,22.92-194.18,0-18.34-8.55-19.59-10.42-19.59-34.59V510.52l7.92,3.33C395.41,515.73,404.37,519.06,410.83,521.14Zm0,83.36c27.08,8.75,46.87,11,90.21,11,46.26,0,70.84-3.75,100.43-15.42l15.21-5.83v20.63c0,23.76-1.25,25.84-19.59,34.38-50,22.93-144.18,22.93-194.18,0-18.34-8.54-19.59-10.42-19.59-34.59V593.87l7.92,3.34C395.41,599.08,404.37,602.42,410.83,604.5Z" transform="translate(0 0)"/></g><g id="Base"><ellipse class="cls-4" cx="500" cy="382.47" rx="116.68" ry="34.42"/></g></svg>