<svg xmlns="http://www.w3.org/2000/svg" viewBox="0 0 422.07 443.3"><defs><style>.cls-1{fill:#faefde;}.cls-2{fill:#efc88e;}.cls-3{fill:#7bbeeb;}.cls-4{fill:#ed7899;}.cls-5{fill:#acb7d0;}.cls-6{fill:#5dbc9d;}.cls-7{fill:#8d6c9f;}</style></defs><g id="Color"><path class="cls-1" d="M212,148.05,240.17,142l26.72,19,.78,22.28-6.27,14.47-16.4,15s-23.5-2.05-27-8.25S204.48,194,204.48,194l-6.08-22Z" transform="translate(-29.13 -0.69)"/><path class="cls-2" d="M164,275.28C161,272,136,226,136,226V188.81L149.13,157l33.08-30.51L209,112.89l42.79-7L283,123l18.84,10,23.05,30S329,186.12,329,190.56V234l-8.3,29.4L308,275.28,297,259l-14-33-9-13.25-12.6-8.25,3.12-13.94L266.89,161l-10.18-19-23.5-6.5-8.37.16L212,142l-13.6,30,6.08,22L208,204.5l-17.5,8.25L176,230l-6,24.88Z" transform="translate(-29.13 -0.69)"/><polygon class="cls-3" points="134.87 274.59 146.87 229.31 178.87 203.81 204.08 210.34 225.29 212.06 237.76 207.41 253.87 225.31 263.29 247.51 272.71 279.31 253.87 295.56 230.21 303.08 202.55 303.08 161.37 295.56 134.87 274.59"/><polygon class="cls-4" points="309.92 31.31 303.87 71.09 326.87 112.2 374.87 117.31 408.74 97.15 414.87 48.31 394.7 22.31 379.87 9.31 363.06 0.14 347.87 6.31 309.92 31.31"/><polygon class="cls-2" points="319.87 303.08 303.87 338.25 319.87 374.46 347.87 387.54 374.87 387.54 394.7 365.31 400.87 338.25 394.7 311.31 383.87 296.31 367.87 288.83 346.87 288.83 319.87 303.08"/><path class="cls-5" d="M38,282s-4.56,26,4.22,26H66l9-13V275.28L61,264.5,36.82,275.28Z" transform="translate(-29.13 -0.69)"/><polygon class="cls-6" points="188.87 387.54 175.35 408.88 182.87 430.21 202.55 430.21 222.66 426.31 230.21 408.88 225.29 387.54 211.04 380.94 188.87 387.54"/><polygon class="cls-6" points="7.69 72.36 13.01 105.15 34.87 117.31 55.87 117.31 69.84 105.15 74.87 80.4 69.84 62.82 45.87 52.31 27.33 52.31 7.69 72.36"/></g><g id="Capa_1" data-name="Capa 1"><path class="cls-7" d="M380.4,1.1c-13.5,1.5-26.7,8.1-37.1,18.7a62.28,62.28,0,0,0-14.9,24.7c-2.3,6.8-2.7,9.6-2.7,19,0,12.9,2.7,22.8,8.8,32.6,2,3.3,3.5,6.3,3.3,6.7-.3.7-22.2,21.1-27.5,25.5-2.1,1.9-2.2,1.8-10.9-5.2a104.81,104.81,0,0,0-140.9,7.5l-8.2,8.2-13.9-11c-7.6-6-14.9-11.3-16.2-11.8-4.8-2-9.3,2.7-7.8,8.2.5,1.9,10.7,10.4,29.2,24.5,1.3,1,1.1,1.8-1.6,6.6-13.3,23.7-15.8,56.8-6.3,84.5,1.3,4.1,2.3,7.5,2.1,7.6-.3.3-53.1,23.4-55.2,24.2-.8.3-3.8-1.3-6.6-3.4-6.4-4.9-12.1-6.6-19.7-6-14,1-24.2,11.3-25.1,25.5C28.1,304.1,40,317,56.5,317c15.6,0,27.4-11.8,27.5-27.4l.1-5.1L112.7,272c15.7-6.9,28.9-12.6,29.3-12.8s2.2,2.1,4,5c5,7.7,18,20.9,26.3,26.6a108.93,108.93,0,0,0,45.4,18.3l8.2,1.2.3,23c.3,22.7.3,22.9,2.7,24.8,3.1,2.6,5.7,2.4,8.6-.6l2.5-2.4V310.3l5.3-.7c20.9-2.6,43.9-13.1,57.7-26.2l3.6-3.4,14.5,13,14.5,13-3.8,7.7c-4.8,9.7-7.2,20.6-6.3,28.8,3,29.2,24.4,50.4,52.5,52.2,16.4,1,30.8-4.5,42.6-16.2C431.8,367.3,437,354.9,437,339s-5.2-28.3-16.4-39.5c-18.9-18.7-47.4-21.8-69.6-7.4-5.2,3.4-6.4,3.7-7.9,2.7-1.8-1.4-27.1-24-27.1-24.3,0-.1,2.1-3.3,4.7-7.1,23.5-34.8,23.4-82.7-.1-117.3l-3.7-5.5,2.8-2.6c1.5-1.5,8.5-7.9,15.4-14.3L347.8,112l6.4,4.3c22.3,15,53.3,13.2,74.2-4.2,14.8-12.4,22.9-29.5,22.8-48.6C451.2,25.4,418.8-3.1,380.4,1.1Zm20.1,14.4c12.9,3.4,26.1,13.8,31.9,25.3A49.63,49.63,0,0,1,388,113c-20.1,0-39.4-13.7-46.2-32.7-2.6-7.2-3.4-19.1-1.8-26.6C345.6,26.5,373.9,8.6,400.5,15.5ZM251.7,114.6c37.1,7.6,66.3,38.3,72.4,75.8,1.6,10.5.7,29-2.1,38.6a105.91,105.91,0,0,1-14.2,29.5l-4.3,6-.6-11.5c-.7-13.4-2.8-19.9-9.6-30.2a51.5,51.5,0,0,0-19.9-18l-6.2-3.2,2.9-5.6a42.3,42.3,0,0,0-19-57.3c-6.3-3-7.2-3.2-18.1-3.2-10.6,0-12,.2-17.2,2.8-21.9,10.8-30.9,37-19.7,57.6,1.6,3.1,2.6,5.7,2.1,5.9-3.9,1.3-14.7,8.8-19.2,13.4-5.9,5.9-11.9,16.1-14.1,23.8-.7,2.5-1.5,9.2-1.8,15l-.6,10.5-4.3-6a103.2,103.2,0,0,1-14.2-30c-3.2-12-3.7-29.3-1.2-41.5,7.6-36.9,34.9-64.3,72.2-72.6C223.1,112.6,242.7,112.7,251.7,114.6ZM243.4,150a31.51,31.51,0,0,1,15.8,14.8c1.7,3.6,2.2,6.4,2.2,11.7-.1,11.3-5,19.7-14.6,25.1-4.7,2.6-6.2,2.9-13.8,2.9-8.7,0-13.1-1.5-18.5-6.2-7.3-6.4-11.4-17.7-9.6-26.4C208.9,153.5,226.2,143.6,243.4,150Zm-16.7,67.9a42.87,42.87,0,0,0,22.8-2.8c6.3-2.8,8.8-2.7,16.3.9,11.4,5.4,20.9,17.6,23.2,30.1.6,2.9,1,10.9,1,17.9v12.8l-3.1,2.6C275.4,289.1,251.2,297,233,297c-17.7,0-38.5-6.6-52.3-16.6L176,277V263.7c0-18.1,2.5-27.3,10.3-36.9,3.9-4.9,12.3-10.6,18.8-12.8,5.1-1.8,5.2-1.7,10.3.6A62.17,62.17,0,0,0,226.7,217.9ZM65.5,278.4c8.8,6.7,6.1,21.5-4.5,24.7a14.39,14.39,0,0,1-18.6-16.4C44.4,276.2,56.7,271.8,65.5,278.4ZM391,297.6c11.2,2.5,22.9,11.4,27.8,21.1,13.2,25.7-.7,55.7-28.6,61.9a40.78,40.78,0,0,1-26.6-2.9c-6.5-3-15.5-11.1-19-17.1-7.4-12.7-7.4-30.5,0-43.2,3.5-6,12.5-14.1,18.8-17C373.2,295.9,380.5,295.2,391,297.6Z" transform="translate(-29.13 -0.69)"/><path class="cls-7" d="M57.6,45.1C39.1,51.5,28.2,67.8,29.2,87.5a41.32,41.32,0,0,0,49.7,38.1c20.1-4.2,33.3-20.5,33.2-41.1C112.1,56.2,84,36,57.6,45.1ZM78.7,57.5C94,62,102.6,78.8,97.5,94.1c-2.4,7.3-10.1,14.9-17.4,17.4A31.39,31.39,0,0,1,57.7,110C41.4,101.8,37.1,80.2,49,66.7,57.4,57.2,67.3,54.1,78.7,57.5Z" transform="translate(-29.13 -0.69)"/><path class="cls-7" d="M220,60c-1.6,1.6-2,3.3-2,9.2a57.77,57.77,0,0,0,1,10.9c1.2,4.3,4.7,6.3,8.4,4.9,4-1.5,4.8-4.1,4-13.7-.6-7.2-1.1-9.1-3-11C225.6,57.5,222.6,57.4,220,60Z" transform="translate(-29.13 -0.69)"/><path class="cls-7" d="M256.6,62.3c-1.8,1.3-4.6,12-4.8,18.5-.2,4.1,2.1,6.5,6.2,6.5,4.3,0,6-2.1,7.6-9.4,1.8-8.5,1.7-13.4-.2-15.3S259,60.5,256.6,62.3Z" transform="translate(-29.13 -0.69)"/><path class="cls-7" d="M184,67c-2.6,2.6-2.4,5.9.8,15s6.3,11.5,11,9c3.6-2.1,3.9-6.2,1.2-14.8C193.7,66.1,188.5,62.5,184,67Z" transform="translate(-29.13 -0.69)"/><path class="cls-7" d="M290.8,74.7C288,77.9,283,88.9,283,91.8c0,3.9,3,6.4,7.2,6,3-.3,3.7-1,7.5-8.3,4.7-8.8,5.2-12.3,2.5-14.8C297.8,72.5,292.7,72.5,290.8,74.7Z" transform="translate(-29.13 -0.69)"/><path class="cls-7" d="M151.6,83.1c-3.9,3-3.3,6.3,2.7,14.9,4.4,6.4,5.7,7.5,8.4,7.8,3.7.4,7.3-2.6,7.3-5.8,0-2.6-9.3-16.6-11.9-18S154.6,80.7,151.6,83.1Z" transform="translate(-29.13 -0.69)"/><path class="cls-7" d="M222.4,376.4c-5.1,1.6-12.3,6.5-15.9,10.8a35,35,0,0,0-5.1,36.6A36.68,36.68,0,0,0,220.8,442c8,3.1,20.5,2.5,27.8-1.3,16.4-8.4,23.6-28.6,16.1-45.1-3.4-7.3-9.7-14-16.5-17.3C241.6,375.1,229.2,374.1,222.4,376.4Zm17.1,12.7c6.1,1.7,13,9.3,14.4,15.9a20.85,20.85,0,0,1-11.2,23.5c-9.1,4.5-18.9,2.6-25.5-5-4.3-4.8-5.2-7.4-5.2-14.1C212,394.8,225.1,385.2,239.5,389.1Z" transform="translate(-29.13 -0.69)"/></g></svg>